{"glyphs":{"0":{"ha":790,"x_min":58,"x_max":731,"o":"m 394 -13 q 144 112 229 -13 q 58 514 58 238 q 144 916 58 790 q 394 1041 229 1041 q 646 916 560 1041 q 731 514 731 790 q 645 112 731 238 q 394 -13 560 -13 m 394 131 q 487 166 451 131 q 543 285 524 201 q 562 513 562 369 q 543 742 562 658 q 487 862 524 826 q 394 897 451 897 q 302 862 339 897 q 247 743 266 826 q 228 515 228 659 q 247 286 228 370 q 302 166 266 201 q 394 131 339 131 z "},"1":{"ha":449,"x_min":9,"x_max":357,"o":"m 253 1031 l 357 1031 l 357 0 l 186 0 l 186 825 l 9 704 l 9 865 l 253 1031 z "},"2":{"ha":626,"x_min":16,"x_max":592,"o":"m 592 150 l 592 0 l 28 0 l 28 96 l 270 466 q 355 620 328 556 q 381 743 381 685 q 337 859 381 823 q 202 896 293 896 q 16 860 101 896 l 16 1005 q 114 1031 56 1022 q 226 1041 172 1041 q 466 973 381 1041 q 550 760 550 906 q 522 601 550 682 q 424 417 493 519 l 247 150 l 592 150 z "},"3":{"ha":644,"x_min":24,"x_max":606,"o":"m 399 532 q 553 445 501 510 q 606 278 606 379 q 563 120 606 185 q 439 21 520 55 q 244 -13 357 -13 q 24 19 128 -13 l 24 156 q 131 132 74 140 q 240 124 189 124 q 442 288 442 124 q 223 456 442 456 l 121 456 l 121 597 l 197 597 q 358 640 304 597 q 412 760 412 683 q 368 868 412 833 q 232 904 324 904 q 37 868 126 904 l 37 1005 q 137 1031 78 1022 q 253 1041 197 1041 q 493 973 411 1041 q 576 776 576 905 q 530 622 576 686 q 399 532 484 558 z "},"4":{"ha":760,"x_min":26,"x_max":738,"o":"m 738 364 l 738 229 l 614 229 l 614 0 l 461 0 l 461 229 l 26 229 l 26 326 l 355 1028 l 518 1028 l 213 364 l 461 364 l 481 681 l 614 681 l 614 364 l 738 364 z "},"5":{"ha":650,"x_min":42,"x_max":623,"o":"m 248 609 q 532 521 440 596 q 623 299 623 446 q 530 66 623 145 q 263 -13 437 -13 q 42 22 145 -13 l 42 158 q 151 133 93 142 q 260 124 208 124 q 409 166 360 124 q 458 292 458 208 q 432 388 458 351 q 342 446 405 425 q 169 474 279 467 l 72 480 l 103 1028 l 583 1028 l 583 885 l 256 885 l 239 610 l 248 609 z "},"6":{"ha":741,"x_min":67,"x_max":712,"o":"m 424 607 q 569 574 504 607 q 673 473 635 541 q 712 305 712 406 q 673 132 712 203 q 564 23 633 60 q 406 -13 495 -13 q 67 484 67 -13 q 177 907 67 772 q 497 1041 288 1041 q 588 1034 544 1041 q 665 1015 632 1028 l 665 875 q 587 894 626 888 q 500 901 547 901 q 355 865 413 901 q 267 751 297 830 q 234 542 236 672 q 319 590 269 574 q 424 607 369 607 m 408 120 q 514 164 473 120 q 555 298 555 208 q 511 432 555 388 q 393 475 467 475 q 307 460 349 475 q 235 414 266 445 q 260 236 238 301 q 320 146 283 172 q 408 120 357 120 z "},"7":{"ha":601,"x_min":6,"x_max":562,"o":"m 6 1028 l 562 1028 l 562 932 l 258 0 l 82 0 l 379 878 l 6 878 l 6 1028 z "},"8":{"ha":790,"x_min":49,"x_max":740,"o":"m 563 533 q 700 423 660 485 q 740 269 740 362 q 699 122 740 185 q 581 22 658 58 q 399 -13 503 -13 q 208 20 287 -13 q 89 115 129 54 q 49 259 49 176 q 94 409 49 342 q 224 515 140 475 q 110 623 144 561 q 75 767 75 684 q 114 911 75 849 q 226 1007 153 974 q 399 1041 299 1041 q 566 1009 494 1041 q 675 918 637 977 q 713 780 713 860 q 676 640 713 703 q 563 533 640 577 m 401 915 q 281 876 324 915 q 238 772 238 838 q 256 694 238 725 q 317 636 273 663 q 446 581 362 609 l 447 581 q 537 661 509 617 q 565 768 565 706 q 522 877 565 839 q 401 915 479 915 m 399 113 q 533 152 486 113 q 579 260 579 190 q 561 341 579 309 q 498 399 542 374 q 370 451 453 424 l 357 456 q 347 459 352 458 q 336 463 342 461 q 243 384 276 435 q 210 272 210 333 q 258 154 210 195 q 399 113 306 113 z "},"9":{"ha":741,"x_min":29,"x_max":674,"o":"m 335 1041 q 674 544 674 1041 q 564 121 674 256 q 244 -13 453 -13 q 153 -7 197 -13 q 76 13 109 0 l 76 153 q 154 133 115 140 q 241 127 194 127 q 386 163 328 127 q 474 277 444 198 q 507 485 505 356 q 422 438 472 454 q 317 421 372 421 q 172 454 237 421 q 68 555 106 487 q 29 723 29 622 q 68 896 29 824 q 177 1005 108 968 q 335 1041 246 1041 m 186 730 q 230 596 186 640 q 348 553 274 553 q 434 568 392 553 q 506 614 475 583 q 481 791 503 726 q 421 882 458 856 q 333 908 384 908 q 227 864 268 908 q 186 730 186 820 z "},"\u0000":{"ha":0,"x_min":0,"x_max":0,"o":""},"\r":{"ha":297,"x_min":0,"x_max":0,"o":""}," ":{"ha":297,"x_min":0,"x_max":0,"o":""},"A":{"ha":849,"x_min":5,"x_max":844,"o":"m 675 0 l 593 297 l 253 297 l 172 0 l 5 0 l 299 1028 l 550 1028 l 844 0 l 675 0 m 294 443 l 553 443 l 423 912 l 294 443 z "},"Á":{"ha":849,"x_min":5,"x_max":844,"o":"m 675 0 l 593 297 l 253 297 l 172 0 l 5 0 l 299 1028 l 550 1028 l 844 0 l 675 0 m 294 443 l 553 443 l 423 912 l 294 443 m 351 1111 l 453 1317 l 628 1317 l 499 1111 l 351 1111 z "},"Ă":{"ha":849,"x_min":5,"x_max":844,"o":"m 675 0 l 593 297 l 253 297 l 172 0 l 5 0 l 299 1028 l 550 1028 l 844 0 l 675 0 m 294 443 l 553 443 l 423 912 l 294 443 m 426 1115 q 274 1164 330 1115 q 210 1308 218 1214 l 316 1308 q 349 1228 323 1252 q 426 1203 375 1203 q 503 1228 477 1203 q 535 1308 529 1252 l 640 1308 q 577 1164 633 1213 q 426 1115 522 1115 z "},"Ắ":{"ha":849,"x_min":5,"x_max":844,"o":"m 675 0 l 593 297 l 253 297 l 172 0 l 5 0 l 299 1028 l 550 1028 l 844 0 l 675 0 m 294 443 l 553 443 l 423 912 l 294 443 m 383 1276 l 456 1444 l 567 1444 l 468 1276 l 383 1276 m 425 1115 q 273 1160 328 1115 q 208 1291 217 1206 l 306 1291 q 340 1217 313 1240 q 425 1194 367 1194 q 510 1216 483 1194 q 549 1291 538 1239 l 642 1291 q 577 1160 633 1206 q 425 1115 522 1115 z "},"Ặ":{"ha":849,"x_min":5,"x_max":844,"o":"m 675 0 l 593 297 l 253 297 l 172 0 l 5 0 l 299 1028 l 550 1028 l 844 0 l 675 0 m 294 443 l 553 443 l 423 912 l 294 443 m 425 -274 q 345 -251 374 -274 q 316 -186 316 -229 q 345 -120 316 -143 q 425 -97 374 -97 q 506 -120 476 -97 q 535 -186 535 -143 q 506 -251 535 -229 q 425 -274 476 -274 m 426 1115 q 274 1164 330 1115 q 210 1308 218 1214 l 316 1308 q 349 1228 323 1252 q 426 1203 375 1203 q 503 1228 477 1203 q 535 1308 529 1252 l 640 1308 q 577 1164 633 1213 q 426 1115 522 1115 z "},"Ằ":{"ha":849,"x_min":5,"x_max":844,"o":"m 675 0 l 593 297 l 253 297 l 172 0 l 5 0 l 299 1028 l 550 1028 l 844 0 l 675 0 m 294 443 l 553 443 l 423 912 l 294 443 m 383 1276 l 283 1444 l 395 1444 l 468 1276 l 383 1276 m 425 1115 q 273 1160 328 1115 q 208 1291 217 1206 l 302 1291 q 340 1217 313 1240 q 425 1194 367 1194 q 509 1217 483 1194 q 544 1291 536 1240 l 642 1291 q 577 1160 633 1206 q 425 1115 522 1115 z "},"Ẳ":{"ha":849,"x_min":5,"x_max":844,"o":"m 675 0 l 593 297 l 253 297 l 172 0 l 5 0 l 299 1028 l 550 1028 l 844 0 l 675 0 m 294 443 l 553 443 l 423 912 l 294 443 m 380 1276 q 400 1321 382 1306 q 448 1351 417 1337 q 476 1367 467 1360 q 484 1382 484 1373 q 468 1402 484 1395 q 413 1409 451 1409 q 351 1405 383 1409 q 290 1391 318 1400 l 290 1455 q 354 1468 315 1463 q 426 1474 393 1474 q 581 1393 581 1474 q 567 1355 581 1369 q 523 1326 552 1341 q 485 1303 498 1313 q 470 1276 473 1293 l 380 1276 m 425 1115 q 273 1160 328 1115 q 208 1291 217 1206 l 306 1291 q 340 1217 313 1240 q 425 1194 367 1194 q 510 1217 482 1194 q 549 1291 538 1240 l 642 1291 q 577 1160 633 1206 q 425 1115 522 1115 z "},"Ẵ":{"ha":849,"x_min":5,"x_max":844,"o":"m 675 0 l 593 297 l 253 297 l 172 0 l 5 0 l 299 1028 l 550 1028 l 844 0 l 675 0 m 294 443 l 553 443 l 423 912 l 294 443 m 517 1330 q 469 1336 492 1330 q 415 1355 446 1342 q 367 1371 385 1366 q 332 1376 350 1376 q 269 1365 297 1376 q 208 1328 241 1354 l 208 1414 q 265 1448 236 1438 q 333 1458 294 1458 q 380 1451 358 1458 q 436 1433 401 1445 q 482 1416 464 1422 q 519 1411 501 1411 q 582 1422 554 1411 q 642 1458 610 1433 l 642 1373 q 585 1340 614 1349 q 517 1330 556 1330 m 425 1115 q 273 1160 328 1115 q 208 1291 217 1206 l 306 1291 q 340 1217 313 1240 q 425 1194 367 1194 q 509 1217 482 1194 q 544 1291 536 1240 l 642 1291 q 577 1160 633 1206 q 425 1115 522 1115 z "},"Â":{"ha":849,"x_min":5,"x_max":844,"o":"m 675 0 l 593 297 l 253 297 l 172 0 l 5 0 l 299 1028 l 550 1028 l 844 0 l 675 0 m 294 443 l 553 443 l 423 912 l 294 443 m 633 1111 l 514 1111 l 426 1252 l 337 1111 l 217 1111 l 352 1317 l 499 1317 l 633 1111 z "},"Ấ":{"ha":849,"x_min":5,"x_max":844,"o":"m 675 0 l 593 297 l 253 297 l 172 0 l 5 0 l 299 1028 l 550 1028 l 844 0 l 675 0 m 294 443 l 553 443 l 423 912 l 294 443 m 647 1433 l 759 1433 l 660 1258 l 574 1258 l 647 1433 m 352 1300 l 499 1300 l 633 1111 l 514 1111 l 426 1242 l 337 1111 l 217 1111 l 352 1300 z "},"Ậ":{"ha":849,"x_min":5,"x_max":844,"o":"m 675 0 l 593 297 l 253 297 l 172 0 l 5 0 l 299 1028 l 550 1028 l 844 0 l 675 0 m 294 443 l 553 443 l 423 912 l 294 443 m 425 -274 q 345 -251 374 -274 q 316 -186 316 -229 q 345 -120 316 -143 q 425 -97 374 -97 q 506 -120 476 -97 q 535 -186 535 -143 q 506 -251 535 -229 q 425 -274 476 -274 m 633 1111 l 514 1111 l 426 1252 l 337 1111 l 217 1111 l 352 1317 l 499 1317 l 633 1111 z "},"Ầ":{"ha":849,"x_min":5,"x_max":844,"o":"m 675 0 l 593 297 l 253 297 l 172 0 l 5 0 l 299 1028 l 550 1028 l 844 0 l 675 0 m 294 443 l 553 443 l 423 912 l 294 443 m 681 1258 l 595 1258 l 497 1433 l 608 1433 l 681 1258 m 352 1300 l 499 1300 l 633 1111 l 514 1111 l 426 1242 l 337 1111 l 217 1111 l 352 1300 z "},"Ẩ":{"ha":849,"x_min":5,"x_max":844,"o":"m 675 0 l 593 297 l 253 297 l 172 0 l 5 0 l 299 1028 l 550 1028 l 844 0 l 675 0 m 294 443 l 553 443 l 423 912 l 294 443 m 619 1456 q 774 1376 774 1456 q 760 1338 774 1351 q 716 1309 745 1324 q 679 1286 692 1297 q 664 1258 666 1276 l 574 1258 q 593 1303 576 1288 q 641 1333 610 1319 q 668 1349 659 1342 q 677 1365 677 1356 q 661 1384 677 1378 q 606 1391 644 1391 q 483 1373 538 1391 l 483 1438 q 548 1451 509 1446 q 619 1456 586 1456 m 352 1300 l 499 1300 l 633 1111 l 514 1111 l 426 1242 l 337 1111 l 217 1111 l 352 1300 z "},"Ẫ":{"ha":849,"x_min":5,"x_max":844,"o":"m 675 0 l 593 297 l 253 297 l 172 0 l 5 0 l 299 1028 l 550 1028 l 844 0 l 675 0 m 294 443 l 553 443 l 423 912 l 294 443 m 515 1411 q 575 1422 549 1411 q 633 1458 602 1433 l 633 1373 q 579 1340 607 1349 q 514 1330 551 1330 q 468 1336 490 1330 q 414 1355 446 1342 q 369 1371 385 1366 q 335 1376 353 1376 q 275 1365 301 1376 q 217 1328 249 1354 l 217 1414 q 272 1448 244 1438 q 337 1458 299 1458 q 383 1451 360 1458 q 437 1433 405 1445 q 481 1416 463 1422 q 515 1411 498 1411 m 352 1300 l 499 1300 l 633 1111 l 514 1111 l 426 1242 l 337 1111 l 217 1111 l 352 1300 z "},"Ȁ":{"ha":849,"x_min":5,"x_max":844,"o":"m 675 0 l 593 297 l 253 297 l 172 0 l 5 0 l 299 1028 l 550 1028 l 844 0 l 675 0 m 294 443 l 553 443 l 423 912 l 294 443 m 239 1111 l 157 1317 l 295 1317 l 368 1111 l 239 1111 m 483 1111 l 401 1317 l 540 1317 l 612 1111 l 483 1111 z "},"Ä":{"ha":849,"x_min":5,"x_max":844,"o":"m 675 0 l 593 297 l 253 297 l 172 0 l 5 0 l 299 1028 l 550 1028 l 844 0 l 675 0 m 294 443 l 553 443 l 423 912 l 294 443 m 274 1128 q 201 1151 228 1128 q 175 1216 175 1174 q 201 1281 175 1258 q 274 1304 228 1304 q 346 1281 320 1304 q 372 1216 372 1258 q 346 1151 372 1174 q 274 1128 320 1128 m 577 1128 q 505 1151 531 1128 q 478 1216 478 1174 q 505 1281 478 1258 q 577 1304 531 1304 q 649 1281 623 1304 q 676 1216 676 1258 q 649 1151 676 1174 q 577 1128 623 1128 z "},"Ạ":{"ha":849,"x_min":5,"x_max":844,"o":"m 675 0 l 593 297 l 253 297 l 172 0 l 5 0 l 299 1028 l 550 1028 l 844 0 l 675 0 m 294 443 l 553 443 l 423 912 l 294 443 m 425 -274 q 345 -251 374 -274 q 316 -186 316 -229 q 345 -120 316 -143 q 425 -97 374 -97 q 506 -120 476 -97 q 535 -186 535 -143 q 506 -251 535 -229 q 425 -274 476 -274 z "},"À":{"ha":849,"x_min":5,"x_max":844,"o":"m 675 0 l 593 297 l 253 297 l 172 0 l 5 0 l 299 1028 l 550 1028 l 844 0 l 675 0 m 294 443 l 553 443 l 423 912 l 294 443 m 351 1111 l 223 1317 l 398 1317 l 499 1111 l 351 1111 z "},"Ả":{"ha":849,"x_min":5,"x_max":844,"o":"m 675 0 l 593 297 l 253 297 l 172 0 l 5 0 l 299 1028 l 550 1028 l 844 0 l 675 0 m 294 443 l 553 443 l 423 912 l 294 443 m 380 1111 q 400 1160 382 1143 q 449 1192 419 1178 q 476 1209 468 1203 q 484 1225 484 1215 q 468 1247 484 1240 q 413 1255 451 1255 q 351 1250 383 1255 q 290 1235 318 1244 l 290 1308 q 354 1322 315 1316 q 426 1327 392 1327 q 581 1239 581 1327 q 573 1207 581 1220 q 554 1186 565 1194 q 523 1166 542 1178 q 486 1141 499 1153 q 470 1111 473 1129 l 380 1111 z "},"Ȃ":{"ha":849,"x_min":5,"x_max":844,"o":"m 675 0 l 593 297 l 253 297 l 172 0 l 5 0 l 299 1028 l 550 1028 l 844 0 l 675 0 m 294 443 l 553 443 l 423 912 l 294 443 m 210 1119 q 273 1263 218 1214 q 425 1313 328 1313 q 577 1263 521 1313 q 640 1119 633 1214 l 535 1119 q 502 1199 528 1175 q 425 1224 476 1224 q 348 1199 374 1224 q 316 1119 322 1175 l 210 1119 z "},"Ā":{"ha":849,"x_min":5,"x_max":844,"o":"m 675 0 l 593 297 l 253 297 l 172 0 l 5 0 l 299 1028 l 550 1028 l 844 0 l 675 0 m 294 443 l 553 443 l 423 912 l 294 443 m 207 1158 l 207 1270 l 644 1270 l 644 1158 l 207 1158 z "},"Ą":{"ha":849,"x_min":5,"x_max":885,"o":"m 789 -226 q 885 -203 831 -226 l 885 -277 q 769 -301 830 -301 q 640 -265 684 -301 q 597 -163 597 -229 q 622 -75 597 -115 q 703 0 647 -35 l 675 0 l 593 297 l 253 297 l 172 0 l 5 0 l 299 1028 l 550 1028 l 844 0 q 728 -74 760 -37 q 696 -153 696 -110 q 789 -226 696 -226 m 294 443 l 553 443 l 423 912 l 294 443 z "},"Å":{"ha":849,"x_min":5,"x_max":844,"o":"m 675 0 l 593 297 l 253 297 l 172 0 l 5 0 l 299 1028 l 550 1028 l 844 0 l 675 0 m 294 443 l 553 443 l 423 912 l 294 443 m 425 1103 q 351 1121 384 1103 q 299 1172 318 1140 q 281 1244 281 1204 q 299 1317 281 1285 q 351 1368 318 1349 q 425 1386 384 1386 q 500 1368 467 1386 q 551 1317 533 1349 q 570 1244 570 1285 q 551 1172 570 1204 q 500 1121 533 1140 q 425 1103 467 1103 m 425 1172 q 476 1191 457 1172 q 496 1244 496 1211 q 476 1297 496 1278 q 425 1317 456 1317 q 374 1297 394 1317 q 355 1244 355 1277 q 374 1191 355 1211 q 425 1172 394 1172 z "},"Ǻ":{"ha":849,"x_min":5,"x_max":844,"o":"m 675 0 l 593 297 l 253 297 l 172 0 l 5 0 l 299 1028 l 550 1028 l 844 0 l 675 0 m 294 443 l 553 443 l 423 912 l 294 443 m 549 1322 q 570 1245 570 1288 q 551 1173 570 1205 q 500 1122 533 1140 q 425 1103 467 1103 q 351 1122 384 1103 q 299 1173 318 1140 q 281 1245 281 1205 q 299 1318 281 1285 q 351 1368 318 1350 q 425 1386 384 1386 q 469 1380 449 1386 l 547 1468 l 684 1468 l 549 1322 m 425 1172 q 476 1192 457 1172 q 496 1245 496 1212 q 476 1298 496 1278 q 425 1317 456 1317 q 374 1298 394 1317 q 355 1245 355 1278 q 374 1192 355 1212 q 425 1172 394 1172 z "},"Ã":{"ha":849,"x_min":5,"x_max":844,"o":"m 675 0 l 593 297 l 253 297 l 172 0 l 5 0 l 299 1028 l 550 1028 l 844 0 l 675 0 m 294 443 l 553 443 l 423 912 l 294 443 m 530 1136 q 476 1143 501 1136 q 415 1165 451 1151 q 362 1185 383 1178 q 319 1191 341 1191 q 255 1178 283 1191 q 200 1140 228 1166 l 200 1249 q 252 1286 223 1274 q 320 1298 281 1298 q 375 1290 349 1298 q 436 1268 401 1283 q 489 1249 467 1255 q 532 1242 510 1242 q 595 1255 568 1242 q 651 1294 623 1267 l 651 1184 q 599 1148 628 1160 q 530 1136 569 1136 z "},"Æ":{"ha":1186,"x_min":5,"x_max":1153,"o":"m 751 148 l 1153 148 l 1153 0 l 595 0 l 578 296 l 258 296 l 174 0 l 5 0 l 303 1028 l 1147 1028 l 1147 880 l 706 880 l 723 600 l 1078 600 l 1078 452 l 732 452 l 751 148 m 301 444 l 569 444 l 543 880 l 425 880 l 301 444 z "},"Ǽ":{"ha":1186,"x_min":5,"x_max":1153,"o":"m 751 148 l 1153 148 l 1153 0 l 595 0 l 578 296 l 258 296 l 174 0 l 5 0 l 303 1028 l 1147 1028 l 1147 880 l 706 880 l 723 600 l 1078 600 l 1078 452 l 732 452 l 751 148 m 301 444 l 569 444 l 543 880 l 425 880 l 301 444 m 538 1111 l 639 1317 l 814 1317 l 685 1111 l 538 1111 z "},"B":{"ha":815,"x_min":85,"x_max":781,"o":"m 586 531 q 730 447 679 511 q 781 281 781 383 q 673 62 781 135 q 331 -10 565 -10 q 208 -6 274 -10 q 85 6 142 -1 l 85 1012 q 358 1040 217 1040 q 581 1010 494 1040 q 710 919 668 981 q 752 761 752 858 q 710 615 752 678 q 586 531 668 553 m 383 905 q 251 895 315 905 l 251 595 l 383 595 q 506 613 460 595 q 570 664 551 630 q 590 751 590 697 q 569 840 590 807 q 503 889 549 874 q 383 905 458 905 m 374 124 q 517 142 464 124 q 595 195 571 159 q 619 290 619 231 q 567 415 619 374 q 405 456 515 456 l 251 456 l 251 129 q 374 124 314 124 z "},"C":{"ha":711,"x_min":51,"x_max":692,"o":"m 492 -13 q 164 110 276 -13 q 51 512 51 234 q 168 913 51 785 q 505 1041 284 1041 q 692 1017 601 1041 l 692 871 q 516 895 604 895 q 356 859 419 895 q 262 739 294 823 q 230 515 230 656 q 261 286 230 369 q 355 167 293 202 q 513 133 417 133 q 692 167 592 133 l 692 21 q 598 -4 651 6 q 492 -13 545 -13 z "},"Ć":{"ha":711,"x_min":51,"x_max":692,"o":"m 492 -13 q 164 110 276 -13 q 51 512 51 234 q 168 913 51 785 q 505 1041 284 1041 q 692 1017 601 1041 l 692 871 q 516 895 604 895 q 356 859 419 895 q 262 739 294 823 q 230 515 230 656 q 261 286 230 369 q 355 167 293 202 q 513 133 417 133 q 692 167 592 133 l 692 21 q 598 -4 651 6 q 492 -13 545 -13 m 373 1111 l 474 1317 l 649 1317 l 521 1111 l 373 1111 z "},"Č":{"ha":711,"x_min":51,"x_max":692,"o":"m 492 -13 q 164 110 276 -13 q 51 512 51 234 q 168 913 51 785 q 505 1041 284 1041 q 692 1017 601 1041 l 692 871 q 516 895 604 895 q 356 859 419 895 q 262 739 294 823 q 230 515 230 656 q 261 286 230 369 q 355 167 293 202 q 513 133 417 133 q 692 167 592 133 l 692 21 q 598 -4 651 6 q 492 -13 545 -13 m 535 1317 l 655 1317 l 520 1111 l 374 1111 l 239 1317 l 358 1317 l 447 1175 l 535 1317 z "},"Ç":{"ha":711,"x_min":51,"x_max":692,"o":"m 516 895 q 356 859 419 895 q 262 739 294 823 q 230 515 230 656 q 261 286 230 369 q 355 167 293 202 q 513 133 417 133 q 692 167 592 133 l 692 21 q 598 -4 651 6 q 492 -13 545 -13 l 483 -13 l 483 -65 q 570 -102 540 -72 q 601 -180 601 -131 q 559 -269 601 -238 q 433 -301 517 -301 q 308 -278 363 -301 l 308 -204 q 425 -227 365 -227 q 485 -215 465 -227 q 506 -174 506 -202 q 423 -119 506 -119 l 395 -119 l 395 -6 q 139 142 227 18 q 51 512 51 267 q 168 913 51 785 q 505 1041 284 1041 q 692 1017 601 1041 l 692 871 q 516 895 604 895 z "},"Ḉ":{"ha":711,"x_min":51,"x_max":692,"o":"m 649 1317 l 521 1111 l 373 1111 l 474 1317 l 649 1317 m 516 895 q 356 859 419 895 q 262 739 294 823 q 230 515 230 656 q 261 286 230 369 q 355 167 293 202 q 513 133 417 133 q 692 167 592 133 l 692 21 q 598 -4 651 6 q 492 -13 545 -13 l 483 -13 l 483 -65 q 570 -102 540 -72 q 601 -180 601 -131 q 559 -269 601 -238 q 433 -301 517 -301 q 308 -278 363 -301 l 308 -204 q 425 -227 365 -227 q 485 -215 465 -227 q 506 -174 506 -202 q 423 -119 506 -119 l 395 -119 l 395 -6 q 139 142 227 18 q 51 512 51 267 q 168 913 51 785 q 505 1041 284 1041 q 692 1017 601 1041 l 692 871 q 516 895 604 895 z "},"Ĉ":{"ha":711,"x_min":51,"x_max":692,"o":"m 492 -13 q 164 110 276 -13 q 51 512 51 234 q 168 913 51 785 q 505 1041 284 1041 q 692 1017 601 1041 l 692 871 q 516 895 604 895 q 356 859 419 895 q 262 739 294 823 q 230 515 230 656 q 261 286 230 369 q 355 167 293 202 q 513 133 417 133 q 692 167 592 133 l 692 21 q 598 -4 651 6 q 492 -13 545 -13 m 655 1111 l 535 1111 l 447 1252 l 358 1111 l 239 1111 l 374 1317 l 520 1317 l 655 1111 z "},"Ċ":{"ha":711,"x_min":51,"x_max":692,"o":"m 492 -13 q 164 110 276 -13 q 51 512 51 234 q 168 913 51 785 q 505 1041 284 1041 q 692 1017 601 1041 l 692 871 q 516 895 604 895 q 356 859 419 895 q 262 739 294 823 q 230 515 230 656 q 261 286 230 369 q 355 167 293 202 q 513 133 417 133 q 692 167 592 133 l 692 21 q 598 -4 651 6 q 492 -13 545 -13 m 447 1128 q 367 1150 396 1128 q 338 1216 338 1173 q 367 1282 338 1259 q 447 1304 396 1304 q 527 1282 498 1304 q 556 1216 556 1259 q 527 1150 556 1173 q 447 1128 498 1128 z "},"D":{"ha":869,"x_min":85,"x_max":818,"o":"m 310 -10 q 85 2 203 -10 l 85 1013 q 339 1040 219 1040 q 699 911 581 1040 q 818 514 818 783 q 762 215 818 331 q 593 44 706 99 q 310 -10 481 -10 m 351 134 q 513 171 449 134 q 610 291 577 208 q 642 514 642 374 q 610 736 642 652 q 515 858 578 820 q 356 896 452 896 q 256 887 306 896 l 256 138 q 351 134 303 134 z "},"Ǳ":{"ha":1563,"x_min":85,"x_max":1533,"o":"m 310 -10 q 85 2 203 -10 l 85 1013 q 339 1040 219 1040 q 699 911 581 1040 q 818 514 818 783 q 762 215 818 331 q 593 44 706 99 q 310 -10 481 -10 m 351 134 q 513 171 449 134 q 610 291 577 208 q 642 514 642 374 q 610 736 642 652 q 515 858 578 820 q 356 896 452 896 q 256 887 306 896 l 256 138 q 351 134 303 134 m 1092 151 l 1533 151 l 1533 0 l 872 0 l 872 96 l 1306 876 l 878 876 l 878 1028 l 1526 1028 l 1526 932 l 1092 151 z "},"Ǆ":{"ha":1563,"x_min":85,"x_max":1533,"o":"m 310 -10 q 85 2 203 -10 l 85 1013 q 339 1040 219 1040 q 699 911 581 1040 q 818 514 818 783 q 762 215 818 331 q 593 44 706 99 q 310 -10 481 -10 m 351 134 q 513 171 449 134 q 610 291 577 208 q 642 514 642 374 q 610 736 642 652 q 515 858 578 820 q 356 896 452 896 q 256 887 306 896 l 256 138 q 351 134 303 134 m 1092 151 l 1533 151 l 1533 0 l 872 0 l 872 96 l 1306 876 l 878 876 l 878 1028 l 1526 1028 l 1526 932 l 1092 151 m 1292 1317 l 1411 1317 l 1276 1111 l 1130 1111 l 995 1317 l 1115 1317 l 1203 1175 l 1292 1317 z "},"Ð":{"ha":869,"x_min":-1,"x_max":818,"o":"m 339 1040 q 699 911 581 1040 q 818 514 818 783 q 762 215 818 331 q 593 44 706 99 q 310 -10 481 -10 q 85 2 203 -10 l 85 470 l -1 470 l -1 588 l 85 588 l 85 1013 q 339 1040 219 1040 m 351 134 q 513 171 449 134 q 610 291 577 208 q 642 514 642 374 q 610 736 642 652 q 515 858 578 820 q 356 896 452 896 q 256 887 306 896 l 256 588 l 424 588 l 424 470 l 256 470 l 256 138 q 351 134 303 134 z "},"Ď":{"ha":869,"x_min":85,"x_max":818,"o":"m 310 -10 q 85 2 203 -10 l 85 1013 q 339 1040 219 1040 q 699 911 581 1040 q 818 514 818 783 q 762 215 818 331 q 593 44 706 99 q 310 -10 481 -10 m 351 134 q 513 171 449 134 q 610 291 577 208 q 642 514 642 374 q 610 736 642 652 q 515 858 578 820 q 356 896 452 896 q 256 887 306 896 l 256 138 q 351 134 303 134 m 486 1317 l 606 1317 l 471 1111 l 324 1111 l 190 1317 l 309 1317 l 398 1175 l 486 1317 z "},"Đ":{"ha":869,"x_min":-1,"x_max":818,"o":"m 339 1040 q 699 911 581 1040 q 818 514 818 783 q 762 215 818 331 q 593 44 706 99 q 310 -10 481 -10 q 85 2 203 -10 l 85 470 l -1 470 l -1 588 l 85 588 l 85 1013 q 339 1040 219 1040 m 351 134 q 513 171 449 134 q 610 291 577 208 q 642 514 642 374 q 610 736 642 652 q 515 858 578 820 q 356 896 452 896 q 256 887 306 896 l 256 588 l 424 588 l 424 470 l 256 470 l 256 138 q 351 134 303 134 z "},"Ḍ":{"ha":869,"x_min":85,"x_max":818,"o":"m 310 -10 q 85 2 203 -10 l 85 1013 q 339 1040 219 1040 q 699 911 581 1040 q 818 514 818 783 q 762 215 818 331 q 593 44 706 99 q 310 -10 481 -10 m 351 134 q 513 171 449 134 q 610 291 577 208 q 642 514 642 374 q 610 736 642 652 q 515 858 578 820 q 356 896 452 896 q 256 887 306 896 l 256 138 q 351 134 303 134 m 405 -274 q 325 -251 353 -274 q 296 -186 296 -229 q 325 -120 296 -143 q 405 -97 354 -97 q 485 -120 456 -97 q 515 -186 515 -143 q 485 -251 515 -229 q 405 -274 456 -274 z "},"Ḏ":{"ha":869,"x_min":85,"x_max":818,"o":"m 310 -10 q 85 2 203 -10 l 85 1013 q 339 1040 219 1040 q 699 911 581 1040 q 818 514 818 783 q 762 215 818 331 q 593 44 706 99 q 310 -10 481 -10 m 351 134 q 513 171 449 134 q 610 291 577 208 q 642 514 642 374 q 610 736 642 652 q 515 858 578 820 q 356 896 452 896 q 256 887 306 896 l 256 138 q 351 134 303 134 m 187 -237 l 187 -126 l 624 -126 l 624 -237 l 187 -237 z "},"ǲ":{"ha":1435,"x_min":85,"x_max":1410,"o":"m 310 -10 q 85 2 203 -10 l 85 1013 q 339 1040 219 1040 q 699 911 581 1040 q 818 514 818 783 q 762 215 818 331 q 593 44 706 99 q 310 -10 481 -10 m 351 134 q 513 171 449 134 q 610 291 577 208 q 642 514 642 374 q 610 736 642 652 q 515 858 578 820 q 356 896 452 896 q 256 887 306 896 l 256 138 q 351 134 303 134 m 1091 134 l 1410 134 l 1410 0 l 902 0 l 902 103 l 1215 624 l 909 624 l 909 758 l 1403 758 l 1403 654 l 1091 134 z "},"ǅ":{"ha":1435,"x_min":85,"x_max":1410,"o":"m 310 -10 q 85 2 203 -10 l 85 1013 q 339 1040 219 1040 q 699 911 581 1040 q 818 514 818 783 q 762 215 818 331 q 593 44 706 99 q 310 -10 481 -10 m 351 134 q 513 171 449 134 q 610 291 577 208 q 642 514 642 374 q 610 736 642 652 q 515 858 578 820 q 356 896 452 896 q 256 887 306 896 l 256 138 q 351 134 303 134 m 1091 134 l 1410 134 l 1410 0 l 902 0 l 902 103 l 1215 624 l 909 624 l 909 758 l 1403 758 l 1403 654 l 1091 134 m 1245 1094 l 1365 1094 l 1230 889 l 1083 889 l 949 1094 l 1068 1094 l 1157 953 l 1245 1094 z "},"E":{"ha":726,"x_min":85,"x_max":693,"o":"m 253 148 l 693 148 l 693 0 l 85 0 l 85 1028 l 686 1028 l 686 880 l 253 880 l 253 600 l 619 600 l 619 452 l 253 452 l 253 148 z "},"É":{"ha":726,"x_min":85,"x_max":693,"o":"m 253 148 l 693 148 l 693 0 l 85 0 l 85 1028 l 686 1028 l 686 880 l 253 880 l 253 600 l 619 600 l 619 452 l 253 452 l 253 148 m 328 1111 l 429 1317 l 604 1317 l 476 1111 l 328 1111 z "},"Ĕ":{"ha":726,"x_min":85,"x_max":693,"o":"m 253 148 l 693 148 l 693 0 l 85 0 l 85 1028 l 686 1028 l 686 880 l 253 880 l 253 600 l 619 600 l 619 452 l 253 452 l 253 148 m 402 1115 q 250 1164 306 1115 q 187 1308 194 1214 l 292 1308 q 325 1228 299 1252 q 402 1203 351 1203 q 480 1228 453 1203 q 511 1308 506 1252 l 617 1308 q 554 1164 609 1213 q 402 1115 499 1115 z "},"Ě":{"ha":726,"x_min":85,"x_max":693,"o":"m 253 148 l 693 148 l 693 0 l 85 0 l 85 1028 l 686 1028 l 686 880 l 253 880 l 253 600 l 619 600 l 619 452 l 253 452 l 253 148 m 490 1317 l 610 1317 l 475 1111 l 328 1111 l 194 1317 l 313 1317 l 402 1175 l 490 1317 z "},"Ḝ":{"ha":726,"x_min":85,"x_max":693,"o":"m 402 1115 q 250 1164 306 1115 q 187 1308 194 1214 l 292 1308 q 325 1228 299 1252 q 402 1203 351 1203 q 480 1228 453 1203 q 511 1308 506 1252 l 617 1308 q 554 1164 609 1213 q 402 1115 499 1115 m 435 0 l 435 -65 q 523 -102 492 -72 q 553 -180 553 -131 q 511 -269 553 -238 q 385 -301 469 -301 q 260 -278 315 -301 l 260 -204 q 377 -227 317 -227 q 438 -215 417 -227 q 458 -174 458 -202 q 375 -119 458 -119 l 347 -119 l 347 0 l 85 0 l 85 1028 l 686 1028 l 686 880 l 253 880 l 253 600 l 619 600 l 619 452 l 253 452 l 253 148 l 693 148 l 693 0 l 435 0 z "},"Ê":{"ha":726,"x_min":85,"x_max":693,"o":"m 253 148 l 693 148 l 693 0 l 85 0 l 85 1028 l 686 1028 l 686 880 l 253 880 l 253 600 l 619 600 l 619 452 l 253 452 l 253 148 m 610 1111 l 490 1111 l 402 1252 l 313 1111 l 194 1111 l 328 1317 l 475 1317 l 610 1111 z "},"Ế":{"ha":726,"x_min":85,"x_max":735,"o":"m 253 148 l 693 148 l 693 0 l 85 0 l 85 1028 l 686 1028 l 686 880 l 253 880 l 253 600 l 619 600 l 619 452 l 253 452 l 253 148 m 624 1433 l 735 1433 l 636 1258 l 551 1258 l 624 1433 m 328 1300 l 475 1300 l 610 1111 l 490 1111 l 402 1242 l 313 1111 l 194 1111 l 328 1300 z "},"Ệ":{"ha":726,"x_min":85,"x_max":693,"o":"m 253 148 l 693 148 l 693 0 l 85 0 l 85 1028 l 686 1028 l 686 880 l 253 880 l 253 600 l 619 600 l 619 452 l 253 452 l 253 148 m 401 -274 q 321 -251 350 -274 q 292 -186 292 -229 q 322 -120 292 -143 q 401 -97 351 -97 q 482 -120 453 -97 q 511 -186 511 -143 q 482 -251 511 -229 q 401 -274 453 -274 m 610 1111 l 490 1111 l 402 1252 l 313 1111 l 194 1111 l 328 1317 l 475 1317 l 610 1111 z "},"Ề":{"ha":726,"x_min":85,"x_max":693,"o":"m 253 148 l 693 148 l 693 0 l 85 0 l 85 1028 l 686 1028 l 686 880 l 253 880 l 253 600 l 619 600 l 619 452 l 253 452 l 253 148 m 658 1258 l 572 1258 l 473 1433 l 585 1433 l 658 1258 m 328 1300 l 475 1300 l 610 1111 l 490 1111 l 402 1242 l 313 1111 l 194 1111 l 328 1300 z "},"Ể":{"ha":726,"x_min":85,"x_max":751,"o":"m 253 148 l 693 148 l 693 0 l 85 0 l 85 1028 l 686 1028 l 686 880 l 253 880 l 253 600 l 619 600 l 619 452 l 253 452 l 253 148 m 596 1456 q 751 1376 751 1456 q 736 1338 751 1351 q 692 1309 722 1324 q 655 1286 668 1297 q 640 1258 642 1276 l 550 1258 q 569 1303 552 1288 q 617 1333 587 1319 q 644 1349 635 1342 q 653 1365 653 1356 q 637 1384 653 1378 q 583 1391 621 1391 q 460 1373 515 1391 l 460 1438 q 524 1451 485 1446 q 596 1456 563 1456 m 328 1300 l 475 1300 l 610 1111 l 490 1111 l 402 1242 l 313 1111 l 194 1111 l 328 1300 z "},"Ễ":{"ha":726,"x_min":85,"x_max":693,"o":"m 253 148 l 693 148 l 693 0 l 85 0 l 85 1028 l 686 1028 l 686 880 l 253 880 l 253 600 l 619 600 l 619 452 l 253 452 l 253 148 m 492 1411 q 552 1422 525 1411 q 610 1458 578 1433 l 610 1373 q 556 1340 583 1349 q 490 1330 528 1330 q 444 1336 467 1330 q 390 1355 422 1342 q 345 1371 362 1366 q 312 1376 329 1376 q 251 1365 278 1376 q 194 1328 225 1354 l 194 1414 q 248 1448 220 1438 q 313 1458 276 1458 q 359 1451 337 1458 q 413 1433 381 1445 q 457 1416 440 1422 q 492 1411 474 1411 m 328 1300 l 475 1300 l 610 1111 l 490 1111 l 402 1242 l 313 1111 l 194 1111 l 328 1300 z "},"Ȅ":{"ha":726,"x_min":85,"x_max":693,"o":"m 253 148 l 693 148 l 693 0 l 85 0 l 85 1028 l 686 1028 l 686 880 l 253 880 l 253 600 l 619 600 l 619 452 l 253 452 l 253 148 m 215 1111 l 133 1317 l 272 1317 l 344 1111 l 215 1111 m 459 1111 l 377 1317 l 516 1317 l 588 1111 l 459 1111 z "},"Ë":{"ha":726,"x_min":85,"x_max":693,"o":"m 253 148 l 693 148 l 693 0 l 85 0 l 85 1028 l 686 1028 l 686 880 l 253 880 l 253 600 l 619 600 l 619 452 l 253 452 l 253 148 m 250 1128 q 178 1151 204 1128 q 151 1216 151 1174 q 178 1281 151 1258 q 250 1304 204 1304 q 323 1281 297 1304 q 349 1216 349 1258 q 323 1151 349 1174 q 250 1128 297 1128 m 553 1128 q 481 1151 507 1128 q 455 1216 455 1174 q 481 1281 455 1258 q 553 1304 507 1304 q 626 1281 599 1304 q 652 1216 652 1258 q 626 1151 652 1174 q 553 1128 599 1128 z "},"Ė":{"ha":726,"x_min":85,"x_max":693,"o":"m 253 148 l 693 148 l 693 0 l 85 0 l 85 1028 l 686 1028 l 686 880 l 253 880 l 253 600 l 619 600 l 619 452 l 253 452 l 253 148 m 401 1128 q 322 1150 351 1128 q 292 1216 292 1173 q 322 1282 292 1259 q 401 1304 351 1304 q 482 1282 453 1304 q 511 1216 511 1259 q 482 1150 511 1173 q 401 1128 453 1128 z "},"Ẹ":{"ha":726,"x_min":85,"x_max":693,"o":"m 253 148 l 693 148 l 693 0 l 85 0 l 85 1028 l 686 1028 l 686 880 l 253 880 l 253 600 l 619 600 l 619 452 l 253 452 l 253 148 m 401 -274 q 321 -251 350 -274 q 292 -186 292 -229 q 322 -120 292 -143 q 401 -97 351 -97 q 482 -120 453 -97 q 511 -186 511 -143 q 482 -251 511 -229 q 401 -274 453 -274 z "},"È":{"ha":726,"x_min":85,"x_max":693,"o":"m 253 148 l 693 148 l 693 0 l 85 0 l 85 1028 l 686 1028 l 686 880 l 253 880 l 253 600 l 619 600 l 619 452 l 253 452 l 253 148 m 328 1111 l 199 1317 l 374 1317 l 476 1111 l 328 1111 z "},"Ẻ":{"ha":726,"x_min":85,"x_max":693,"o":"m 253 148 l 693 148 l 693 0 l 85 0 l 85 1028 l 686 1028 l 686 880 l 253 880 l 253 600 l 619 600 l 619 452 l 253 452 l 253 148 m 356 1111 q 377 1160 358 1143 q 425 1192 395 1178 q 452 1209 444 1203 q 460 1225 460 1215 q 444 1247 460 1240 q 390 1255 428 1255 q 327 1250 360 1255 q 267 1235 294 1244 l 267 1308 q 330 1322 292 1316 q 403 1327 369 1327 q 558 1239 558 1327 q 550 1207 558 1220 q 530 1186 542 1194 q 499 1166 519 1178 q 462 1141 475 1153 q 447 1111 449 1129 l 356 1111 z "},"Ȇ":{"ha":726,"x_min":85,"x_max":693,"o":"m 253 148 l 693 148 l 693 0 l 85 0 l 85 1028 l 686 1028 l 686 880 l 253 880 l 253 600 l 619 600 l 619 452 l 253 452 l 253 148 m 187 1119 q 250 1263 194 1214 q 401 1313 305 1313 q 553 1263 497 1313 q 617 1119 609 1214 l 511 1119 q 478 1199 504 1175 q 401 1224 452 1224 q 324 1199 350 1224 q 292 1119 298 1175 l 187 1119 z "},"Ē":{"ha":726,"x_min":85,"x_max":693,"o":"m 253 148 l 693 148 l 693 0 l 85 0 l 85 1028 l 686 1028 l 686 880 l 253 880 l 253 600 l 619 600 l 619 452 l 253 452 l 253 148 m 183 1158 l 183 1270 l 620 1270 l 620 1158 l 183 1158 z "},"Ḗ":{"ha":726,"x_min":85,"x_max":693,"o":"m 253 148 l 693 148 l 693 0 l 85 0 l 85 1028 l 686 1028 l 686 880 l 253 880 l 253 600 l 619 600 l 619 452 l 253 452 l 253 148 m 321 1347 l 422 1508 l 611 1508 l 483 1347 l 321 1347 m 183 1158 l 183 1270 l 620 1270 l 620 1158 l 183 1158 z "},"Ḕ":{"ha":726,"x_min":85,"x_max":693,"o":"m 253 148 l 693 148 l 693 0 l 85 0 l 85 1028 l 686 1028 l 686 880 l 253 880 l 253 600 l 619 600 l 619 452 l 253 452 l 253 148 m 321 1347 l 192 1508 l 381 1508 l 483 1347 l 321 1347 m 183 1158 l 183 1270 l 620 1270 l 620 1158 l 183 1158 z "},"Ę":{"ha":726,"x_min":85,"x_max":693,"o":"m 638 0 q 521 -74 553 -37 q 489 -153 489 -110 q 582 -226 489 -226 q 678 -203 624 -226 l 678 -277 q 563 -301 623 -301 q 433 -265 477 -301 q 390 -163 390 -229 q 415 -75 390 -115 q 496 0 440 -35 l 85 0 l 85 1028 l 686 1028 l 686 880 l 253 880 l 253 600 l 619 600 l 619 452 l 253 452 l 253 148 l 693 148 l 693 0 l 638 0 z "},"Ẽ":{"ha":726,"x_min":85,"x_max":693,"o":"m 253 148 l 693 148 l 693 0 l 85 0 l 85 1028 l 686 1028 l 686 880 l 253 880 l 253 600 l 619 600 l 619 452 l 253 452 l 253 148 m 506 1136 q 452 1143 477 1136 q 391 1165 428 1151 q 339 1185 360 1178 q 295 1191 317 1191 q 232 1178 259 1191 q 176 1140 204 1166 l 176 1249 q 228 1286 199 1274 q 297 1298 258 1298 q 352 1290 326 1298 q 413 1268 378 1283 q 465 1249 444 1255 q 508 1242 486 1242 q 572 1255 544 1242 q 627 1294 599 1267 l 627 1184 q 575 1148 604 1160 q 506 1136 546 1136 z "},"F":{"ha":693,"x_min":85,"x_max":683,"o":"m 683 878 l 256 878 l 256 583 l 618 583 l 618 433 l 256 433 l 256 0 l 85 0 l 85 1028 l 683 1028 l 683 878 z "},"G":{"ha":834,"x_min":51,"x_max":762,"o":"m 762 500 l 762 8 q 553 -10 651 -10 q 275 43 385 -10 q 108 213 164 97 q 51 513 51 328 q 175 914 51 787 q 538 1041 299 1041 q 742 1015 647 1041 l 742 869 q 553 895 642 895 q 371 859 442 895 q 265 739 301 823 q 230 511 230 655 q 264 290 230 372 q 365 171 299 207 q 536 135 432 135 q 603 138 574 135 l 603 500 l 762 500 z "},"Ǵ":{"ha":834,"x_min":51,"x_max":762,"o":"m 762 500 l 762 8 q 553 -10 651 -10 q 275 43 385 -10 q 108 213 164 97 q 51 513 51 328 q 175 914 51 787 q 538 1041 299 1041 q 742 1015 647 1041 l 742 869 q 553 895 642 895 q 371 859 442 895 q 265 739 301 823 q 230 511 230 655 q 264 290 230 372 q 365 171 299 207 q 536 135 432 135 q 603 138 574 135 l 603 500 l 762 500 m 406 1111 l 507 1317 l 682 1317 l 553 1111 l 406 1111 z "},"Ğ":{"ha":834,"x_min":51,"x_max":762,"o":"m 762 500 l 762 8 q 553 -10 651 -10 q 275 43 385 -10 q 108 213 164 97 q 51 513 51 328 q 175 914 51 787 q 538 1041 299 1041 q 742 1015 647 1041 l 742 869 q 553 895 642 895 q 371 859 442 895 q 265 739 301 823 q 230 511 230 655 q 264 290 230 372 q 365 171 299 207 q 536 135 432 135 q 603 138 574 135 l 603 500 l 762 500 m 480 1115 q 328 1164 384 1115 q 265 1308 272 1214 l 370 1308 q 403 1228 377 1252 q 480 1203 429 1203 q 557 1228 531 1203 q 589 1308 583 1252 l 694 1308 q 632 1164 687 1213 q 480 1115 576 1115 z "},"Ǧ":{"ha":834,"x_min":51,"x_max":762,"o":"m 762 500 l 762 8 q 553 -10 651 -10 q 275 43 385 -10 q 108 213 164 97 q 51 513 51 328 q 175 914 51 787 q 538 1041 299 1041 q 742 1015 647 1041 l 742 869 q 553 895 642 895 q 371 859 442 895 q 265 739 301 823 q 230 511 230 655 q 264 290 230 372 q 365 171 299 207 q 536 135 432 135 q 603 138 574 135 l 603 500 l 762 500 m 568 1317 l 688 1317 l 553 1111 l 406 1111 l 272 1317 l 391 1317 l 480 1175 l 568 1317 z "},"Ĝ":{"ha":834,"x_min":51,"x_max":762,"o":"m 762 500 l 762 8 q 553 -10 651 -10 q 275 43 385 -10 q 108 213 164 97 q 51 513 51 328 q 175 914 51 787 q 538 1041 299 1041 q 742 1015 647 1041 l 742 869 q 553 895 642 895 q 371 859 442 895 q 265 739 301 823 q 230 511 230 655 q 264 290 230 372 q 365 171 299 207 q 536 135 432 135 q 603 138 574 135 l 603 500 l 762 500 m 688 1111 l 568 1111 l 480 1252 l 391 1111 l 272 1111 l 406 1317 l 553 1317 l 688 1111 z "},"Ģ":{"ha":834,"x_min":51,"x_max":762,"o":"m 762 500 l 762 8 q 553 -10 651 -10 q 275 43 385 -10 q 108 213 164 97 q 51 513 51 328 q 175 914 51 787 q 538 1041 299 1041 q 742 1015 647 1041 l 742 869 q 553 895 642 895 q 371 859 442 895 q 265 739 301 823 q 230 511 230 655 q 264 290 230 372 q 365 171 299 207 q 536 135 432 135 q 603 138 574 135 l 603 500 l 762 500 m 478 -97 q 578 -190 578 -97 q 565 -265 578 -224 q 531 -337 551 -305 l 424 -337 q 459 -237 452 -278 q 401 -215 420 -233 q 381 -167 381 -197 q 406 -116 381 -134 q 478 -97 430 -97 z "},"Ġ":{"ha":834,"x_min":51,"x_max":762,"o":"m 762 500 l 762 8 q 553 -10 651 -10 q 275 43 385 -10 q 108 213 164 97 q 51 513 51 328 q 175 914 51 787 q 538 1041 299 1041 q 742 1015 647 1041 l 742 869 q 553 895 642 895 q 371 859 442 895 q 265 739 301 823 q 230 511 230 655 q 264 290 230 372 q 365 171 299 207 q 536 135 432 135 q 603 138 574 135 l 603 500 l 762 500 m 479 1128 q 399 1150 428 1128 q 370 1216 370 1173 q 399 1282 370 1259 q 479 1304 428 1304 q 560 1282 531 1304 q 589 1216 589 1259 q 560 1150 589 1173 q 479 1128 531 1128 z "},"Ḡ":{"ha":834,"x_min":51,"x_max":762,"o":"m 762 500 l 762 8 q 553 -10 651 -10 q 275 43 385 -10 q 108 213 164 97 q 51 513 51 328 q 175 914 51 787 q 538 1041 299 1041 q 742 1015 647 1041 l 742 869 q 553 895 642 895 q 371 859 442 895 q 265 739 301 823 q 230 511 230 655 q 264 290 230 372 q 365 171 299 207 q 536 135 432 135 q 603 138 574 135 l 603 500 l 762 500 m 261 1158 l 261 1270 l 698 1270 l 698 1158 l 261 1158 z "},"H":{"ha":903,"x_min":85,"x_max":817,"o":"m 85 0 l 85 1028 l 256 1028 l 256 605 l 647 605 l 647 1028 l 817 1028 l 817 0 l 647 0 l 647 448 l 256 448 l 256 0 l 85 0 z "},"Ħ":{"ha":903,"x_min":-1,"x_max":904,"o":"m 904 869 l 904 760 l 817 760 l 817 0 l 647 0 l 647 448 l 256 448 l 256 0 l 85 0 l 85 760 l -1 760 l -1 869 l 85 869 l 85 1028 l 256 1028 l 256 869 l 647 869 l 647 1028 l 817 1028 l 817 869 l 904 869 m 647 605 l 647 760 l 256 760 l 256 605 l 647 605 z "},"Ḫ":{"ha":903,"x_min":85,"x_max":817,"o":"m 85 0 l 85 1028 l 256 1028 l 256 605 l 647 605 l 647 1028 l 817 1028 l 817 0 l 647 0 l 647 448 l 256 448 l 256 0 l 85 0 m 452 -297 q 299 -246 355 -297 q 237 -101 242 -196 l 342 -101 q 374 -182 347 -156 q 452 -208 401 -208 q 531 -182 503 -208 q 561 -101 558 -156 l 667 -101 q 605 -246 660 -196 q 452 -297 549 -297 z "},"Ĥ":{"ha":903,"x_min":85,"x_max":817,"o":"m 85 0 l 85 1028 l 256 1028 l 256 605 l 647 605 l 647 1028 l 817 1028 l 817 0 l 647 0 l 647 448 l 256 448 l 256 0 l 85 0 m 660 1111 l 540 1111 l 452 1252 l 363 1111 l 244 1111 l 378 1317 l 525 1317 l 660 1111 z "},"Ḥ":{"ha":903,"x_min":85,"x_max":817,"o":"m 85 0 l 85 1028 l 256 1028 l 256 605 l 647 605 l 647 1028 l 817 1028 l 817 0 l 647 0 l 647 448 l 256 448 l 256 0 l 85 0 m 451 -274 q 371 -251 400 -274 q 342 -186 342 -229 q 372 -120 342 -143 q 451 -97 401 -97 q 532 -120 503 -97 q 561 -186 561 -143 q 532 -251 561 -229 q 451 -274 503 -274 z "},"I":{"ha":340,"x_min":85,"x_max":256,"o":"m 85 0 l 85 1028 l 256 1028 l 256 0 l 85 0 z "},"Í":{"ha":340,"x_min":85,"x_max":373,"o":"m 85 0 l 85 1028 l 256 1028 l 256 0 l 85 0 m 97 1111 l 198 1317 l 373 1317 l 244 1111 l 97 1111 z "},"Ĭ":{"ha":340,"x_min":-44,"x_max":385,"o":"m 85 0 l 85 1028 l 256 1028 l 256 0 l 85 0 m 171 1115 q 19 1164 75 1115 q -44 1308 -37 1214 l 61 1308 q 94 1228 68 1252 q 171 1203 120 1203 q 248 1228 222 1203 q 280 1308 274 1252 l 385 1308 q 323 1164 378 1213 q 171 1115 267 1115 z "},"Î":{"ha":340,"x_min":-37,"x_max":378,"o":"m 85 0 l 85 1028 l 256 1028 l 256 0 l 85 0 m 378 1111 l 259 1111 l 171 1252 l 82 1111 l -37 1111 l 97 1317 l 244 1317 l 378 1111 z "},"Ȉ":{"ha":340,"x_min":-98,"x_max":357,"o":"m 85 0 l 85 1028 l 256 1028 l 256 0 l 85 0 m -16 1111 l -98 1317 l 40 1317 l 113 1111 l -16 1111 m 228 1111 l 146 1317 l 285 1317 l 357 1111 l 228 1111 z "},"Ï":{"ha":340,"x_min":-80,"x_max":421,"o":"m 85 0 l 85 1028 l 256 1028 l 256 0 l 85 0 m 19 1128 q -53 1151 -27 1128 q -80 1216 -80 1174 q -53 1281 -80 1258 q 19 1304 -27 1304 q 91 1281 65 1304 q 117 1216 117 1258 q 91 1151 117 1174 q 19 1128 65 1128 m 322 1128 q 250 1151 276 1128 q 224 1216 224 1174 q 250 1281 224 1258 q 322 1304 276 1304 q 394 1281 368 1304 q 421 1216 421 1258 q 394 1151 421 1174 q 322 1128 368 1128 z "},"Ḯ":{"ha":340,"x_min":-80,"x_max":421,"o":"m 85 0 l 85 1028 l 256 1028 l 256 0 l 85 0 m 90 1347 l 191 1508 l 380 1508 l 251 1347 l 90 1347 m 19 1128 q -53 1151 -27 1128 q -80 1216 -80 1174 q -53 1281 -80 1258 q 19 1304 -27 1304 q 91 1281 65 1304 q 117 1216 117 1258 q 91 1151 117 1174 q 19 1128 65 1128 m 322 1128 q 250 1151 276 1128 q 224 1216 224 1174 q 250 1281 224 1258 q 322 1304 276 1304 q 394 1281 368 1304 q 421 1216 421 1258 q 394 1151 421 1174 q 322 1128 368 1128 z "},"İ":{"ha":340,"x_min":61,"x_max":280,"o":"m 85 0 l 85 1028 l 256 1028 l 256 0 l 85 0 m 170 1128 q 90 1150 119 1128 q 61 1216 61 1173 q 90 1282 61 1259 q 170 1304 119 1304 q 251 1282 222 1304 q 280 1216 280 1259 q 251 1150 280 1173 q 170 1128 222 1128 z "},"Ị":{"ha":340,"x_min":61,"x_max":280,"o":"m 85 0 l 85 1028 l 256 1028 l 256 0 l 85 0 m 170 -274 q 90 -251 119 -274 q 61 -186 61 -229 q 90 -120 61 -143 q 170 -97 119 -97 q 251 -120 222 -97 q 280 -186 280 -143 q 251 -251 280 -229 q 170 -274 222 -274 z "},"Ì":{"ha":340,"x_min":-32,"x_max":256,"o":"m 85 0 l 85 1028 l 256 1028 l 256 0 l 85 0 m 97 1111 l -32 1317 l 143 1317 l 244 1111 l 97 1111 z "},"Ỉ":{"ha":340,"x_min":35,"x_max":326,"o":"m 85 0 l 85 1028 l 256 1028 l 256 0 l 85 0 m 125 1111 q 145 1160 127 1143 q 194 1192 164 1178 q 221 1209 213 1203 q 229 1225 229 1215 q 213 1247 229 1240 q 158 1255 197 1255 q 96 1250 128 1255 q 35 1235 63 1244 l 35 1308 q 99 1322 60 1316 q 172 1327 138 1327 q 326 1239 326 1327 q 318 1207 326 1220 q 299 1186 310 1194 q 268 1166 288 1178 q 231 1141 244 1153 q 215 1111 218 1129 l 125 1111 z "},"Ȋ":{"ha":340,"x_min":-44,"x_max":385,"o":"m 85 0 l 85 1028 l 256 1028 l 256 0 l 85 0 m -44 1119 q 18 1263 -37 1214 q 170 1313 74 1313 q 322 1263 266 1313 q 385 1119 378 1214 l 280 1119 q 247 1199 273 1175 q 170 1224 221 1224 q 93 1199 119 1224 q 61 1119 67 1175 l -44 1119 z "},"Ī":{"ha":340,"x_min":-48,"x_max":389,"o":"m 85 0 l 85 1028 l 256 1028 l 256 0 l 85 0 m -48 1158 l -48 1270 l 389 1270 l 389 1158 l -48 1158 z "},"Į":{"ha":340,"x_min":8,"x_max":296,"o":"m 200 -226 q 296 -203 242 -226 l 296 -277 q 181 -301 241 -301 q 51 -265 95 -301 q 8 -163 8 -229 q 33 -75 8 -115 q 114 0 58 -35 l 85 0 l 85 1028 l 256 1028 l 256 0 q 139 -74 172 -37 q 107 -153 107 -110 q 200 -226 107 -226 z "},"Ĩ":{"ha":340,"x_min":-55,"x_max":396,"o":"m 85 0 l 85 1028 l 256 1028 l 256 0 l 85 0 m 275 1136 q 221 1143 246 1136 q 160 1165 197 1151 q 107 1185 128 1178 q 64 1191 86 1191 q 0 1178 28 1191 q -55 1140 -27 1166 l -55 1249 q -3 1286 -32 1274 q 65 1298 26 1298 q 120 1290 94 1298 q 181 1268 147 1283 q 234 1249 213 1255 q 277 1242 255 1242 q 341 1255 313 1242 q 396 1294 368 1267 l 396 1184 q 344 1148 373 1160 q 275 1136 315 1136 z "},"J":{"ha":340,"x_min":-21,"x_max":256,"o":"m -21 -165 q 61 6 38 -76 q 85 206 85 88 l 85 1028 l 256 1028 l 256 203 q 216 -29 253 74 q 92 -240 179 -132 l -21 -165 z "},"Ĵ":{"ha":340,"x_min":-37,"x_max":378,"o":"m -21 -165 q 61 6 38 -76 q 85 206 85 88 l 85 1028 l 256 1028 l 256 203 q 216 -29 253 74 q 92 -240 179 -132 l -21 -165 m 378 1111 l 259 1111 l 171 1252 l 82 1111 l -37 1111 l 97 1317 l 244 1317 l 378 1111 z "},"K":{"ha":797,"x_min":85,"x_max":836,"o":"m 651 0 l 353 448 l 256 448 l 256 0 l 85 0 l 85 1028 l 256 1028 l 256 604 l 355 604 l 630 1028 l 809 1028 l 486 530 l 836 0 l 651 0 z "},"Ķ":{"ha":797,"x_min":85,"x_max":836,"o":"m 651 0 l 353 448 l 256 448 l 256 0 l 85 0 l 85 1028 l 256 1028 l 256 604 l 355 604 l 630 1028 l 809 1028 l 486 530 l 836 0 l 651 0 m 419 -97 q 519 -190 519 -97 q 506 -265 519 -224 q 472 -337 492 -305 l 365 -337 q 400 -237 393 -278 q 342 -215 361 -233 q 322 -167 322 -197 q 347 -116 322 -134 q 419 -97 371 -97 z "},"L":{"ha":674,"x_min":85,"x_max":671,"o":"m 85 0 l 85 1028 l 256 1028 l 256 152 l 671 152 l 671 0 l 85 0 z "},"Ǉ":{"ha":1014,"x_min":85,"x_max":929,"o":"m 85 0 l 85 1028 l 256 1028 l 256 152 l 671 152 l 671 0 l 85 0 m 653 -165 q 735 6 712 -76 q 758 206 758 88 l 758 1028 l 929 1028 l 929 203 q 890 -29 927 74 q 766 -240 853 -132 l 653 -165 z "},"Ĺ":{"ha":674,"x_min":85,"x_max":671,"o":"m 85 0 l 85 1028 l 256 1028 l 256 152 l 671 152 l 671 0 l 85 0 m 99 1111 l 201 1317 l 376 1317 l 247 1111 l 99 1111 z "},"Ľ":{"ha":674,"x_min":85,"x_max":671,"o":"m 85 0 l 85 1028 l 256 1028 l 256 152 l 671 152 l 671 0 l 85 0 m 422 792 q 435 942 431 865 q 439 1122 439 1019 l 558 1122 q 517 792 558 922 l 422 792 z "},"Ļ":{"ha":674,"x_min":85,"x_max":671,"o":"m 85 0 l 85 1028 l 256 1028 l 256 152 l 671 152 l 671 0 l 85 0 m 378 -97 q 477 -190 477 -97 q 464 -265 477 -224 q 430 -337 451 -305 l 324 -337 q 358 -237 351 -278 q 300 -215 319 -233 q 281 -167 281 -197 q 305 -116 281 -134 q 378 -97 329 -97 z "},"Ŀ":{"ha":674,"x_min":85,"x_max":671,"o":"m 85 0 l 85 1028 l 256 1028 l 256 152 l 671 152 l 671 0 l 85 0 m 503 485 q 423 510 450 485 q 395 583 395 536 q 423 656 395 630 q 503 682 450 682 q 584 656 557 682 q 612 583 612 630 q 584 510 612 536 q 503 485 557 485 z "},"Ḷ":{"ha":674,"x_min":85,"x_max":671,"o":"m 85 0 l 85 1028 l 256 1028 l 256 152 l 671 152 l 671 0 l 85 0 m 378 -274 q 298 -251 327 -274 q 269 -186 269 -229 q 299 -120 269 -143 q 378 -97 328 -97 q 459 -120 430 -97 q 488 -186 488 -143 q 459 -251 488 -229 q 378 -274 430 -274 z "},"ǈ":{"ha":992,"x_min":85,"x_max":942,"o":"m 85 0 l 85 1028 l 256 1028 l 256 152 l 671 152 l 671 0 l 85 0 m 642 -251 q 725 -80 701 -162 q 749 121 749 3 l 749 758 l 917 758 l 917 130 q 881 -111 917 -7 q 756 -326 844 -216 l 642 -251 m 833 888 q 752 913 779 888 q 724 986 724 939 q 752 1059 724 1033 q 833 1085 779 1085 q 914 1059 886 1085 q 942 986 942 1033 q 914 913 942 939 q 833 888 887 888 z "},"Ḻ":{"ha":674,"x_min":85,"x_max":671,"o":"m 85 0 l 85 1028 l 256 1028 l 256 152 l 671 152 l 671 0 l 85 0 m 160 -237 l 160 -126 l 597 -126 l 597 -237 l 160 -237 z "},"Ł":{"ha":688,"x_min":-17,"x_max":685,"o":"m 270 152 l 685 152 l 685 0 l 99 0 l 99 440 l 41 401 l -17 505 l 99 581 l 99 1028 l 270 1028 l 270 692 l 432 797 l 490 694 l 270 551 l 270 152 z "},"M":{"ha":1136,"x_min":88,"x_max":1049,"o":"m 841 1028 l 1049 1028 l 1049 0 l 890 0 l 890 780 l 638 147 l 499 147 l 247 768 l 247 0 l 88 0 l 88 1028 l 296 1028 l 571 335 l 841 1028 z "},"Ṃ":{"ha":1136,"x_min":88,"x_max":1049,"o":"m 841 1028 l 1049 1028 l 1049 0 l 890 0 l 890 780 l 638 147 l 499 147 l 247 768 l 247 0 l 88 0 l 88 1028 l 296 1028 l 571 335 l 841 1028 m 578 -274 q 498 -251 526 -274 q 469 -186 469 -229 q 498 -120 469 -143 q 578 -97 527 -97 q 658 -120 629 -97 q 688 -186 688 -143 q 658 -251 688 -229 q 578 -274 629 -274 z "},"N":{"ha":917,"x_min":85,"x_max":832,"o":"m 672 1028 l 832 1028 l 832 0 l 660 0 l 245 742 l 245 0 l 85 0 l 85 1028 l 257 1028 l 672 285 l 672 1028 z "},"Ǌ":{"ha":1257,"x_min":85,"x_max":1172,"o":"m 672 1028 l 832 1028 l 832 0 l 660 0 l 245 742 l 245 0 l 85 0 l 85 1028 l 257 1028 l 672 285 l 672 1028 m 896 -165 q 978 6 955 -76 q 1001 206 1001 88 l 1001 1028 l 1172 1028 l 1172 203 q 1133 -29 1170 74 q 1009 -240 1096 -132 l 896 -165 z "},"Ń":{"ha":917,"x_min":85,"x_max":832,"o":"m 672 1028 l 832 1028 l 832 0 l 660 0 l 245 742 l 245 0 l 85 0 l 85 1028 l 257 1028 l 672 285 l 672 1028 m 385 1111 l 486 1317 l 661 1317 l 533 1111 l 385 1111 z "},"Ň":{"ha":917,"x_min":85,"x_max":832,"o":"m 672 1028 l 832 1028 l 832 0 l 660 0 l 245 742 l 245 0 l 85 0 l 85 1028 l 257 1028 l 672 285 l 672 1028 m 547 1317 l 667 1317 l 532 1111 l 385 1111 l 251 1317 l 370 1317 l 459 1175 l 547 1317 z "},"Ņ":{"ha":917,"x_min":85,"x_max":832,"o":"m 672 1028 l 832 1028 l 832 0 l 660 0 l 245 742 l 245 0 l 85 0 l 85 1028 l 257 1028 l 672 285 l 672 1028 m 458 -97 q 557 -190 557 -97 q 544 -265 557 -224 q 510 -337 531 -305 l 403 -337 q 438 -237 431 -278 q 380 -215 399 -233 q 360 -167 360 -197 q 385 -116 360 -134 q 458 -97 409 -97 z "},"Ṅ":{"ha":917,"x_min":85,"x_max":832,"o":"m 672 1028 l 832 1028 l 832 0 l 660 0 l 245 742 l 245 0 l 85 0 l 85 1028 l 257 1028 l 672 285 l 672 1028 m 458 1128 q 378 1150 408 1128 q 349 1216 349 1173 q 378 1282 349 1259 q 458 1304 408 1304 q 539 1282 510 1304 q 568 1216 568 1259 q 539 1150 568 1173 q 458 1128 510 1128 z "},"Ṇ":{"ha":917,"x_min":85,"x_max":832,"o":"m 672 1028 l 832 1028 l 832 0 l 660 0 l 245 742 l 245 0 l 85 0 l 85 1028 l 257 1028 l 672 285 l 672 1028 m 458 -274 q 378 -251 407 -274 q 349 -186 349 -229 q 378 -120 349 -143 q 458 -97 408 -97 q 539 -120 510 -97 q 568 -186 568 -143 q 539 -251 568 -229 q 458 -274 510 -274 z "},"Ŋ":{"ha":917,"x_min":85,"x_max":832,"o":"m 832 1028 l 832 145 q 816 -32 832 46 q 765 -181 800 -110 q 670 -326 730 -251 l 557 -251 q 627 -130 602 -187 q 663 -6 653 -72 l 245 742 l 245 0 l 85 0 l 85 1028 l 257 1028 l 672 285 l 672 1028 l 832 1028 z "},"ǋ":{"ha":1235,"x_min":85,"x_max":1185,"o":"m 672 1028 l 832 1028 l 832 0 l 660 0 l 245 742 l 245 0 l 85 0 l 85 1028 l 257 1028 l 672 285 l 672 1028 m 885 -251 q 968 -80 944 -162 q 992 121 992 3 l 992 758 l 1160 758 l 1160 130 q 1124 -111 1160 -7 q 999 -326 1087 -216 l 885 -251 m 1076 888 q 995 913 1022 888 q 967 986 967 939 q 995 1059 967 1033 q 1076 1085 1022 1085 q 1157 1059 1129 1085 q 1185 986 1185 1033 q 1157 913 1185 939 q 1076 888 1130 888 z "},"Ṉ":{"ha":917,"x_min":85,"x_max":832,"o":"m 672 1028 l 832 1028 l 832 0 l 660 0 l 245 742 l 245 0 l 85 0 l 85 1028 l 257 1028 l 672 285 l 672 1028 m 240 -237 l 240 -126 l 677 -126 l 677 -237 l 240 -237 z "},"Ñ":{"ha":917,"x_min":85,"x_max":832,"o":"m 672 1028 l 832 1028 l 832 0 l 660 0 l 245 742 l 245 0 l 85 0 l 85 1028 l 257 1028 l 672 285 l 672 1028 m 563 1136 q 509 1143 534 1136 q 448 1165 485 1151 q 395 1185 417 1178 q 352 1191 374 1191 q 289 1178 316 1191 q 233 1140 261 1166 l 233 1249 q 285 1286 256 1274 q 353 1298 315 1298 q 409 1290 383 1298 q 469 1268 435 1283 q 522 1249 501 1255 q 565 1242 543 1242 q 629 1255 601 1242 q 684 1294 656 1267 l 684 1184 q 632 1148 661 1160 q 563 1136 603 1136 z "},"O":{"ha":897,"x_min":51,"x_max":845,"o":"m 448 -13 q 156 114 261 -13 q 51 514 51 241 q 156 914 51 787 q 448 1041 261 1041 q 740 914 635 1041 q 845 514 845 787 q 740 114 845 241 q 448 -13 635 -13 m 448 131 q 568 167 519 131 q 643 286 617 203 q 669 510 669 369 q 643 739 669 653 q 568 861 617 824 q 448 897 519 897 q 328 861 376 897 q 254 741 280 825 q 228 518 228 658 q 254 289 228 374 q 328 167 280 203 q 448 131 376 131 z "},"Ó":{"ha":897,"x_min":51,"x_max":845,"o":"m 448 -13 q 156 114 261 -13 q 51 514 51 241 q 156 914 51 787 q 448 1041 261 1041 q 740 914 635 1041 q 845 514 845 787 q 740 114 845 241 q 448 -13 635 -13 m 448 131 q 568 167 519 131 q 643 286 617 203 q 669 510 669 369 q 643 739 669 653 q 568 861 617 824 q 448 897 519 897 q 328 861 376 897 q 254 741 280 825 q 228 518 228 658 q 254 289 228 374 q 328 167 280 203 q 448 131 376 131 m 374 1111 l 476 1317 l 651 1317 l 522 1111 l 374 1111 z "},"Ŏ":{"ha":897,"x_min":51,"x_max":845,"o":"m 448 -13 q 156 114 261 -13 q 51 514 51 241 q 156 914 51 787 q 448 1041 261 1041 q 740 914 635 1041 q 845 514 845 787 q 740 114 845 241 q 448 -13 635 -13 m 448 131 q 568 167 519 131 q 643 286 617 203 q 669 510 669 369 q 643 739 669 653 q 568 861 617 824 q 448 897 519 897 q 328 861 376 897 q 254 741 280 825 q 228 518 228 658 q 254 289 228 374 q 328 167 280 203 q 448 131 376 131 m 449 1115 q 297 1164 353 1115 q 233 1308 241 1214 l 339 1308 q 372 1228 346 1252 q 449 1203 398 1203 q 526 1228 500 1203 q 558 1308 552 1252 l 663 1308 q 600 1164 656 1213 q 449 1115 545 1115 z "},"Ô":{"ha":897,"x_min":51,"x_max":845,"o":"m 448 -13 q 156 114 261 -13 q 51 514 51 241 q 156 914 51 787 q 448 1041 261 1041 q 740 914 635 1041 q 845 514 845 787 q 740 114 845 241 q 448 -13 635 -13 m 448 131 q 568 167 519 131 q 643 286 617 203 q 669 510 669 369 q 643 739 669 653 q 568 861 617 824 q 448 897 519 897 q 328 861 376 897 q 254 741 280 825 q 228 518 228 658 q 254 289 228 374 q 328 167 280 203 q 448 131 376 131 m 656 1111 l 537 1111 l 449 1252 l 360 1111 l 240 1111 l 375 1317 l 522 1317 l 656 1111 z "},"Ố":{"ha":897,"x_min":51,"x_max":845,"o":"m 448 -13 q 156 114 261 -13 q 51 514 51 241 q 156 914 51 787 q 448 1041 261 1041 q 740 914 635 1041 q 845 514 845 787 q 740 114 845 241 q 448 -13 635 -13 m 448 131 q 568 167 519 131 q 643 286 617 203 q 669 510 669 369 q 643 739 669 653 q 568 861 617 824 q 448 897 519 897 q 328 861 376 897 q 254 741 280 825 q 228 518 228 658 q 254 289 228 374 q 328 167 280 203 q 448 131 376 131 m 670 1433 l 782 1433 l 683 1258 l 597 1258 l 670 1433 m 375 1300 l 522 1300 l 656 1111 l 537 1111 l 449 1242 l 360 1111 l 240 1111 l 375 1300 z "},"Ộ":{"ha":897,"x_min":51,"x_max":845,"o":"m 448 -13 q 156 114 261 -13 q 51 514 51 241 q 156 914 51 787 q 448 1041 261 1041 q 740 914 635 1041 q 845 514 845 787 q 740 114 845 241 q 448 -13 635 -13 m 448 131 q 568 167 519 131 q 643 286 617 203 q 669 510 669 369 q 643 739 669 653 q 568 861 617 824 q 448 897 519 897 q 328 861 376 897 q 254 741 280 825 q 228 518 228 658 q 254 289 228 374 q 328 167 280 203 q 448 131 376 131 m 448 -274 q 368 -251 397 -274 q 339 -186 339 -229 q 368 -120 339 -143 q 448 -97 397 -97 q 528 -120 499 -97 q 558 -186 558 -143 q 528 -251 558 -229 q 448 -274 499 -274 m 656 1111 l 537 1111 l 449 1252 l 360 1111 l 240 1111 l 375 1317 l 522 1317 l 656 1111 z "},"Ồ":{"ha":897,"x_min":51,"x_max":845,"o":"m 448 -13 q 156 114 261 -13 q 51 514 51 241 q 156 914 51 787 q 448 1041 261 1041 q 740 914 635 1041 q 845 514 845 787 q 740 114 845 241 q 448 -13 635 -13 m 448 131 q 568 167 519 131 q 643 286 617 203 q 669 510 669 369 q 643 739 669 653 q 568 861 617 824 q 448 897 519 897 q 328 861 376 897 q 254 741 280 825 q 228 518 228 658 q 254 289 228 374 q 328 167 280 203 q 448 131 376 131 m 704 1258 l 618 1258 l 519 1433 l 631 1433 l 704 1258 m 375 1300 l 522 1300 l 656 1111 l 537 1111 l 449 1242 l 360 1111 l 240 1111 l 375 1300 z "},"Ổ":{"ha":897,"x_min":51,"x_max":845,"o":"m 448 -13 q 156 114 261 -13 q 51 514 51 241 q 156 914 51 787 q 448 1041 261 1041 q 740 914 635 1041 q 845 514 845 787 q 740 114 845 241 q 448 -13 635 -13 m 448 131 q 568 167 519 131 q 643 286 617 203 q 669 510 669 369 q 643 739 669 653 q 568 861 617 824 q 448 897 519 897 q 328 861 376 897 q 254 741 280 825 q 228 518 228 658 q 254 289 228 374 q 328 167 280 203 q 448 131 376 131 m 642 1456 q 797 1376 797 1456 q 783 1338 797 1351 q 739 1309 768 1324 q 702 1286 715 1297 q 687 1258 689 1276 l 597 1258 q 616 1303 599 1288 q 664 1333 633 1319 q 691 1349 682 1342 q 700 1365 700 1356 q 684 1384 700 1378 q 629 1391 667 1391 q 506 1373 561 1391 l 506 1438 q 570 1451 532 1446 q 642 1456 609 1456 m 375 1300 l 522 1300 l 656 1111 l 537 1111 l 449 1242 l 360 1111 l 240 1111 l 375 1300 z "},"Ỗ":{"ha":897,"x_min":51,"x_max":845,"o":"m 448 -13 q 156 114 261 -13 q 51 514 51 241 q 156 914 51 787 q 448 1041 261 1041 q 740 914 635 1041 q 845 514 845 787 q 740 114 845 241 q 448 -13 635 -13 m 448 131 q 568 167 519 131 q 643 286 617 203 q 669 510 669 369 q 643 739 669 653 q 568 861 617 824 q 448 897 519 897 q 328 861 376 897 q 254 741 280 825 q 228 518 228 658 q 254 289 228 374 q 328 167 280 203 q 448 131 376 131 m 538 1411 q 598 1422 572 1411 q 656 1458 625 1433 l 656 1373 q 602 1340 630 1349 q 537 1330 574 1330 q 491 1336 513 1330 q 437 1355 469 1342 q 392 1371 408 1366 q 358 1376 376 1376 q 298 1365 324 1376 q 240 1328 272 1354 l 240 1414 q 294 1448 267 1438 q 360 1458 322 1458 q 406 1451 383 1458 q 460 1433 428 1445 q 503 1416 486 1422 q 538 1411 521 1411 m 375 1300 l 522 1300 l 656 1111 l 537 1111 l 449 1242 l 360 1111 l 240 1111 l 375 1300 z "},"Ȍ":{"ha":897,"x_min":51,"x_max":845,"o":"m 448 -13 q 156 114 261 -13 q 51 514 51 241 q 156 914 51 787 q 448 1041 261 1041 q 740 914 635 1041 q 845 514 845 787 q 740 114 845 241 q 448 -13 635 -13 m 448 131 q 568 167 519 131 q 643 286 617 203 q 669 510 669 369 q 643 739 669 653 q 568 861 617 824 q 448 897 519 897 q 328 861 376 897 q 254 741 280 825 q 228 518 228 658 q 254 289 228 374 q 328 167 280 203 q 448 131 376 131 m 262 1111 l 180 1317 l 318 1317 l 391 1111 l 262 1111 m 506 1111 l 424 1317 l 563 1317 l 635 1111 l 506 1111 z "},"Ö":{"ha":897,"x_min":51,"x_max":845,"o":"m 448 -13 q 156 114 261 -13 q 51 514 51 241 q 156 914 51 787 q 448 1041 261 1041 q 740 914 635 1041 q 845 514 845 787 q 740 114 845 241 q 448 -13 635 -13 m 448 131 q 568 167 519 131 q 643 286 617 203 q 669 510 669 369 q 643 739 669 653 q 568 861 617 824 q 448 897 519 897 q 328 861 376 897 q 254 741 280 825 q 228 518 228 658 q 254 289 228 374 q 328 167 280 203 q 448 131 376 131 m 297 1128 q 224 1151 251 1128 q 198 1216 198 1174 q 224 1281 198 1258 q 297 1304 251 1304 q 369 1281 343 1304 q 395 1216 395 1258 q 369 1151 395 1174 q 297 1128 343 1128 m 600 1128 q 527 1151 553 1128 q 501 1216 501 1174 q 527 1281 501 1258 q 600 1304 553 1304 q 672 1281 646 1304 q 699 1216 699 1258 q 672 1151 699 1174 q 600 1128 646 1128 z "},"Ȫ":{"ha":897,"x_min":51,"x_max":845,"o":"m 448 -13 q 156 114 261 -13 q 51 514 51 241 q 156 914 51 787 q 448 1041 261 1041 q 740 914 635 1041 q 845 514 845 787 q 740 114 845 241 q 448 -13 635 -13 m 448 131 q 568 167 519 131 q 643 286 617 203 q 669 510 669 369 q 643 739 669 653 q 568 861 617 824 q 448 897 519 897 q 328 861 376 897 q 254 741 280 825 q 228 518 228 658 q 254 289 228 374 q 328 167 280 203 q 448 131 376 131 m 297 1128 q 224 1151 251 1128 q 198 1216 198 1174 q 224 1281 198 1258 q 297 1304 251 1304 q 369 1281 343 1304 q 395 1216 395 1258 q 369 1151 395 1174 q 297 1128 343 1128 m 600 1128 q 527 1151 553 1128 q 501 1216 501 1174 q 527 1281 501 1258 q 600 1304 553 1304 q 672 1281 646 1304 q 699 1216 699 1258 q 672 1151 699 1174 q 600 1128 646 1128 m 230 1394 l 230 1506 l 667 1506 l 667 1394 l 230 1394 z "},"Ȱ":{"ha":897,"x_min":51,"x_max":845,"o":"m 448 -13 q 156 114 261 -13 q 51 514 51 241 q 156 914 51 787 q 448 1041 261 1041 q 740 914 635 1041 q 845 514 845 787 q 740 114 845 241 q 448 -13 635 -13 m 448 131 q 568 167 519 131 q 643 286 617 203 q 669 510 669 369 q 643 739 669 653 q 568 861 617 824 q 448 897 519 897 q 328 861 376 897 q 254 741 280 825 q 228 518 228 658 q 254 289 228 374 q 328 167 280 203 q 448 131 376 131 m 448 1128 q 368 1150 397 1128 q 339 1216 339 1173 q 368 1282 339 1259 q 448 1304 397 1304 q 528 1282 499 1304 q 558 1216 558 1259 q 528 1150 558 1173 q 448 1128 499 1128 m 230 1394 l 230 1506 l 667 1506 l 667 1394 l 230 1394 z "},"Ọ":{"ha":897,"x_min":51,"x_max":845,"o":"m 448 -13 q 156 114 261 -13 q 51 514 51 241 q 156 914 51 787 q 448 1041 261 1041 q 740 914 635 1041 q 845 514 845 787 q 740 114 845 241 q 448 -13 635 -13 m 448 131 q 568 167 519 131 q 643 286 617 203 q 669 510 669 369 q 643 739 669 653 q 568 861 617 824 q 448 897 519 897 q 328 861 376 897 q 254 741 280 825 q 228 518 228 658 q 254 289 228 374 q 328 167 280 203 q 448 131 376 131 m 448 -274 q 368 -251 397 -274 q 339 -186 339 -229 q 368 -120 339 -143 q 448 -97 397 -97 q 528 -120 499 -97 q 558 -186 558 -143 q 528 -251 558 -229 q 448 -274 499 -274 z "},"Ò":{"ha":897,"x_min":51,"x_max":845,"o":"m 448 -13 q 156 114 261 -13 q 51 514 51 241 q 156 914 51 787 q 448 1041 261 1041 q 740 914 635 1041 q 845 514 845 787 q 740 114 845 241 q 448 -13 635 -13 m 448 131 q 568 167 519 131 q 643 286 617 203 q 669 510 669 369 q 643 739 669 653 q 568 861 617 824 q 448 897 519 897 q 328 861 376 897 q 254 741 280 825 q 228 518 228 658 q 254 289 228 374 q 328 167 280 203 q 448 131 376 131 m 374 1111 l 246 1317 l 421 1317 l 522 1111 l 374 1111 z "},"Ỏ":{"ha":897,"x_min":51,"x_max":845,"o":"m 448 -13 q 156 114 261 -13 q 51 514 51 241 q 156 914 51 787 q 448 1041 261 1041 q 740 914 635 1041 q 845 514 845 787 q 740 114 845 241 q 448 -13 635 -13 m 448 131 q 568 167 519 131 q 643 286 617 203 q 669 510 669 369 q 643 739 669 653 q 568 861 617 824 q 448 897 519 897 q 328 861 376 897 q 254 741 280 825 q 228 518 228 658 q 254 289 228 374 q 328 167 280 203 q 448 131 376 131 m 403 1111 q 423 1160 405 1143 q 472 1192 442 1178 q 499 1209 491 1203 q 507 1225 507 1215 q 491 1247 507 1240 q 436 1255 474 1255 q 374 1250 406 1255 q 313 1235 341 1244 l 313 1308 q 377 1322 338 1316 q 449 1327 415 1327 q 604 1239 604 1327 q 596 1207 604 1220 q 577 1186 588 1194 q 546 1166 565 1178 q 509 1141 522 1153 q 493 1111 496 1129 l 403 1111 z "},"Ơ":{"ha":897,"x_min":51,"x_max":853,"o":"m 713 944 q 845 514 845 817 q 741 114 845 241 q 448 -13 636 -13 q 156 114 260 -13 q 51 514 51 241 q 156 914 51 787 q 448 1041 261 1041 q 545 1033 490 1041 q 574 1029 552 1032 q 618 1026 597 1026 q 729 1135 729 1026 q 716 1233 729 1183 l 838 1233 q 853 1126 853 1188 q 816 1003 853 1049 q 713 944 778 958 m 448 131 q 568 167 519 131 q 643 286 617 203 q 669 510 669 369 q 643 739 669 653 q 568 861 617 824 q 448 897 519 897 q 328 861 376 897 q 254 741 280 825 q 228 518 228 658 q 254 289 228 374 q 328 167 280 203 q 448 131 376 131 z "},"Ớ":{"ha":897,"x_min":51,"x_max":853,"o":"m 713 944 q 845 514 845 817 q 741 114 845 241 q 448 -13 636 -13 q 156 114 260 -13 q 51 514 51 241 q 156 914 51 787 q 448 1041 261 1041 q 545 1033 490 1041 q 574 1029 552 1032 q 618 1026 597 1026 q 729 1135 729 1026 q 716 1233 729 1183 l 838 1233 q 853 1126 853 1188 q 816 1003 853 1049 q 713 944 778 958 m 448 131 q 568 167 519 131 q 643 286 617 203 q 669 510 669 369 q 643 739 669 653 q 568 861 617 824 q 448 897 519 897 q 328 861 376 897 q 254 741 280 825 q 228 518 228 658 q 254 289 228 374 q 328 167 280 203 q 448 131 376 131 m 374 1111 l 476 1317 l 651 1317 l 522 1111 l 374 1111 z "},"Ợ":{"ha":897,"x_min":51,"x_max":853,"o":"m 713 944 q 845 514 845 817 q 741 114 845 241 q 448 -13 636 -13 q 156 114 260 -13 q 51 514 51 241 q 156 914 51 787 q 448 1041 261 1041 q 545 1033 490 1041 q 574 1029 552 1032 q 618 1026 597 1026 q 729 1135 729 1026 q 716 1233 729 1183 l 838 1233 q 853 1126 853 1188 q 816 1003 853 1049 q 713 944 778 958 m 448 131 q 568 167 519 131 q 643 286 617 203 q 669 510 669 369 q 643 739 669 653 q 568 861 617 824 q 448 897 519 897 q 328 861 376 897 q 254 741 280 825 q 228 518 228 658 q 254 289 228 374 q 328 167 280 203 q 448 131 376 131 m 448 -274 q 368 -251 397 -274 q 339 -186 339 -229 q 368 -120 339 -143 q 448 -97 397 -97 q 528 -120 499 -97 q 558 -186 558 -143 q 528 -251 558 -229 q 448 -274 499 -274 z "},"Ờ":{"ha":897,"x_min":51,"x_max":853,"o":"m 713 944 q 845 514 845 817 q 741 114 845 241 q 448 -13 636 -13 q 156 114 260 -13 q 51 514 51 241 q 156 914 51 787 q 448 1041 261 1041 q 545 1033 490 1041 q 574 1029 552 1032 q 618 1026 597 1026 q 729 1135 729 1026 q 716 1233 729 1183 l 838 1233 q 853 1126 853 1188 q 816 1003 853 1049 q 713 944 778 958 m 448 131 q 568 167 519 131 q 643 286 617 203 q 669 510 669 369 q 643 739 669 653 q 568 861 617 824 q 448 897 519 897 q 328 861 376 897 q 254 741 280 825 q 228 518 228 658 q 254 289 228 374 q 328 167 280 203 q 448 131 376 131 m 374 1111 l 246 1317 l 421 1317 l 522 1111 l 374 1111 z "},"Ở":{"ha":897,"x_min":51,"x_max":853,"o":"m 713 944 q 845 514 845 817 q 741 114 845 241 q 448 -13 636 -13 q 156 114 260 -13 q 51 514 51 241 q 156 914 51 787 q 448 1041 261 1041 q 545 1033 490 1041 q 574 1029 552 1032 q 618 1026 597 1026 q 729 1135 729 1026 q 716 1233 729 1183 l 838 1233 q 853 1126 853 1188 q 816 1003 853 1049 q 713 944 778 958 m 448 131 q 568 167 519 131 q 643 286 617 203 q 669 510 669 369 q 643 739 669 653 q 568 861 617 824 q 448 897 519 897 q 328 861 376 897 q 254 741 280 825 q 228 518 228 658 q 254 289 228 374 q 328 167 280 203 q 448 131 376 131 m 403 1111 q 423 1160 405 1143 q 472 1192 442 1178 q 499 1209 491 1203 q 507 1225 507 1215 q 491 1247 507 1240 q 436 1255 474 1255 q 374 1250 406 1255 q 313 1235 341 1244 l 313 1308 q 377 1322 338 1316 q 449 1327 415 1327 q 604 1239 604 1327 q 596 1207 604 1220 q 577 1186 588 1194 q 546 1166 565 1178 q 509 1141 522 1153 q 493 1111 496 1129 l 403 1111 z "},"Ỡ":{"ha":897,"x_min":51,"x_max":853,"o":"m 349 1191 q 289 1178 315 1191 q 238 1140 264 1166 l 238 1249 q 286 1286 259 1274 q 350 1298 313 1298 q 401 1290 377 1298 q 459 1268 425 1283 q 508 1249 488 1255 q 548 1242 528 1242 q 607 1255 582 1242 q 659 1294 633 1267 l 659 1184 q 611 1148 638 1160 q 547 1136 584 1136 q 494 1144 519 1136 q 438 1166 470 1151 q 388 1185 406 1179 q 349 1191 369 1191 m 713 944 q 845 514 845 817 q 741 114 845 241 q 448 -13 636 -13 q 156 114 260 -13 q 51 514 51 241 q 156 914 51 787 q 448 1041 261 1041 q 545 1033 490 1041 q 574 1029 552 1032 q 618 1026 597 1026 q 729 1135 729 1026 q 716 1233 729 1183 l 838 1233 q 853 1126 853 1188 q 816 1003 853 1049 q 713 944 778 958 m 448 131 q 568 167 519 131 q 643 286 617 203 q 669 510 669 369 q 643 739 669 653 q 568 861 617 824 q 448 897 519 897 q 328 861 376 897 q 254 741 280 825 q 228 518 228 658 q 254 289 228 374 q 328 167 280 203 q 448 131 376 131 z "},"Ő":{"ha":897,"x_min":51,"x_max":845,"o":"m 448 -13 q 156 114 261 -13 q 51 514 51 241 q 156 914 51 787 q 448 1041 261 1041 q 740 914 635 1041 q 845 514 845 787 q 740 114 845 241 q 448 -13 635 -13 m 448 131 q 568 167 519 131 q 643 286 617 203 q 669 510 669 369 q 643 739 669 653 q 568 861 617 824 q 448 897 519 897 q 328 861 376 897 q 254 741 280 825 q 228 518 228 658 q 254 289 228 374 q 328 167 280 203 q 448 131 376 131 m 262 1111 l 334 1317 l 473 1317 l 391 1111 l 262 1111 m 506 1111 l 578 1317 l 717 1317 l 635 1111 l 506 1111 z "},"Ȏ":{"ha":897,"x_min":51,"x_max":845,"o":"m 448 -13 q 156 114 261 -13 q 51 514 51 241 q 156 914 51 787 q 448 1041 261 1041 q 740 914 635 1041 q 845 514 845 787 q 740 114 845 241 q 448 -13 635 -13 m 448 131 q 568 167 519 131 q 643 286 617 203 q 669 510 669 369 q 643 739 669 653 q 568 861 617 824 q 448 897 519 897 q 328 861 376 897 q 254 741 280 825 q 228 518 228 658 q 254 289 228 374 q 328 167 280 203 q 448 131 376 131 m 233 1119 q 296 1263 241 1214 q 448 1313 351 1313 q 600 1263 544 1313 q 663 1119 656 1214 l 558 1119 q 525 1199 551 1175 q 448 1224 499 1224 q 370 1199 397 1224 q 339 1119 344 1175 l 233 1119 z "},"Ō":{"ha":897,"x_min":51,"x_max":845,"o":"m 448 -13 q 156 114 261 -13 q 51 514 51 241 q 156 914 51 787 q 448 1041 261 1041 q 740 914 635 1041 q 845 514 845 787 q 740 114 845 241 q 448 -13 635 -13 m 448 131 q 568 167 519 131 q 643 286 617 203 q 669 510 669 369 q 643 739 669 653 q 568 861 617 824 q 448 897 519 897 q 328 861 376 897 q 254 741 280 825 q 228 518 228 658 q 254 289 228 374 q 328 167 280 203 q 448 131 376 131 m 230 1158 l 230 1270 l 667 1270 l 667 1158 l 230 1158 z "},"Ṓ":{"ha":897,"x_min":51,"x_max":845,"o":"m 448 -13 q 156 114 261 -13 q 51 514 51 241 q 156 914 51 787 q 448 1041 261 1041 q 740 914 635 1041 q 845 514 845 787 q 740 114 845 241 q 448 -13 635 -13 m 448 131 q 568 167 519 131 q 643 286 617 203 q 669 510 669 369 q 643 739 669 653 q 568 861 617 824 q 448 897 519 897 q 328 861 376 897 q 254 741 280 825 q 228 518 228 658 q 254 289 228 374 q 328 167 280 203 q 448 131 376 131 m 367 1347 l 469 1508 l 658 1508 l 529 1347 l 367 1347 m 230 1158 l 230 1270 l 667 1270 l 667 1158 l 230 1158 z "},"Ṑ":{"ha":897,"x_min":51,"x_max":845,"o":"m 448 -13 q 156 114 261 -13 q 51 514 51 241 q 156 914 51 787 q 448 1041 261 1041 q 740 914 635 1041 q 845 514 845 787 q 740 114 845 241 q 448 -13 635 -13 m 448 131 q 568 167 519 131 q 643 286 617 203 q 669 510 669 369 q 643 739 669 653 q 568 861 617 824 q 448 897 519 897 q 328 861 376 897 q 254 741 280 825 q 228 518 228 658 q 254 289 228 374 q 328 167 280 203 q 448 131 376 131 m 367 1347 l 239 1508 l 427 1508 l 529 1347 l 367 1347 m 230 1158 l 230 1270 l 667 1270 l 667 1158 l 230 1158 z "},"Ǫ":{"ha":897,"x_min":51,"x_max":845,"o":"m 600 10 q 432 -153 432 -55 q 455 -208 432 -190 q 524 -226 477 -226 q 620 -203 568 -226 l 620 -277 q 505 -301 565 -301 q 375 -265 419 -301 q 331 -163 331 -229 q 353 -82 331 -119 q 423 -12 374 -44 q 149 123 247 -4 q 51 514 51 250 q 156 914 51 787 q 448 1041 261 1041 q 740 914 635 1041 q 845 514 845 787 q 600 10 845 107 m 228 518 q 254 289 228 374 q 328 167 280 203 q 448 131 376 131 q 568 167 519 131 q 643 286 617 203 q 669 510 669 369 q 643 739 669 653 q 568 861 617 824 q 448 897 519 897 q 328 861 376 897 q 254 741 280 825 q 228 518 228 658 z "},"Ø":{"ha":897,"x_min":51,"x_max":845,"o":"m 751 899 q 845 514 845 766 q 740 114 845 241 q 448 -13 635 -13 q 214 57 306 -13 l 160 -28 l 78 25 l 145 129 q 51 514 51 263 q 156 914 51 787 q 448 1041 261 1041 q 682 972 590 1041 l 736 1056 l 817 1003 l 751 899 m 228 518 q 251 297 228 383 l 595 835 q 448 897 543 897 q 328 861 376 897 q 254 741 280 825 q 228 518 228 658 m 448 131 q 568 167 519 131 q 643 286 617 203 q 669 510 669 369 q 644 732 669 647 l 301 193 q 448 131 353 131 z "},"Ǿ":{"ha":897,"x_min":51,"x_max":845,"o":"m 751 899 q 845 514 845 766 q 740 114 845 241 q 448 -13 635 -13 q 214 57 306 -13 l 160 -28 l 78 25 l 145 129 q 51 514 51 263 q 156 914 51 787 q 448 1041 261 1041 q 682 972 590 1041 l 736 1056 l 817 1003 l 751 899 m 228 518 q 251 297 228 383 l 595 835 q 448 897 543 897 q 328 861 376 897 q 254 741 280 825 q 228 518 228 658 m 448 131 q 568 167 519 131 q 643 286 617 203 q 669 510 669 369 q 644 732 669 647 l 301 193 q 448 131 353 131 m 376 1111 l 477 1317 l 652 1317 l 524 1111 l 376 1111 z "},"Õ":{"ha":897,"x_min":51,"x_max":845,"o":"m 448 -13 q 156 114 261 -13 q 51 514 51 241 q 156 914 51 787 q 448 1041 261 1041 q 740 914 635 1041 q 845 514 845 787 q 740 114 845 241 q 448 -13 635 -13 m 448 131 q 568 167 519 131 q 643 286 617 203 q 669 510 669 369 q 643 739 669 653 q 568 861 617 824 q 448 897 519 897 q 328 861 376 897 q 254 741 280 825 q 228 518 228 658 q 254 289 228 374 q 328 167 280 203 q 448 131 376 131 m 553 1136 q 499 1143 524 1136 q 438 1165 474 1151 q 385 1185 406 1178 q 342 1191 364 1191 q 278 1178 306 1191 q 223 1140 251 1166 l 223 1249 q 275 1286 246 1274 q 343 1298 304 1298 q 398 1290 372 1298 q 459 1268 424 1283 q 511 1249 490 1255 q 555 1242 533 1242 q 618 1255 591 1242 q 674 1294 646 1267 l 674 1184 q 622 1148 651 1160 q 553 1136 592 1136 z "},"Ṍ":{"ha":897,"x_min":51,"x_max":845,"o":"m 448 -13 q 156 114 261 -13 q 51 514 51 241 q 156 914 51 787 q 448 1041 261 1041 q 740 914 635 1041 q 845 514 845 787 q 740 114 845 241 q 448 -13 635 -13 m 448 131 q 568 167 519 131 q 643 286 617 203 q 669 510 669 369 q 643 739 669 653 q 568 861 617 824 q 448 897 519 897 q 328 861 376 897 q 254 741 280 825 q 228 518 228 658 q 254 289 228 374 q 328 167 280 203 q 448 131 376 131 m 367 1347 l 469 1508 l 658 1508 l 529 1347 l 367 1347 m 553 1136 q 499 1143 524 1136 q 438 1165 474 1151 q 385 1185 406 1178 q 342 1191 364 1191 q 278 1178 306 1191 q 223 1140 251 1166 l 223 1249 q 275 1286 246 1274 q 343 1298 304 1298 q 398 1290 372 1298 q 459 1268 424 1283 q 511 1249 490 1255 q 555 1242 533 1242 q 618 1255 591 1242 q 674 1294 646 1267 l 674 1184 q 622 1148 651 1160 q 553 1136 592 1136 z "},"Ṏ":{"ha":897,"x_min":51,"x_max":845,"o":"m 448 -13 q 156 114 261 -13 q 51 514 51 241 q 156 914 51 787 q 448 1041 261 1041 q 740 914 635 1041 q 845 514 845 787 q 740 114 845 241 q 448 -13 635 -13 m 448 131 q 568 167 519 131 q 643 286 617 203 q 669 510 669 369 q 643 739 669 653 q 568 861 617 824 q 448 897 519 897 q 328 861 376 897 q 254 741 280 825 q 228 518 228 658 q 254 289 228 374 q 328 167 280 203 q 448 131 376 131 m 553 1136 q 499 1143 524 1136 q 438 1165 474 1151 q 385 1185 406 1178 q 342 1191 364 1191 q 278 1178 306 1191 q 223 1140 251 1166 l 223 1249 q 275 1286 246 1274 q 343 1298 304 1298 q 398 1290 372 1298 q 459 1268 424 1283 q 511 1249 490 1255 q 555 1242 533 1242 q 618 1255 591 1242 q 674 1294 646 1267 l 674 1184 q 622 1148 651 1160 q 553 1136 592 1136 m 297 1364 q 224 1387 251 1364 q 198 1452 198 1410 q 224 1517 198 1494 q 297 1540 251 1540 q 369 1517 343 1540 q 395 1452 395 1494 q 369 1387 395 1410 q 297 1364 343 1364 m 600 1364 q 527 1387 553 1364 q 501 1452 501 1410 q 527 1517 501 1494 q 600 1540 553 1540 q 672 1517 646 1540 q 699 1452 699 1494 q 672 1387 699 1410 q 600 1364 646 1364 z "},"Ȭ":{"ha":897,"x_min":51,"x_max":845,"o":"m 448 -13 q 156 114 261 -13 q 51 514 51 241 q 156 914 51 787 q 448 1041 261 1041 q 740 914 635 1041 q 845 514 845 787 q 740 114 845 241 q 448 -13 635 -13 m 448 131 q 568 167 519 131 q 643 286 617 203 q 669 510 669 369 q 643 739 669 653 q 568 861 617 824 q 448 897 519 897 q 328 861 376 897 q 254 741 280 825 q 228 518 228 658 q 254 289 228 374 q 328 167 280 203 q 448 131 376 131 m 553 1136 q 499 1143 524 1136 q 438 1165 474 1151 q 385 1185 406 1178 q 342 1191 364 1191 q 278 1178 306 1191 q 223 1140 251 1166 l 223 1249 q 275 1286 246 1274 q 343 1298 304 1298 q 398 1290 372 1298 q 459 1268 424 1283 q 511 1249 490 1255 q 555 1242 533 1242 q 618 1255 591 1242 q 674 1294 646 1267 l 674 1184 q 622 1148 651 1160 q 553 1136 592 1136 m 230 1394 l 230 1506 l 667 1506 l 667 1394 l 230 1394 z "},"Œ":{"ha":1230,"x_min":51,"x_max":1197,"o":"m 1197 148 l 1197 0 l 715 0 q 637 -3 692 0 q 533 -7 572 -7 q 173 120 294 -7 q 51 514 51 247 q 175 907 51 778 q 533 1036 299 1036 q 637 1031 581 1036 q 672 1029 649 1031 q 713 1028 696 1028 l 1190 1028 l 1190 880 l 774 880 l 774 600 l 1122 600 l 1122 452 l 774 452 l 774 148 l 1197 148 m 606 886 q 506 892 556 892 q 351 854 412 892 q 259 733 290 817 q 228 514 228 650 q 260 293 228 376 q 355 174 292 210 q 513 137 417 137 q 606 141 564 137 l 606 886 z "},"P":{"ha":794,"x_min":85,"x_max":748,"o":"m 85 1013 q 343 1040 219 1040 q 647 951 547 1040 q 748 675 748 863 q 647 405 748 497 q 347 313 545 313 q 256 316 308 313 l 256 0 l 85 0 l 85 1013 m 350 453 q 524 505 468 453 q 581 672 581 558 q 526 845 581 791 q 358 900 472 900 q 256 892 303 900 l 256 458 q 350 453 295 453 z "},"Þ":{"ha":801,"x_min":85,"x_max":748,"o":"m 85 1028 l 256 1028 l 256 886 q 344 892 315 892 q 648 803 547 892 q 748 527 748 714 q 647 256 748 348 q 348 165 546 165 q 256 168 308 165 l 256 0 l 85 0 l 85 1028 m 350 305 q 524 357 468 305 q 581 524 581 410 q 527 697 581 643 q 358 751 473 751 q 256 744 299 751 l 256 310 q 350 305 297 305 z "},"Q":{"ha":897,"x_min":51,"x_max":845,"o":"m 845 514 q 770 166 845 294 q 551 11 695 38 q 829 -49 685 -32 l 797 -191 q 352 -57 514 -144 q 120 166 190 29 q 51 514 51 303 q 156 914 51 787 q 448 1041 261 1041 q 740 914 635 1041 q 845 514 845 787 m 228 518 q 254 289 228 374 q 328 167 280 203 q 448 131 376 131 q 568 167 519 131 q 643 286 617 203 q 669 510 669 369 q 643 739 669 653 q 568 861 617 824 q 448 897 519 897 q 328 861 376 897 q 254 741 280 825 q 228 518 228 658 z "},"R":{"ha":836,"x_min":85,"x_max":824,"o":"m 640 0 l 383 397 q 349 396 372 396 q 253 399 311 396 l 253 0 l 85 0 l 85 1013 q 351 1040 222 1040 q 648 960 549 1040 q 746 719 746 880 q 694 534 747 608 q 543 425 642 460 l 824 0 l 640 0 m 253 536 q 348 532 306 532 q 527 576 469 532 q 584 719 584 621 q 532 859 584 814 q 370 904 479 904 q 253 895 312 904 l 253 536 z "},"Ŕ":{"ha":836,"x_min":85,"x_max":824,"o":"m 640 0 l 383 397 q 349 396 372 396 q 253 399 311 396 l 253 0 l 85 0 l 85 1013 q 351 1040 222 1040 q 648 960 549 1040 q 746 719 746 880 q 694 534 747 608 q 543 425 642 460 l 824 0 l 640 0 m 253 536 q 348 532 306 532 q 527 576 469 532 q 584 719 584 621 q 532 859 584 814 q 370 904 479 904 q 253 895 312 904 l 253 536 m 328 1111 l 430 1317 l 605 1317 l 476 1111 l 328 1111 z "},"Ř":{"ha":836,"x_min":85,"x_max":824,"o":"m 640 0 l 383 397 q 349 396 372 396 q 253 399 311 396 l 253 0 l 85 0 l 85 1013 q 351 1040 222 1040 q 648 960 549 1040 q 746 719 746 880 q 694 534 747 608 q 543 425 642 460 l 824 0 l 640 0 m 253 536 q 348 532 306 532 q 527 576 469 532 q 584 719 584 621 q 532 859 584 814 q 370 904 479 904 q 253 895 312 904 l 253 536 m 491 1317 l 610 1317 l 476 1111 l 329 1111 l 194 1317 l 314 1317 l 403 1175 l 491 1317 z "},"Ŗ":{"ha":836,"x_min":85,"x_max":824,"o":"m 640 0 l 383 397 q 349 396 372 396 q 253 399 311 396 l 253 0 l 85 0 l 85 1013 q 351 1040 222 1040 q 648 960 549 1040 q 746 719 746 880 q 694 534 747 608 q 543 425 642 460 l 824 0 l 640 0 m 253 536 q 348 532 306 532 q 527 576 469 532 q 584 719 584 621 q 532 859 584 814 q 370 904 479 904 q 253 895 312 904 l 253 536 m 446 -97 q 545 -190 545 -97 q 532 -265 545 -224 q 498 -337 519 -305 l 392 -337 q 426 -237 419 -278 q 368 -215 388 -233 q 349 -167 349 -197 q 373 -116 349 -134 q 446 -97 397 -97 z "},"Ȑ":{"ha":836,"x_min":85,"x_max":824,"o":"m 640 0 l 383 397 q 349 396 372 396 q 253 399 311 396 l 253 0 l 85 0 l 85 1013 q 351 1040 222 1040 q 648 960 549 1040 q 746 719 746 880 q 694 534 747 608 q 543 425 642 460 l 824 0 l 640 0 m 253 536 q 348 532 306 532 q 527 576 469 532 q 584 719 584 621 q 532 859 584 814 q 370 904 479 904 q 253 895 312 904 l 253 536 m 216 1111 l 134 1317 l 272 1317 l 345 1111 l 216 1111 m 460 1111 l 378 1317 l 517 1317 l 589 1111 l 460 1111 z "},"Ṛ":{"ha":836,"x_min":85,"x_max":824,"o":"m 640 0 l 383 397 q 349 396 372 396 q 253 399 311 396 l 253 0 l 85 0 l 85 1013 q 351 1040 222 1040 q 648 960 549 1040 q 746 719 746 880 q 694 534 747 608 q 543 425 642 460 l 824 0 l 640 0 m 253 536 q 348 532 306 532 q 527 576 469 532 q 584 719 584 621 q 532 859 584 814 q 370 904 479 904 q 253 895 312 904 l 253 536 m 447 -274 q 366 -251 395 -274 q 338 -186 338 -229 q 367 -120 338 -143 q 447 -97 396 -97 q 527 -120 498 -97 q 556 -186 556 -143 q 527 -251 556 -229 q 447 -274 498 -274 z "},"Ȓ":{"ha":836,"x_min":85,"x_max":824,"o":"m 640 0 l 383 397 q 349 396 372 396 q 253 399 311 396 l 253 0 l 85 0 l 85 1013 q 351 1040 222 1040 q 648 960 549 1040 q 746 719 746 880 q 694 534 747 608 q 543 425 642 460 l 824 0 l 640 0 m 253 536 q 348 532 306 532 q 527 576 469 532 q 584 719 584 621 q 532 859 584 814 q 370 904 479 904 q 253 895 312 904 l 253 536 m 188 1119 q 250 1263 195 1214 q 402 1313 306 1313 q 554 1263 498 1313 q 617 1119 610 1214 l 512 1119 q 479 1199 505 1175 q 402 1224 453 1224 q 325 1199 351 1224 q 293 1119 299 1175 l 188 1119 z "},"Ṟ":{"ha":836,"x_min":85,"x_max":824,"o":"m 640 0 l 383 397 q 349 396 372 396 q 253 399 311 396 l 253 0 l 85 0 l 85 1013 q 351 1040 222 1040 q 648 960 549 1040 q 746 719 746 880 q 694 534 747 608 q 543 425 642 460 l 824 0 l 640 0 m 253 536 q 348 532 306 532 q 527 576 469 532 q 584 719 584 621 q 532 859 584 814 q 370 904 479 904 q 253 895 312 904 l 253 536 m 228 -237 l 228 -126 l 665 -126 l 665 -237 l 228 -237 z "},"S":{"ha":672,"x_min":29,"x_max":642,"o":"m 284 -13 q 165 -3 228 -13 q 51 26 102 7 l 51 172 q 282 132 173 132 q 424 169 377 132 q 470 276 470 206 q 456 343 470 316 q 409 392 442 371 q 318 433 376 413 l 256 453 q 29 741 29 531 q 70 902 29 835 q 193 1005 111 969 q 394 1041 274 1041 q 501 1034 448 1041 q 594 1015 554 1027 l 594 869 q 408 896 510 896 q 201 754 201 896 q 214 690 201 716 q 257 644 227 665 q 341 606 288 624 l 403 585 q 582 475 521 546 q 642 292 642 405 q 600 128 642 197 q 478 23 558 60 q 284 -13 397 -13 z "},"Ś":{"ha":672,"x_min":29,"x_max":642,"o":"m 284 -13 q 165 -3 228 -13 q 51 26 102 7 l 51 172 q 282 132 173 132 q 424 169 377 132 q 470 276 470 206 q 456 343 470 316 q 409 392 442 371 q 318 433 376 413 l 256 453 q 29 741 29 531 q 70 902 29 835 q 193 1005 111 969 q 394 1041 274 1041 q 501 1034 448 1041 q 594 1015 554 1027 l 594 869 q 408 896 510 896 q 201 754 201 896 q 214 690 201 716 q 257 644 227 665 q 341 606 288 624 l 403 585 q 582 475 521 546 q 642 292 642 405 q 600 128 642 197 q 478 23 558 60 q 284 -13 397 -13 m 269 1111 l 370 1317 l 545 1317 l 417 1111 l 269 1111 z "},"Ṥ":{"ha":672,"x_min":29,"x_max":642,"o":"m 284 -13 q 165 -3 228 -13 q 51 26 102 7 l 51 172 q 282 132 173 132 q 424 169 377 132 q 470 276 470 206 q 456 343 470 316 q 409 392 442 371 q 318 433 376 413 l 256 453 q 29 741 29 531 q 70 902 29 835 q 193 1005 111 969 q 394 1041 274 1041 q 501 1034 448 1041 q 594 1015 554 1027 l 594 869 q 408 896 510 896 q 201 754 201 896 q 214 690 201 716 q 257 644 227 665 q 341 606 288 624 l 403 585 q 582 475 521 546 q 642 292 642 405 q 600 128 642 197 q 478 23 558 60 q 284 -13 397 -13 m 216 1289 q 149 1308 174 1289 q 125 1363 125 1327 q 149 1418 125 1399 q 216 1438 174 1438 q 283 1418 258 1438 q 307 1363 307 1399 q 283 1308 307 1327 q 216 1289 258 1289 m 269 1111 l 370 1317 l 545 1317 l 417 1111 l 269 1111 z "},"Š":{"ha":672,"x_min":29,"x_max":642,"o":"m 284 -13 q 165 -3 228 -13 q 51 26 102 7 l 51 172 q 282 132 173 132 q 424 169 377 132 q 470 276 470 206 q 456 343 470 316 q 409 392 442 371 q 318 433 376 413 l 256 453 q 29 741 29 531 q 70 902 29 835 q 193 1005 111 969 q 394 1041 274 1041 q 501 1034 448 1041 q 594 1015 554 1027 l 594 869 q 408 896 510 896 q 201 754 201 896 q 214 690 201 716 q 257 644 227 665 q 341 606 288 624 l 403 585 q 582 475 521 546 q 642 292 642 405 q 600 128 642 197 q 478 23 558 60 q 284 -13 397 -13 m 431 1317 l 551 1317 l 416 1111 l 269 1111 l 135 1317 l 254 1317 l 343 1175 l 431 1317 z "},"Ṧ":{"ha":672,"x_min":29,"x_max":642,"o":"m 284 -13 q 165 -3 228 -13 q 51 26 102 7 l 51 172 q 282 132 173 132 q 424 169 377 132 q 470 276 470 206 q 456 343 470 316 q 409 392 442 371 q 318 433 376 413 l 256 453 q 29 741 29 531 q 70 902 29 835 q 193 1005 111 969 q 394 1041 274 1041 q 501 1034 448 1041 q 594 1015 554 1027 l 594 869 q 408 896 510 896 q 201 754 201 896 q 214 690 201 716 q 257 644 227 665 q 341 606 288 624 l 403 585 q 582 475 521 546 q 642 292 642 405 q 600 128 642 197 q 478 23 558 60 q 284 -13 397 -13 m 342 1332 q 276 1351 300 1332 q 251 1406 251 1370 q 276 1461 251 1442 q 342 1481 300 1481 q 409 1461 385 1481 q 433 1406 433 1442 q 409 1351 433 1369 q 342 1332 385 1332 m 431 1317 l 551 1317 l 416 1111 l 269 1111 l 135 1317 l 254 1317 l 343 1175 l 431 1317 z "},"Ş":{"ha":672,"x_min":29,"x_max":642,"o":"m 642 292 q 573 92 642 169 q 376 -6 504 15 l 376 -65 q 464 -102 433 -72 q 494 -180 494 -131 q 452 -269 494 -238 q 326 -301 410 -301 q 201 -278 256 -301 l 201 -204 q 318 -227 258 -227 q 378 -215 358 -227 q 399 -174 399 -202 q 316 -119 399 -119 l 288 -119 l 288 -13 l 284 -13 q 165 -3 228 -13 q 51 26 102 7 l 51 172 q 282 132 173 132 q 424 169 377 132 q 470 276 470 206 q 456 343 470 316 q 409 392 442 371 q 318 433 376 413 l 256 453 q 29 741 29 531 q 70 902 29 835 q 193 1005 111 969 q 394 1041 274 1041 q 501 1034 448 1041 q 594 1015 554 1027 l 594 869 q 408 896 510 896 q 201 754 201 896 q 214 690 201 716 q 257 644 227 665 q 341 606 288 624 l 403 585 q 582 475 521 546 q 642 292 642 405 z "},"Ŝ":{"ha":672,"x_min":29,"x_max":642,"o":"m 284 -13 q 165 -3 228 -13 q 51 26 102 7 l 51 172 q 282 132 173 132 q 424 169 377 132 q 470 276 470 206 q 456 343 470 316 q 409 392 442 371 q 318 433 376 413 l 256 453 q 29 741 29 531 q 70 902 29 835 q 193 1005 111 969 q 394 1041 274 1041 q 501 1034 448 1041 q 594 1015 554 1027 l 594 869 q 408 896 510 896 q 201 754 201 896 q 214 690 201 716 q 257 644 227 665 q 341 606 288 624 l 403 585 q 582 475 521 546 q 642 292 642 405 q 600 128 642 197 q 478 23 558 60 q 284 -13 397 -13 m 551 1111 l 431 1111 l 343 1252 l 254 1111 l 135 1111 l 269 1317 l 416 1317 l 551 1111 z "},"Ș":{"ha":672,"x_min":29,"x_max":642,"o":"m 284 -13 q 165 -3 228 -13 q 51 26 102 7 l 51 172 q 282 132 173 132 q 424 169 377 132 q 470 276 470 206 q 456 343 470 316 q 409 392 442 371 q 318 433 376 413 l 256 453 q 29 741 29 531 q 70 902 29 835 q 193 1005 111 969 q 394 1041 274 1041 q 501 1034 448 1041 q 594 1015 554 1027 l 594 869 q 408 896 510 896 q 201 754 201 896 q 214 690 201 716 q 257 644 227 665 q 341 606 288 624 l 403 585 q 582 475 521 546 q 642 292 642 405 q 600 128 642 197 q 478 23 558 60 q 284 -13 397 -13 m 342 -97 q 441 -190 441 -97 q 428 -265 441 -224 q 394 -337 415 -305 l 288 -337 q 322 -237 315 -278 q 264 -215 283 -233 q 244 -167 244 -197 q 269 -116 244 -134 q 342 -97 293 -97 z "},"Ṡ":{"ha":672,"x_min":29,"x_max":642,"o":"m 284 -13 q 165 -3 228 -13 q 51 26 102 7 l 51 172 q 282 132 173 132 q 424 169 377 132 q 470 276 470 206 q 456 343 470 316 q 409 392 442 371 q 318 433 376 413 l 256 453 q 29 741 29 531 q 70 902 29 835 q 193 1005 111 969 q 394 1041 274 1041 q 501 1034 448 1041 q 594 1015 554 1027 l 594 869 q 408 896 510 896 q 201 754 201 896 q 214 690 201 716 q 257 644 227 665 q 341 606 288 624 l 403 585 q 582 475 521 546 q 642 292 642 405 q 600 128 642 197 q 478 23 558 60 q 284 -13 397 -13 m 342 1128 q 263 1150 292 1128 q 233 1216 233 1173 q 263 1282 233 1259 q 342 1304 292 1304 q 423 1282 394 1304 q 452 1216 452 1259 q 423 1150 452 1173 q 342 1128 394 1128 z "},"Ṣ":{"ha":672,"x_min":29,"x_max":642,"o":"m 284 -13 q 165 -3 228 -13 q 51 26 102 7 l 51 172 q 282 132 173 132 q 424 169 377 132 q 470 276 470 206 q 456 343 470 316 q 409 392 442 371 q 318 433 376 413 l 256 453 q 29 741 29 531 q 70 902 29 835 q 193 1005 111 969 q 394 1041 274 1041 q 501 1034 448 1041 q 594 1015 554 1027 l 594 869 q 408 896 510 896 q 201 754 201 896 q 214 690 201 716 q 257 644 227 665 q 341 606 288 624 l 403 585 q 582 475 521 546 q 642 292 642 405 q 600 128 642 197 q 478 23 558 60 q 284 -13 397 -13 m 342 -274 q 262 -251 291 -274 q 233 -186 233 -229 q 263 -120 233 -143 q 342 -97 292 -97 q 423 -120 394 -97 q 452 -186 452 -143 q 423 -251 452 -229 q 342 -274 394 -274 z "},"Ṩ":{"ha":672,"x_min":29,"x_max":642,"o":"m 284 -13 q 165 -3 228 -13 q 51 26 102 7 l 51 172 q 282 132 173 132 q 424 169 377 132 q 470 276 470 206 q 456 343 470 316 q 409 392 442 371 q 318 433 376 413 l 256 453 q 29 741 29 531 q 70 902 29 835 q 193 1005 111 969 q 394 1041 274 1041 q 501 1034 448 1041 q 594 1015 554 1027 l 594 869 q 408 896 510 896 q 201 754 201 896 q 214 690 201 716 q 257 644 227 665 q 341 606 288 624 l 403 585 q 582 475 521 546 q 642 292 642 405 q 600 128 642 197 q 478 23 558 60 q 284 -13 397 -13 m 342 -274 q 262 -251 291 -274 q 233 -186 233 -229 q 263 -120 233 -143 q 342 -97 292 -97 q 423 -120 394 -97 q 452 -186 452 -143 q 423 -251 452 -229 q 342 -274 394 -274 m 342 1128 q 263 1150 292 1128 q 233 1216 233 1173 q 263 1282 233 1259 q 342 1304 292 1304 q 423 1282 394 1304 q 452 1216 452 1259 q 423 1150 452 1173 q 342 1128 394 1128 z "},"ẞ":{"ha":1070,"x_min":85,"x_max":1042,"o":"m 808 585 q 982 475 922 546 q 1042 292 1042 405 q 1000 128 1042 197 q 880 23 959 60 q 688 -13 800 -13 q 574 -3 635 -13 q 465 24 513 6 l 465 169 q 685 132 583 132 q 825 169 779 132 q 871 276 871 206 q 857 344 871 316 q 811 393 843 372 q 726 433 780 414 l 665 453 q 501 561 560 490 q 442 741 442 631 q 478 893 442 828 q 431 898 458 898 q 298 849 340 898 q 256 696 256 799 l 256 0 l 85 0 l 85 674 q 431 1041 85 1041 q 610 1008 535 1041 q 806 1041 692 1041 q 905 1034 855 1041 q 994 1017 956 1028 l 994 872 q 819 896 913 896 q 614 754 614 896 q 627 690 614 717 q 668 644 640 664 q 747 606 697 624 l 808 585 z "},"Ə":{"ha":888,"x_min":44,"x_max":836,"o":"m 354 1041 q 622 985 515 1041 q 782 812 728 930 q 836 506 836 694 q 786 213 836 328 q 648 42 737 97 q 441 -13 560 -13 q 150 113 256 -13 q 44 506 44 239 l 44 572 l 663 572 q 620 768 656 697 q 515 869 583 839 q 338 899 447 899 q 217 891 278 899 q 101 869 155 884 l 101 1013 q 354 1041 219 1041 m 442 128 q 559 156 513 128 q 632 253 605 185 q 664 439 658 322 l 222 439 q 253 254 227 322 q 325 157 278 186 q 442 128 371 128 z "},"T":{"ha":759,"x_min":4,"x_max":755,"o":"m 294 0 l 294 876 l 4 876 l 4 1028 l 755 1028 l 755 876 l 465 876 l 465 0 l 294 0 z "},"Ŧ":{"ha":759,"x_min":4,"x_max":755,"o":"m 755 876 l 465 876 l 465 576 l 651 576 l 651 458 l 465 458 l 465 0 l 294 0 l 294 458 l 108 458 l 108 576 l 294 576 l 294 876 l 4 876 l 4 1028 l 755 1028 l 755 876 z "},"Ť":{"ha":759,"x_min":4,"x_max":755,"o":"m 294 0 l 294 876 l 4 876 l 4 1028 l 755 1028 l 755 876 l 465 876 l 465 0 l 294 0 m 469 1317 l 588 1317 l 453 1111 l 307 1111 l 172 1317 l 292 1317 l 381 1175 l 469 1317 z "},"Ţ":{"ha":759,"x_min":4,"x_max":755,"o":"m 414 0 l 414 -65 q 501 -102 470 -72 q 532 -180 532 -131 q 490 -269 532 -238 q 364 -301 448 -301 q 238 -278 293 -301 l 238 -204 q 356 -227 296 -227 q 416 -215 396 -227 q 436 -174 436 -202 q 353 -119 436 -119 l 326 -119 l 326 0 l 294 0 l 294 876 l 4 876 l 4 1028 l 755 1028 l 755 876 l 465 876 l 465 0 l 414 0 z "},"Ț":{"ha":759,"x_min":4,"x_max":755,"o":"m 294 0 l 294 876 l 4 876 l 4 1028 l 755 1028 l 755 876 l 465 876 l 465 0 l 294 0 m 379 -97 q 478 -190 478 -97 q 465 -265 478 -224 q 431 -337 452 -305 l 325 -337 q 360 -237 353 -278 q 301 -215 321 -233 q 282 -167 282 -197 q 306 -116 282 -134 q 379 -97 331 -97 z "},"Ṭ":{"ha":759,"x_min":4,"x_max":755,"o":"m 294 0 l 294 876 l 4 876 l 4 1028 l 755 1028 l 755 876 l 465 876 l 465 0 l 294 0 m 380 -274 q 300 -251 328 -274 q 271 -186 271 -229 q 300 -120 271 -143 q 380 -97 329 -97 q 460 -120 431 -97 q 490 -186 490 -143 q 460 -251 490 -229 q 380 -274 431 -274 z "},"Ṯ":{"ha":759,"x_min":4,"x_max":755,"o":"m 294 0 l 294 876 l 4 876 l 4 1028 l 755 1028 l 755 876 l 465 876 l 465 0 l 294 0 m 162 -237 l 162 -126 l 599 -126 l 599 -237 l 162 -237 z "},"U":{"ha":885,"x_min":81,"x_max":805,"o":"m 444 -13 q 239 28 319 -13 q 120 158 159 70 q 81 384 81 245 l 81 1028 l 251 1028 l 251 365 q 298 187 251 242 q 444 132 344 132 q 591 187 544 132 q 638 365 638 242 l 638 1028 l 805 1028 l 805 384 q 766 158 805 245 q 648 28 728 70 q 444 -13 569 -13 z "},"Ú":{"ha":885,"x_min":81,"x_max":805,"o":"m 444 -13 q 239 28 319 -13 q 120 158 159 70 q 81 384 81 245 l 81 1028 l 251 1028 l 251 365 q 298 187 251 242 q 444 132 344 132 q 591 187 544 132 q 638 365 638 242 l 638 1028 l 805 1028 l 805 384 q 766 158 805 245 q 648 28 728 70 q 444 -13 569 -13 m 371 1111 l 472 1317 l 647 1317 l 519 1111 l 371 1111 z "},"Ŭ":{"ha":885,"x_min":81,"x_max":805,"o":"m 444 -13 q 239 28 319 -13 q 120 158 159 70 q 81 384 81 245 l 81 1028 l 251 1028 l 251 365 q 298 187 251 242 q 444 132 344 132 q 591 187 544 132 q 638 365 638 242 l 638 1028 l 805 1028 l 805 384 q 766 158 805 245 q 648 28 728 70 q 444 -13 569 -13 m 445 1115 q 293 1164 349 1115 q 230 1308 238 1214 l 335 1308 q 368 1228 342 1252 q 445 1203 394 1203 q 523 1228 497 1203 q 554 1308 549 1252 l 660 1308 q 597 1164 652 1213 q 445 1115 542 1115 z "},"Û":{"ha":885,"x_min":81,"x_max":805,"o":"m 444 -13 q 239 28 319 -13 q 120 158 159 70 q 81 384 81 245 l 81 1028 l 251 1028 l 251 365 q 298 187 251 242 q 444 132 344 132 q 591 187 544 132 q 638 365 638 242 l 638 1028 l 805 1028 l 805 384 q 766 158 805 245 q 648 28 728 70 q 444 -13 569 -13 m 653 1111 l 533 1111 l 445 1252 l 356 1111 l 237 1111 l 372 1317 l 518 1317 l 653 1111 z "},"Ȕ":{"ha":885,"x_min":81,"x_max":805,"o":"m 444 -13 q 239 28 319 -13 q 120 158 159 70 q 81 384 81 245 l 81 1028 l 251 1028 l 251 365 q 298 187 251 242 q 444 132 344 132 q 591 187 544 132 q 638 365 638 242 l 638 1028 l 805 1028 l 805 384 q 766 158 805 245 q 648 28 728 70 q 444 -13 569 -13 m 258 1111 l 176 1317 l 315 1317 l 388 1111 l 258 1111 m 502 1111 l 420 1317 l 559 1317 l 631 1111 l 502 1111 z "},"Ü":{"ha":885,"x_min":81,"x_max":805,"o":"m 444 -13 q 239 28 319 -13 q 120 158 159 70 q 81 384 81 245 l 81 1028 l 251 1028 l 251 365 q 298 187 251 242 q 444 132 344 132 q 591 187 544 132 q 638 365 638 242 l 638 1028 l 805 1028 l 805 384 q 766 158 805 245 q 648 28 728 70 q 444 -13 569 -13 m 293 1128 q 221 1151 247 1128 q 194 1216 194 1174 q 221 1281 194 1258 q 293 1304 247 1304 q 366 1281 340 1304 q 392 1216 392 1258 q 366 1151 392 1174 q 293 1128 340 1128 m 597 1128 q 524 1151 550 1128 q 498 1216 498 1174 q 524 1281 498 1258 q 597 1304 550 1304 q 669 1281 642 1304 q 695 1216 695 1258 q 669 1151 695 1174 q 597 1128 642 1128 z "},"Ụ":{"ha":885,"x_min":81,"x_max":805,"o":"m 444 -13 q 239 28 319 -13 q 120 158 159 70 q 81 384 81 245 l 81 1028 l 251 1028 l 251 365 q 298 187 251 242 q 444 132 344 132 q 591 187 544 132 q 638 365 638 242 l 638 1028 l 805 1028 l 805 384 q 766 158 805 245 q 648 28 728 70 q 444 -13 569 -13 m 444 -274 q 364 -251 393 -274 q 335 -186 335 -229 q 365 -120 335 -143 q 444 -97 394 -97 q 525 -120 496 -97 q 554 -186 554 -143 q 525 -251 554 -229 q 444 -274 496 -274 z "},"Ù":{"ha":885,"x_min":81,"x_max":805,"o":"m 444 -13 q 239 28 319 -13 q 120 158 159 70 q 81 384 81 245 l 81 1028 l 251 1028 l 251 365 q 298 187 251 242 q 444 132 344 132 q 591 187 544 132 q 638 365 638 242 l 638 1028 l 805 1028 l 805 384 q 766 158 805 245 q 648 28 728 70 q 444 -13 569 -13 m 371 1111 l 242 1317 l 417 1317 l 519 1111 l 371 1111 z "},"Ủ":{"ha":885,"x_min":81,"x_max":805,"o":"m 444 -13 q 239 28 319 -13 q 120 158 159 70 q 81 384 81 245 l 81 1028 l 251 1028 l 251 365 q 298 187 251 242 q 444 132 344 132 q 591 187 544 132 q 638 365 638 242 l 638 1028 l 805 1028 l 805 384 q 766 158 805 245 q 648 28 728 70 q 444 -13 569 -13 m 399 1111 q 420 1160 401 1143 q 468 1192 438 1178 q 495 1209 488 1203 q 503 1225 503 1215 q 487 1247 503 1240 q 433 1255 471 1255 q 370 1250 403 1255 q 310 1235 338 1244 l 310 1308 q 373 1322 335 1316 q 446 1327 412 1327 q 601 1239 601 1327 q 593 1207 601 1220 q 573 1186 585 1194 q 542 1166 562 1178 q 505 1141 518 1153 q 490 1111 492 1129 l 399 1111 z "},"Ư":{"ha":889,"x_min":81,"x_max":934,"o":"m 444 -13 q 239 28 319 -13 q 120 158 159 70 q 81 384 81 245 l 81 1028 l 251 1028 l 251 365 q 298 187 251 242 q 444 132 344 132 q 591 187 544 132 q 638 365 638 242 l 638 1028 l 699 1028 q 782 1053 753 1028 q 810 1135 810 1078 q 797 1233 810 1183 l 919 1233 q 934 1126 934 1188 q 899 1008 934 1052 q 805 952 865 965 l 805 384 q 766 158 805 245 q 648 28 728 70 q 444 -13 569 -13 z "},"Ứ":{"ha":889,"x_min":81,"x_max":934,"o":"m 444 -13 q 239 28 319 -13 q 120 158 159 70 q 81 384 81 245 l 81 1028 l 251 1028 l 251 365 q 298 187 251 242 q 444 132 344 132 q 591 187 544 132 q 638 365 638 242 l 638 1028 l 699 1028 q 782 1053 753 1028 q 810 1135 810 1078 q 797 1233 810 1183 l 919 1233 q 934 1126 934 1188 q 899 1008 934 1052 q 805 952 865 965 l 805 384 q 766 158 805 245 q 648 28 728 70 q 444 -13 569 -13 m 369 1111 l 471 1317 l 646 1317 l 517 1111 l 369 1111 z "},"Ự":{"ha":889,"x_min":81,"x_max":934,"o":"m 444 -13 q 239 28 319 -13 q 120 158 159 70 q 81 384 81 245 l 81 1028 l 251 1028 l 251 365 q 298 187 251 242 q 444 132 344 132 q 591 187 544 132 q 638 365 638 242 l 638 1028 l 699 1028 q 782 1053 753 1028 q 810 1135 810 1078 q 797 1233 810 1183 l 919 1233 q 934 1126 934 1188 q 899 1008 934 1052 q 805 952 865 965 l 805 384 q 766 158 805 245 q 648 28 728 70 q 444 -13 569 -13 m 443 -274 q 363 -251 392 -274 q 334 -186 334 -229 q 363 -120 334 -143 q 443 -97 392 -97 q 524 -120 494 -97 q 553 -186 553 -143 q 524 -251 553 -229 q 443 -274 494 -274 z "},"Ừ":{"ha":889,"x_min":81,"x_max":934,"o":"m 444 -13 q 239 28 319 -13 q 120 158 159 70 q 81 384 81 245 l 81 1028 l 251 1028 l 251 365 q 298 187 251 242 q 444 132 344 132 q 591 187 544 132 q 638 365 638 242 l 638 1028 l 699 1028 q 782 1053 753 1028 q 810 1135 810 1078 q 797 1233 810 1183 l 919 1233 q 934 1126 934 1188 q 899 1008 934 1052 q 805 952 865 965 l 805 384 q 766 158 805 245 q 648 28 728 70 q 444 -13 569 -13 m 369 1111 l 241 1317 l 416 1317 l 517 1111 l 369 1111 z "},"Ử":{"ha":889,"x_min":81,"x_max":934,"o":"m 444 -13 q 239 28 319 -13 q 120 158 159 70 q 81 384 81 245 l 81 1028 l 251 1028 l 251 365 q 298 187 251 242 q 444 132 344 132 q 591 187 544 132 q 638 365 638 242 l 638 1028 l 699 1028 q 782 1053 753 1028 q 810 1135 810 1078 q 797 1233 810 1183 l 919 1233 q 934 1126 934 1188 q 899 1008 934 1052 q 805 952 865 965 l 805 384 q 766 158 805 245 q 648 28 728 70 q 444 -13 569 -13 m 398 1111 q 418 1160 400 1143 q 467 1192 437 1178 q 494 1209 486 1203 q 502 1225 502 1215 q 486 1247 502 1240 q 431 1255 469 1255 q 369 1250 401 1255 q 308 1235 336 1244 l 308 1308 q 372 1322 333 1316 q 444 1327 410 1327 q 599 1239 599 1327 q 591 1207 599 1220 q 572 1186 583 1194 q 541 1166 560 1178 q 504 1141 517 1153 q 488 1111 491 1129 l 398 1111 z "},"Ữ":{"ha":889,"x_min":81,"x_max":934,"o":"m 444 -13 q 239 28 319 -13 q 120 158 159 70 q 81 384 81 245 l 81 1028 l 251 1028 l 251 365 q 298 187 251 242 q 444 132 344 132 q 591 187 544 132 q 638 365 638 242 l 638 1028 l 699 1028 q 782 1053 753 1028 q 810 1135 810 1078 q 797 1233 810 1183 l 919 1233 q 934 1126 934 1188 q 899 1008 934 1052 q 805 952 865 965 l 805 384 q 766 158 805 245 q 648 28 728 70 q 444 -13 569 -13 m 548 1136 q 494 1143 519 1136 q 433 1165 469 1151 q 380 1185 401 1178 q 337 1191 359 1191 q 273 1178 301 1191 q 218 1140 246 1166 l 218 1249 q 270 1286 241 1274 q 338 1298 299 1298 q 393 1290 367 1298 q 454 1268 419 1283 q 507 1249 485 1255 q 550 1242 528 1242 q 614 1255 586 1242 q 669 1294 641 1267 l 669 1184 q 617 1148 646 1160 q 548 1136 588 1136 z "},"Ű":{"ha":885,"x_min":81,"x_max":805,"o":"m 444 -13 q 239 28 319 -13 q 120 158 159 70 q 81 384 81 245 l 81 1028 l 251 1028 l 251 365 q 298 187 251 242 q 444 132 344 132 q 591 187 544 132 q 638 365 638 242 l 638 1028 l 805 1028 l 805 384 q 766 158 805 245 q 648 28 728 70 q 444 -13 569 -13 m 258 1111 l 331 1317 l 469 1317 l 388 1111 l 258 1111 m 502 1111 l 575 1317 l 713 1317 l 631 1111 l 502 1111 z "},"Ȗ":{"ha":885,"x_min":81,"x_max":805,"o":"m 444 -13 q 239 28 319 -13 q 120 158 159 70 q 81 384 81 245 l 81 1028 l 251 1028 l 251 365 q 298 187 251 242 q 444 132 344 132 q 591 187 544 132 q 638 365 638 242 l 638 1028 l 805 1028 l 805 384 q 766 158 805 245 q 648 28 728 70 q 444 -13 569 -13 m 230 1119 q 293 1263 238 1214 q 444 1313 348 1313 q 596 1263 540 1313 q 660 1119 652 1214 l 554 1119 q 521 1199 547 1175 q 444 1224 495 1224 q 367 1199 393 1224 q 335 1119 341 1175 l 230 1119 z "},"Ū":{"ha":885,"x_min":81,"x_max":805,"o":"m 444 -13 q 239 28 319 -13 q 120 158 159 70 q 81 384 81 245 l 81 1028 l 251 1028 l 251 365 q 298 187 251 242 q 444 132 344 132 q 591 187 544 132 q 638 365 638 242 l 638 1028 l 805 1028 l 805 384 q 766 158 805 245 q 648 28 728 70 q 444 -13 569 -13 m 226 1158 l 226 1270 l 663 1270 l 663 1158 l 226 1158 z "},"Ṻ":{"ha":885,"x_min":81,"x_max":805,"o":"m 444 -13 q 239 28 319 -13 q 120 158 159 70 q 81 384 81 245 l 81 1028 l 251 1028 l 251 365 q 298 187 251 242 q 444 132 344 132 q 591 187 544 132 q 638 365 638 242 l 638 1028 l 805 1028 l 805 384 q 766 158 805 245 q 648 28 728 70 q 444 -13 569 -13 m 226 1158 l 226 1270 l 663 1270 l 663 1158 l 226 1158 m 293 1364 q 221 1387 247 1364 q 194 1452 194 1410 q 221 1517 194 1494 q 293 1540 247 1540 q 366 1517 340 1540 q 392 1452 392 1494 q 366 1387 392 1410 q 293 1364 340 1364 m 597 1364 q 524 1387 550 1364 q 498 1452 498 1410 q 524 1517 498 1494 q 597 1540 550 1540 q 669 1517 642 1540 q 695 1452 695 1494 q 669 1387 695 1410 q 597 1364 642 1364 z "},"Ų":{"ha":885,"x_min":81,"x_max":805,"o":"m 805 1028 l 805 384 q 757 138 805 231 q 605 10 709 45 q 466 -66 503 -25 q 429 -153 429 -108 q 452 -208 429 -190 q 522 -226 474 -226 q 617 -203 565 -226 l 617 -277 q 502 -301 563 -301 q 373 -265 417 -301 q 329 -163 329 -229 q 350 -82 329 -119 q 419 -12 372 -45 q 163 89 246 -7 q 81 384 81 184 l 81 1028 l 251 1028 l 251 365 q 298 187 251 242 q 444 132 344 132 q 591 187 544 132 q 638 365 638 242 l 638 1028 l 805 1028 z "},"Ů":{"ha":885,"x_min":81,"x_max":805,"o":"m 444 -13 q 239 28 319 -13 q 120 158 159 70 q 81 384 81 245 l 81 1028 l 251 1028 l 251 365 q 298 187 251 242 q 444 132 344 132 q 591 187 544 132 q 638 365 638 242 l 638 1028 l 805 1028 l 805 384 q 766 158 805 245 q 648 28 728 70 q 444 -13 569 -13 m 444 1103 q 370 1121 403 1103 q 319 1172 338 1140 q 300 1244 300 1204 q 319 1317 300 1285 q 370 1368 338 1349 q 444 1386 403 1386 q 519 1368 486 1386 q 571 1317 552 1349 q 590 1244 590 1285 q 571 1172 590 1204 q 519 1121 552 1140 q 444 1103 486 1103 m 444 1172 q 496 1191 476 1172 q 515 1244 515 1211 q 495 1297 515 1278 q 444 1317 476 1317 q 394 1297 413 1317 q 374 1244 374 1277 q 394 1191 374 1211 q 444 1172 413 1172 z "},"Ũ":{"ha":885,"x_min":81,"x_max":805,"o":"m 444 -13 q 239 28 319 -13 q 120 158 159 70 q 81 384 81 245 l 81 1028 l 251 1028 l 251 365 q 298 187 251 242 q 444 132 344 132 q 591 187 544 132 q 638 365 638 242 l 638 1028 l 805 1028 l 805 384 q 766 158 805 245 q 648 28 728 70 q 444 -13 569 -13 m 549 1136 q 495 1143 520 1136 q 434 1165 471 1151 q 382 1185 403 1178 q 338 1191 360 1191 q 275 1178 302 1191 q 219 1140 247 1166 l 219 1249 q 272 1286 242 1274 q 340 1298 301 1298 q 395 1290 369 1298 q 456 1268 421 1283 q 508 1249 487 1255 q 551 1242 529 1242 q 615 1255 588 1242 q 670 1294 642 1267 l 670 1184 q 618 1148 647 1160 q 549 1136 589 1136 z "},"Ṹ":{"ha":885,"x_min":81,"x_max":805,"o":"m 444 -13 q 239 28 319 -13 q 120 158 159 70 q 81 384 81 245 l 81 1028 l 251 1028 l 251 365 q 298 187 251 242 q 444 132 344 132 q 591 187 544 132 q 638 365 638 242 l 638 1028 l 805 1028 l 805 384 q 766 158 805 245 q 648 28 728 70 q 444 -13 569 -13 m 364 1347 l 465 1508 l 654 1508 l 526 1347 l 364 1347 m 549 1136 q 495 1143 520 1136 q 434 1165 471 1151 q 382 1185 403 1178 q 338 1191 360 1191 q 275 1178 302 1191 q 219 1140 247 1166 l 219 1249 q 272 1286 242 1274 q 340 1298 301 1298 q 395 1290 369 1298 q 456 1268 421 1283 q 508 1249 487 1255 q 551 1242 529 1242 q 615 1255 588 1242 q 670 1294 642 1267 l 670 1184 q 618 1148 647 1160 q 549 1136 589 1136 z "},"V":{"ha":832,"x_min":-3,"x_max":835,"o":"m 672 1028 l 835 1028 l 544 0 l 287 0 l -3 1028 l 172 1028 l 420 131 l 672 1028 z "},"W":{"ha":1328,"x_min":19,"x_max":1309,"o":"m 1148 1028 l 1309 1028 l 1074 0 l 851 0 l 669 814 l 476 0 l 253 0 l 19 1028 l 192 1028 l 378 174 l 574 1028 l 765 1028 l 956 167 l 1148 1028 z "},"Ẃ":{"ha":1328,"x_min":19,"x_max":1309,"o":"m 1148 1028 l 1309 1028 l 1074 0 l 851 0 l 669 814 l 476 0 l 253 0 l 19 1028 l 192 1028 l 378 174 l 574 1028 l 765 1028 l 956 167 l 1148 1028 m 591 1111 l 692 1317 l 867 1317 l 739 1111 l 591 1111 z "},"Ŵ":{"ha":1328,"x_min":19,"x_max":1309,"o":"m 1148 1028 l 1309 1028 l 1074 0 l 851 0 l 669 814 l 476 0 l 253 0 l 19 1028 l 192 1028 l 378 174 l 574 1028 l 765 1028 l 956 167 l 1148 1028 m 873 1111 l 753 1111 l 665 1252 l 576 1111 l 457 1111 l 592 1317 l 738 1317 l 873 1111 z "},"Ẅ":{"ha":1328,"x_min":19,"x_max":1309,"o":"m 1148 1028 l 1309 1028 l 1074 0 l 851 0 l 669 814 l 476 0 l 253 0 l 19 1028 l 192 1028 l 378 174 l 574 1028 l 765 1028 l 956 167 l 1148 1028 m 513 1128 q 441 1151 467 1128 q 415 1216 415 1174 q 441 1281 415 1258 q 513 1304 467 1304 q 586 1281 560 1304 q 612 1216 612 1258 q 586 1151 612 1174 q 513 1128 560 1128 m 817 1128 q 744 1151 770 1128 q 718 1216 718 1174 q 744 1281 718 1258 q 817 1304 770 1304 q 889 1281 863 1304 q 915 1216 915 1258 q 889 1151 915 1174 q 817 1128 863 1128 z "},"Ẁ":{"ha":1328,"x_min":19,"x_max":1309,"o":"m 1148 1028 l 1309 1028 l 1074 0 l 851 0 l 669 814 l 476 0 l 253 0 l 19 1028 l 192 1028 l 378 174 l 574 1028 l 765 1028 l 956 167 l 1148 1028 m 591 1111 l 463 1317 l 638 1317 l 739 1111 l 591 1111 z "},"X":{"ha":828,"x_min":-10,"x_max":835,"o":"m 513 531 l 835 0 l 649 0 l 414 392 l 178 0 l -10 0 l 315 530 l 11 1028 l 199 1028 l 414 671 l 629 1028 l 814 1028 l 513 531 z "},"Y":{"ha":759,"x_min":-34,"x_max":788,"o":"m 788 1028 l 465 444 l 465 0 l 294 0 l 294 443 l -34 1028 l 146 1028 l 384 600 l 622 1028 l 788 1028 z "},"Ý":{"ha":759,"x_min":-34,"x_max":788,"o":"m 788 1028 l 465 444 l 465 0 l 294 0 l 294 443 l -34 1028 l 146 1028 l 384 600 l 622 1028 l 788 1028 m 307 1111 l 408 1317 l 583 1317 l 455 1111 l 307 1111 z "},"Ŷ":{"ha":759,"x_min":-34,"x_max":788,"o":"m 788 1028 l 465 444 l 465 0 l 294 0 l 294 443 l -34 1028 l 146 1028 l 384 600 l 622 1028 l 788 1028 m 589 1111 l 469 1111 l 381 1252 l 292 1111 l 173 1111 l 308 1317 l 454 1317 l 589 1111 z "},"Ÿ":{"ha":759,"x_min":-34,"x_max":788,"o":"m 788 1028 l 465 444 l 465 0 l 294 0 l 294 443 l -34 1028 l 146 1028 l 384 600 l 622 1028 l 788 1028 m 229 1128 q 157 1151 183 1128 q 131 1216 131 1174 q 157 1281 131 1258 q 229 1304 183 1304 q 302 1281 276 1304 q 328 1216 328 1258 q 302 1151 328 1174 q 229 1128 276 1128 m 533 1128 q 460 1151 486 1128 q 434 1216 434 1174 q 460 1281 434 1258 q 533 1304 486 1304 q 605 1281 578 1304 q 631 1216 631 1258 q 605 1151 631 1174 q 533 1128 578 1128 z "},"Ẏ":{"ha":759,"x_min":-34,"x_max":788,"o":"m 788 1028 l 465 444 l 465 0 l 294 0 l 294 443 l -34 1028 l 146 1028 l 384 600 l 622 1028 l 788 1028 m 381 1128 q 301 1150 330 1128 q 272 1216 272 1173 q 301 1282 272 1259 q 381 1304 330 1304 q 461 1282 432 1304 q 490 1216 490 1259 q 461 1150 490 1173 q 381 1128 432 1128 z "},"Ỵ":{"ha":759,"x_min":-34,"x_max":788,"o":"m 788 1028 l 465 444 l 465 0 l 294 0 l 294 443 l -34 1028 l 146 1028 l 384 600 l 622 1028 l 788 1028 m 380 -274 q 300 -251 328 -274 q 271 -186 271 -229 q 300 -120 271 -143 q 380 -97 329 -97 q 460 -120 431 -97 q 490 -186 490 -143 q 460 -251 490 -229 q 380 -274 431 -274 z "},"Ỳ":{"ha":759,"x_min":-34,"x_max":788,"o":"m 788 1028 l 465 444 l 465 0 l 294 0 l 294 443 l -34 1028 l 146 1028 l 384 600 l 622 1028 l 788 1028 m 307 1111 l 178 1317 l 353 1317 l 455 1111 l 307 1111 z "},"Ỷ":{"ha":759,"x_min":-34,"x_max":788,"o":"m 788 1028 l 465 444 l 465 0 l 294 0 l 294 443 l -34 1028 l 146 1028 l 384 600 l 622 1028 l 788 1028 m 335 1111 q 356 1160 338 1143 q 404 1192 374 1178 q 432 1209 424 1203 q 440 1225 440 1215 q 423 1247 440 1240 q 369 1255 407 1255 q 306 1250 339 1255 q 246 1235 274 1244 l 246 1308 q 309 1322 271 1316 q 382 1327 348 1327 q 537 1239 537 1327 q 529 1207 537 1220 q 509 1186 521 1194 q 478 1166 498 1178 q 441 1141 454 1153 q 426 1111 428 1129 l 335 1111 z "},"Ȳ":{"ha":759,"x_min":-34,"x_max":788,"o":"m 788 1028 l 465 444 l 465 0 l 294 0 l 294 443 l -34 1028 l 146 1028 l 384 600 l 622 1028 l 788 1028 m 163 1158 l 163 1270 l 599 1270 l 599 1158 l 163 1158 z "},"Ỹ":{"ha":759,"x_min":-34,"x_max":788,"o":"m 788 1028 l 465 444 l 465 0 l 294 0 l 294 443 l -34 1028 l 146 1028 l 384 600 l 622 1028 l 788 1028 m 485 1136 q 432 1143 456 1136 q 370 1165 407 1151 q 318 1185 339 1178 q 274 1191 297 1191 q 211 1178 238 1191 q 156 1140 183 1166 l 156 1249 q 208 1286 178 1274 q 276 1298 237 1298 q 331 1290 305 1298 q 392 1268 357 1283 q 444 1249 423 1255 q 488 1242 465 1242 q 551 1255 524 1242 q 606 1294 578 1267 l 606 1184 q 554 1148 583 1160 q 485 1136 525 1136 z "},"Z":{"ha":722,"x_min":30,"x_max":692,"o":"m 251 151 l 692 151 l 692 0 l 30 0 l 30 96 l 464 876 l 37 876 l 37 1028 l 685 1028 l 685 932 l 251 151 z "},"Ź":{"ha":722,"x_min":30,"x_max":692,"o":"m 251 151 l 692 151 l 692 0 l 30 0 l 30 96 l 464 876 l 37 876 l 37 1028 l 685 1028 l 685 932 l 251 151 m 288 1111 l 390 1317 l 565 1317 l 436 1111 l 288 1111 z "},"Ž":{"ha":722,"x_min":30,"x_max":692,"o":"m 251 151 l 692 151 l 692 0 l 30 0 l 30 96 l 464 876 l 37 876 l 37 1028 l 685 1028 l 685 932 l 251 151 m 451 1317 l 570 1317 l 435 1111 l 289 1111 l 154 1317 l 274 1317 l 363 1175 l 451 1317 z "},"Ż":{"ha":722,"x_min":30,"x_max":692,"o":"m 251 151 l 692 151 l 692 0 l 30 0 l 30 96 l 464 876 l 37 876 l 37 1028 l 685 1028 l 685 932 l 251 151 m 362 1128 q 282 1150 311 1128 q 253 1216 253 1173 q 282 1282 253 1259 q 362 1304 311 1304 q 442 1282 413 1304 q 472 1216 472 1259 q 442 1150 472 1173 q 362 1128 413 1128 z "},"Ẓ":{"ha":722,"x_min":30,"x_max":692,"o":"m 251 151 l 692 151 l 692 0 l 30 0 l 30 96 l 464 876 l 37 876 l 37 1028 l 685 1028 l 685 932 l 251 151 m 358 -274 q 278 -251 307 -274 q 249 -186 249 -229 q 278 -120 249 -143 q 358 -97 308 -97 q 439 -120 410 -97 q 468 -186 468 -143 q 439 -251 468 -229 q 358 -274 410 -274 z "},"a":{"ha":651,"x_min":38,"x_max":581,"o":"m 294 769 q 457 742 394 769 q 550 652 519 715 q 581 483 581 589 l 581 0 l 443 0 l 431 81 l 422 81 q 349 10 394 33 q 246 -13 304 -13 q 137 13 184 -13 q 64 86 90 38 q 38 200 38 135 q 102 366 38 308 q 306 435 167 425 l 417 446 l 417 490 q 402 575 417 544 q 353 619 386 606 q 264 633 319 633 q 177 625 224 633 q 87 604 131 618 l 87 741 q 188 762 131 754 q 294 769 244 769 m 301 115 q 364 129 333 115 q 417 178 394 144 l 417 342 l 324 333 q 203 219 203 323 q 228 141 203 167 q 301 115 254 115 z "},"á":{"ha":651,"x_min":38,"x_max":581,"o":"m 294 769 q 457 742 394 769 q 550 652 519 715 q 581 483 581 589 l 581 0 l 443 0 l 431 81 l 422 81 q 349 10 394 33 q 246 -13 304 -13 q 137 13 184 -13 q 64 86 90 38 q 38 200 38 135 q 102 366 38 308 q 306 435 167 425 l 417 446 l 417 490 q 402 575 417 544 q 353 619 386 606 q 264 633 319 633 q 177 625 224 633 q 87 604 131 618 l 87 741 q 188 762 131 754 q 294 769 244 769 m 301 115 q 364 129 333 115 q 417 178 394 144 l 417 342 l 324 333 q 203 219 203 323 q 228 141 203 167 q 301 115 254 115 m 251 861 l 376 1122 l 547 1122 l 396 861 l 251 861 z "},"ă":{"ha":651,"x_min":38,"x_max":581,"o":"m 294 769 q 457 742 394 769 q 550 652 519 715 q 581 483 581 589 l 581 0 l 443 0 l 431 81 l 422 81 q 349 10 394 33 q 246 -13 304 -13 q 137 13 184 -13 q 64 86 90 38 q 38 200 38 135 q 102 366 38 308 q 306 435 167 425 l 417 446 l 417 490 q 402 575 417 544 q 353 619 386 606 q 264 633 319 633 q 177 625 224 633 q 87 604 131 618 l 87 741 q 188 762 131 754 q 294 769 244 769 m 301 115 q 364 129 333 115 q 417 178 394 144 l 417 342 l 324 333 q 203 219 203 323 q 228 141 203 167 q 301 115 254 115 m 324 869 q 178 928 233 869 q 119 1106 124 986 l 225 1106 q 253 996 228 1030 q 324 962 278 962 q 394 996 369 962 q 422 1106 419 1030 l 528 1106 q 469 927 522 985 q 324 869 415 869 z "},"ắ":{"ha":651,"x_min":38,"x_max":581,"o":"m 294 769 q 457 742 394 769 q 550 652 519 715 q 581 483 581 589 l 581 0 l 443 0 l 431 81 l 422 81 q 349 10 394 33 q 246 -13 304 -13 q 137 13 184 -13 q 64 86 90 38 q 38 200 38 135 q 102 366 38 308 q 306 435 167 425 l 417 446 l 417 490 q 402 575 417 544 q 353 619 386 606 q 264 633 319 633 q 177 625 224 633 q 87 604 131 618 l 87 741 q 188 762 131 754 q 294 769 244 769 m 301 115 q 364 129 333 115 q 417 178 394 144 l 417 342 l 324 333 q 203 219 203 323 q 228 141 203 167 q 301 115 254 115 m 265 1109 l 367 1297 l 510 1297 l 381 1109 l 265 1109 m 324 869 q 176 925 231 869 q 115 1088 122 981 l 220 1088 q 251 988 226 1019 q 324 958 276 958 q 396 988 371 958 q 426 1088 422 1019 l 532 1088 q 471 925 525 981 q 324 869 417 869 z "},"ặ":{"ha":651,"x_min":38,"x_max":581,"o":"m 294 769 q 457 742 394 769 q 550 652 519 715 q 581 483 581 589 l 581 0 l 443 0 l 431 81 l 422 81 q 349 10 394 33 q 246 -13 304 -13 q 137 13 184 -13 q 64 86 90 38 q 38 200 38 135 q 102 366 38 308 q 306 435 167 425 l 417 446 l 417 490 q 402 575 417 544 q 353 619 386 606 q 264 633 319 633 q 177 625 224 633 q 87 604 131 618 l 87 741 q 188 762 131 754 q 294 769 244 769 m 301 115 q 364 129 333 115 q 417 178 394 144 l 417 342 l 324 333 q 203 219 203 323 q 228 141 203 167 q 301 115 254 115 m 324 -287 q 254 -262 280 -287 q 228 -193 228 -237 q 254 -123 228 -149 q 324 -97 281 -97 q 395 -123 369 -97 q 422 -193 422 -149 q 395 -262 422 -237 q 324 -287 369 -287 m 324 869 q 178 928 233 869 q 119 1106 124 986 l 225 1106 q 253 996 228 1030 q 324 962 278 962 q 394 996 369 962 q 422 1106 419 1030 l 528 1106 q 469 927 522 985 q 324 869 415 869 z "},"ằ":{"ha":651,"x_min":38,"x_max":581,"o":"m 294 769 q 457 742 394 769 q 550 652 519 715 q 581 483 581 589 l 581 0 l 443 0 l 431 81 l 422 81 q 349 10 394 33 q 246 -13 304 -13 q 137 13 184 -13 q 64 86 90 38 q 38 200 38 135 q 102 366 38 308 q 306 435 167 425 l 417 446 l 417 490 q 402 575 417 544 q 353 619 386 606 q 264 633 319 633 q 177 625 224 633 q 87 604 131 618 l 87 741 q 188 762 131 754 q 294 769 244 769 m 301 115 q 364 129 333 115 q 417 178 394 144 l 417 342 l 324 333 q 203 219 203 323 q 228 141 203 167 q 301 115 254 115 m 265 1109 l 137 1297 l 280 1297 l 381 1109 l 265 1109 m 324 869 q 176 925 231 869 q 115 1088 122 981 l 220 1088 q 251 988 226 1019 q 324 958 276 958 q 396 988 371 958 q 426 1088 422 1019 l 532 1088 q 471 925 525 981 q 324 869 417 869 z "},"ẳ":{"ha":651,"x_min":38,"x_max":581,"o":"m 294 769 q 457 742 394 769 q 550 652 519 715 q 581 483 581 589 l 581 0 l 443 0 l 431 81 l 422 81 q 349 10 394 33 q 246 -13 304 -13 q 137 13 184 -13 q 64 86 90 38 q 38 200 38 135 q 102 366 38 308 q 306 435 167 425 l 417 446 l 417 490 q 402 575 417 544 q 353 619 386 606 q 264 633 319 633 q 177 625 224 633 q 87 604 131 618 l 87 741 q 188 762 131 754 q 294 769 244 769 m 301 115 q 364 129 333 115 q 417 178 394 144 l 417 342 l 324 333 q 203 219 203 323 q 228 141 203 167 q 301 115 254 115 m 278 1109 q 298 1155 280 1139 q 346 1184 315 1170 q 374 1200 365 1194 q 382 1215 382 1206 q 366 1235 382 1228 q 311 1242 349 1242 q 249 1238 281 1242 q 188 1224 216 1233 l 188 1288 q 251 1302 213 1297 q 324 1307 290 1307 q 479 1226 479 1307 q 465 1188 479 1202 q 421 1160 450 1174 q 383 1136 396 1147 q 368 1109 371 1126 l 278 1109 m 324 869 q 176 925 231 869 q 115 1088 122 981 l 220 1088 q 251 988 226 1019 q 324 958 276 958 q 396 988 371 958 q 426 1088 422 1019 l 532 1088 q 471 925 525 981 q 324 869 417 869 z "},"ẵ":{"ha":651,"x_min":38,"x_max":581,"o":"m 294 769 q 457 742 394 769 q 550 652 519 715 q 581 483 581 589 l 581 0 l 443 0 l 431 81 l 422 81 q 349 10 394 33 q 246 -13 304 -13 q 137 13 184 -13 q 64 86 90 38 q 38 200 38 135 q 102 366 38 308 q 306 435 167 425 l 417 446 l 417 490 q 402 575 417 544 q 353 619 386 606 q 264 633 319 633 q 177 625 224 633 q 87 604 131 618 l 87 741 q 188 762 131 754 q 294 769 244 769 m 301 115 q 364 129 333 115 q 417 178 394 144 l 417 342 l 324 333 q 203 219 203 323 q 228 141 203 167 q 301 115 254 115 m 424 1133 q 372 1140 396 1133 q 313 1160 347 1147 q 261 1178 281 1173 q 222 1184 242 1184 q 160 1173 187 1184 q 106 1137 133 1161 l 106 1233 q 156 1268 128 1256 q 223 1279 185 1279 q 276 1272 251 1279 q 334 1251 301 1265 q 385 1233 366 1239 q 425 1228 404 1228 q 487 1239 460 1228 q 541 1275 514 1251 l 541 1178 q 490 1144 519 1155 q 424 1133 462 1133 m 324 869 q 176 925 231 869 q 115 1088 122 981 l 220 1088 q 251 988 226 1019 q 324 958 276 958 q 396 988 371 958 q 426 1088 422 1019 l 532 1088 q 471 925 525 981 q 324 869 417 869 z "},"â":{"ha":651,"x_min":38,"x_max":581,"o":"m 294 769 q 457 742 394 769 q 550 652 519 715 q 581 483 581 589 l 581 0 l 443 0 l 431 81 l 422 81 q 349 10 394 33 q 246 -13 304 -13 q 137 13 184 -13 q 64 86 90 38 q 38 200 38 135 q 102 366 38 308 q 306 435 167 425 l 417 446 l 417 490 q 402 575 417 544 q 353 619 386 606 q 264 633 319 633 q 177 625 224 633 q 87 604 131 618 l 87 741 q 188 762 131 754 q 294 769 244 769 m 301 115 q 364 129 333 115 q 417 178 394 144 l 417 342 l 324 333 q 203 219 203 323 q 228 141 203 167 q 301 115 254 115 m 525 861 l 408 861 l 324 1044 l 239 861 l 122 861 l 250 1122 l 397 1122 l 525 861 z "},"ấ":{"ha":651,"x_min":38,"x_max":711,"o":"m 294 769 q 457 742 394 769 q 550 652 519 715 q 581 483 581 589 l 581 0 l 443 0 l 431 81 l 422 81 q 349 10 394 33 q 246 -13 304 -13 q 137 13 184 -13 q 64 86 90 38 q 38 200 38 135 q 102 366 38 308 q 306 435 167 425 l 417 446 l 417 490 q 402 575 417 544 q 353 619 386 606 q 264 633 319 633 q 177 625 224 633 q 87 604 131 618 l 87 741 q 188 762 131 754 q 294 769 244 769 m 301 115 q 364 129 333 115 q 417 178 394 144 l 417 342 l 324 333 q 203 219 203 323 q 228 141 203 167 q 301 115 254 115 m 568 1297 l 711 1297 l 583 1109 l 467 1109 l 568 1297 m 250 1122 l 397 1122 l 525 861 l 408 861 l 324 1044 l 239 861 l 122 861 l 250 1122 z "},"ậ":{"ha":651,"x_min":38,"x_max":581,"o":"m 294 769 q 457 742 394 769 q 550 652 519 715 q 581 483 581 589 l 581 0 l 443 0 l 431 81 l 422 81 q 349 10 394 33 q 246 -13 304 -13 q 137 13 184 -13 q 64 86 90 38 q 38 200 38 135 q 102 366 38 308 q 306 435 167 425 l 417 446 l 417 490 q 402 575 417 544 q 353 619 386 606 q 264 633 319 633 q 177 625 224 633 q 87 604 131 618 l 87 741 q 188 762 131 754 q 294 769 244 769 m 301 115 q 364 129 333 115 q 417 178 394 144 l 417 342 l 324 333 q 203 219 203 323 q 228 141 203 167 q 301 115 254 115 m 324 -287 q 254 -262 280 -287 q 228 -193 228 -237 q 254 -123 228 -149 q 324 -97 281 -97 q 395 -123 369 -97 q 422 -193 422 -149 q 395 -262 422 -237 q 324 -287 369 -287 m 525 861 l 408 861 l 324 1044 l 239 861 l 122 861 l 250 1122 l 397 1122 l 525 861 z "},"ầ":{"ha":651,"x_min":38,"x_max":598,"o":"m 294 769 q 457 742 394 769 q 550 652 519 715 q 581 483 581 589 l 581 0 l 443 0 l 431 81 l 422 81 q 349 10 394 33 q 246 -13 304 -13 q 137 13 184 -13 q 64 86 90 38 q 38 200 38 135 q 102 366 38 308 q 306 435 167 425 l 417 446 l 417 490 q 402 575 417 544 q 353 619 386 606 q 264 633 319 633 q 177 625 224 633 q 87 604 131 618 l 87 741 q 188 762 131 754 q 294 769 244 769 m 301 115 q 364 129 333 115 q 417 178 394 144 l 417 342 l 324 333 q 203 219 203 323 q 228 141 203 167 q 301 115 254 115 m 598 1109 l 482 1109 l 353 1297 l 497 1297 l 598 1109 m 250 1122 l 397 1122 l 525 861 l 408 861 l 324 1044 l 239 861 l 122 861 l 250 1122 z "},"ẩ":{"ha":651,"x_min":38,"x_max":660,"o":"m 294 769 q 457 742 394 769 q 550 652 519 715 q 581 483 581 589 l 581 0 l 443 0 l 431 81 l 422 81 q 349 10 394 33 q 246 -13 304 -13 q 137 13 184 -13 q 64 86 90 38 q 38 200 38 135 q 102 366 38 308 q 306 435 167 425 l 417 446 l 417 490 q 402 575 417 544 q 353 619 386 606 q 264 633 319 633 q 177 625 224 633 q 87 604 131 618 l 87 741 q 188 762 131 754 q 294 769 244 769 m 301 115 q 364 129 333 115 q 417 178 394 144 l 417 342 l 324 333 q 203 219 203 323 q 228 141 203 167 q 301 115 254 115 m 504 1307 q 660 1226 660 1307 q 645 1188 660 1202 q 601 1160 631 1174 q 564 1137 577 1147 q 549 1109 551 1126 l 458 1109 q 478 1155 460 1139 q 526 1184 496 1170 q 554 1200 546 1194 q 563 1215 563 1206 q 492 1242 563 1242 q 429 1238 462 1242 q 369 1224 397 1233 l 369 1288 q 432 1302 394 1297 q 504 1307 470 1307 m 250 1122 l 397 1122 l 525 861 l 408 861 l 324 1044 l 239 861 l 122 861 l 250 1122 z "},"ẫ":{"ha":651,"x_min":38,"x_max":581,"o":"m 294 769 q 457 742 394 769 q 550 652 519 715 q 581 483 581 589 l 581 0 l 443 0 l 431 81 l 422 81 q 349 10 394 33 q 246 -13 304 -13 q 137 13 184 -13 q 64 86 90 38 q 38 200 38 135 q 102 366 38 308 q 306 435 167 425 l 417 446 l 417 490 q 402 575 417 544 q 353 619 386 606 q 264 633 319 633 q 177 625 224 633 q 87 604 131 618 l 87 741 q 188 762 131 754 q 294 769 244 769 m 301 115 q 364 129 333 115 q 417 178 394 144 l 417 342 l 324 333 q 203 219 203 323 q 228 141 203 167 q 301 115 254 115 m 426 1228 q 489 1239 462 1228 q 544 1275 517 1251 l 544 1178 q 493 1144 522 1155 q 425 1133 464 1133 q 372 1140 397 1133 q 313 1160 347 1147 q 262 1178 283 1172 q 220 1184 241 1184 q 157 1173 185 1184 q 101 1137 130 1161 l 101 1234 q 154 1268 125 1256 q 222 1279 183 1279 q 276 1272 250 1279 q 334 1251 301 1265 q 386 1233 367 1239 q 426 1228 406 1228 m 250 1092 l 397 1092 l 525 862 l 408 862 l 324 1026 l 239 862 l 122 862 l 250 1092 z "},"ȁ":{"ha":651,"x_min":38,"x_max":581,"o":"m 294 769 q 457 742 394 769 q 550 652 519 715 q 581 483 581 589 l 581 0 l 443 0 l 431 81 l 422 81 q 349 10 394 33 q 246 -13 304 -13 q 137 13 184 -13 q 64 86 90 38 q 38 200 38 135 q 102 366 38 308 q 306 435 167 425 l 417 446 l 417 490 q 402 575 417 544 q 353 619 386 606 q 264 633 319 633 q 177 625 224 633 q 87 604 131 618 l 87 741 q 188 762 131 754 q 294 769 244 769 m 301 115 q 364 129 333 115 q 417 178 394 144 l 417 342 l 324 333 q 203 219 203 323 q 228 141 203 167 q 301 115 254 115 m 137 861 l 47 1122 l 186 1122 l 266 861 l 137 861 m 381 861 l 291 1122 l 431 1122 l 510 861 l 381 861 z "},"ä":{"ha":651,"x_min":38,"x_max":581,"o":"m 294 769 q 457 742 394 769 q 550 652 519 715 q 581 483 581 589 l 581 0 l 443 0 l 431 81 l 422 81 q 349 10 394 33 q 246 -13 304 -13 q 137 13 184 -13 q 64 86 90 38 q 38 200 38 135 q 102 366 38 308 q 306 435 167 425 l 417 446 l 417 490 q 402 575 417 544 q 353 619 386 606 q 264 633 319 633 q 177 625 224 633 q 87 604 131 618 l 87 741 q 188 762 131 754 q 294 769 244 769 m 301 115 q 364 129 333 115 q 417 178 394 144 l 417 342 l 324 333 q 203 219 203 323 q 228 141 203 167 q 301 115 254 115 m 181 891 q 110 917 137 891 q 84 986 84 942 q 110 1056 84 1030 q 181 1081 137 1081 q 251 1056 225 1081 q 278 986 278 1030 q 251 917 278 942 q 181 891 225 891 m 465 891 q 395 917 422 891 q 369 986 369 942 q 395 1056 369 1030 q 465 1081 422 1081 q 536 1056 510 1081 q 563 986 563 1030 q 536 917 563 942 q 465 891 510 891 z "},"ạ":{"ha":651,"x_min":38,"x_max":581,"o":"m 294 769 q 457 742 394 769 q 550 652 519 715 q 581 483 581 589 l 581 0 l 443 0 l 431 81 l 422 81 q 349 10 394 33 q 246 -13 304 -13 q 137 13 184 -13 q 64 86 90 38 q 38 200 38 135 q 102 366 38 308 q 306 435 167 425 l 417 446 l 417 490 q 402 575 417 544 q 353 619 386 606 q 264 633 319 633 q 177 625 224 633 q 87 604 131 618 l 87 741 q 188 762 131 754 q 294 769 244 769 m 301 115 q 364 129 333 115 q 417 178 394 144 l 417 342 l 324 333 q 203 219 203 323 q 228 141 203 167 q 301 115 254 115 m 324 -287 q 254 -262 280 -287 q 228 -193 228 -237 q 254 -123 228 -149 q 324 -97 281 -97 q 395 -123 369 -97 q 422 -193 422 -149 q 395 -262 422 -237 q 324 -287 369 -287 z "},"à":{"ha":651,"x_min":38,"x_max":581,"o":"m 294 769 q 457 742 394 769 q 550 652 519 715 q 581 483 581 589 l 581 0 l 443 0 l 431 81 l 422 81 q 349 10 394 33 q 246 -13 304 -13 q 137 13 184 -13 q 64 86 90 38 q 38 200 38 135 q 102 366 38 308 q 306 435 167 425 l 417 446 l 417 490 q 402 575 417 544 q 353 619 386 606 q 264 633 319 633 q 177 625 224 633 q 87 604 131 618 l 87 741 q 188 762 131 754 q 294 769 244 769 m 301 115 q 364 129 333 115 q 417 178 394 144 l 417 342 l 324 333 q 203 219 203 323 q 228 141 203 167 q 301 115 254 115 m 251 861 l 100 1122 l 270 1122 l 396 861 l 251 861 z "},"ả":{"ha":651,"x_min":38,"x_max":581,"o":"m 294 769 q 457 742 394 769 q 550 652 519 715 q 581 483 581 589 l 581 0 l 443 0 l 431 81 l 422 81 q 349 10 394 33 q 246 -13 304 -13 q 137 13 184 -13 q 64 86 90 38 q 38 200 38 135 q 102 366 38 308 q 306 435 167 425 l 417 446 l 417 490 q 402 575 417 544 q 353 619 386 606 q 264 633 319 633 q 177 625 224 633 q 87 604 131 618 l 87 741 q 188 762 131 754 q 294 769 244 769 m 301 115 q 364 129 333 115 q 417 178 394 144 l 417 342 l 324 333 q 203 219 203 323 q 228 141 203 167 q 301 115 254 115 m 278 861 q 294 923 278 900 q 338 968 310 946 q 363 992 355 982 q 372 1017 372 1003 q 308 1056 372 1056 q 206 1040 253 1056 l 206 1113 q 260 1126 228 1121 q 320 1131 292 1131 q 469 1028 469 1131 q 461 988 469 1004 q 444 960 454 971 q 416 934 433 949 q 382 900 393 915 q 368 861 370 885 l 278 861 z "},"ȃ":{"ha":651,"x_min":38,"x_max":581,"o":"m 294 769 q 457 742 394 769 q 550 652 519 715 q 581 483 581 589 l 581 0 l 443 0 l 431 81 l 422 81 q 349 10 394 33 q 246 -13 304 -13 q 137 13 184 -13 q 64 86 90 38 q 38 200 38 135 q 102 366 38 308 q 306 435 167 425 l 417 446 l 417 490 q 402 575 417 544 q 353 619 386 606 q 264 633 319 633 q 177 625 224 633 q 87 604 131 618 l 87 741 q 188 762 131 754 q 294 769 244 769 m 301 115 q 364 129 333 115 q 417 178 394 144 l 417 342 l 324 333 q 203 219 203 323 q 228 141 203 167 q 301 115 254 115 m 119 881 q 177 1059 124 1002 q 323 1117 230 1117 q 468 1059 413 1117 q 528 881 522 1001 l 422 881 q 393 992 418 958 q 323 1026 367 1026 q 252 992 276 1026 q 225 881 228 958 l 119 881 z "},"ā":{"ha":651,"x_min":38,"x_max":581,"o":"m 294 769 q 457 742 394 769 q 550 652 519 715 q 581 483 581 589 l 581 0 l 443 0 l 431 81 l 422 81 q 349 10 394 33 q 246 -13 304 -13 q 137 13 184 -13 q 64 86 90 38 q 38 200 38 135 q 102 366 38 308 q 306 435 167 425 l 417 446 l 417 490 q 402 575 417 544 q 353 619 386 606 q 264 633 319 633 q 177 625 224 633 q 87 604 131 618 l 87 741 q 188 762 131 754 q 294 769 244 769 m 301 115 q 364 129 333 115 q 417 178 394 144 l 417 342 l 324 333 q 203 219 203 323 q 228 141 203 167 q 301 115 254 115 m 109 931 l 109 1042 l 537 1042 l 537 931 l 109 931 z "},"ą":{"ha":651,"x_min":38,"x_max":612,"o":"m 525 -226 q 612 -202 563 -226 l 612 -276 q 506 -301 563 -301 q 388 -264 428 -301 q 347 -163 347 -228 q 370 -76 347 -115 q 446 0 393 -36 l 443 0 l 431 81 l 422 81 q 349 10 394 33 q 246 -13 304 -13 q 137 13 184 -13 q 64 86 90 38 q 38 200 38 135 q 102 366 38 308 q 306 435 167 425 l 417 446 l 417 490 q 402 575 417 544 q 353 619 386 606 q 264 633 319 633 q 177 625 224 633 q 87 604 131 618 l 87 741 q 188 762 131 754 q 294 769 244 769 q 457 742 394 769 q 550 652 519 715 q 581 483 581 589 l 581 0 q 476 -74 506 -37 q 446 -153 446 -111 q 466 -207 446 -188 q 525 -226 487 -226 m 301 115 q 364 129 333 115 q 417 178 394 144 l 417 342 l 324 333 q 203 219 203 323 q 228 141 203 167 q 301 115 254 115 z "},"å":{"ha":651,"x_min":38,"x_max":581,"o":"m 294 769 q 457 742 394 769 q 550 652 519 715 q 581 483 581 589 l 581 0 l 443 0 l 431 81 l 422 81 q 349 10 394 33 q 246 -13 304 -13 q 137 13 184 -13 q 64 86 90 38 q 38 200 38 135 q 102 366 38 308 q 306 435 167 425 l 417 446 l 417 490 q 402 575 417 544 q 353 619 386 606 q 264 633 319 633 q 177 625 224 633 q 87 604 131 618 l 87 741 q 188 762 131 754 q 294 769 244 769 m 301 115 q 364 129 333 115 q 417 178 394 144 l 417 342 l 324 333 q 203 219 203 323 q 228 141 203 167 q 301 115 254 115 m 323 858 q 249 876 282 858 q 197 926 216 894 q 178 999 178 958 q 197 1072 178 1040 q 249 1122 216 1104 q 323 1140 282 1140 q 398 1122 365 1140 q 449 1072 431 1104 q 468 999 468 1040 q 449 926 468 958 q 398 876 431 894 q 323 858 365 858 m 323 926 q 374 946 355 926 q 394 999 394 966 q 374 1052 394 1033 q 323 1072 354 1072 q 272 1052 292 1072 q 253 999 253 1032 q 272 946 253 966 q 323 926 292 926 z "},"ǻ":{"ha":651,"x_min":38,"x_max":581,"o":"m 294 769 q 457 742 394 769 q 550 652 519 715 q 581 483 581 589 l 581 0 l 443 0 l 431 81 l 422 81 q 349 10 394 33 q 246 -13 304 -13 q 137 13 184 -13 q 64 86 90 38 q 38 200 38 135 q 102 366 38 308 q 306 435 167 425 l 417 446 l 417 490 q 402 575 417 544 q 353 619 386 606 q 264 633 319 633 q 177 625 224 633 q 87 604 131 618 l 87 741 q 188 762 131 754 q 294 769 244 769 m 301 115 q 364 129 333 115 q 417 178 394 144 l 417 342 l 324 333 q 203 219 203 323 q 228 141 203 167 q 301 115 254 115 m 444 1081 q 468 999 468 1045 q 449 926 468 958 q 398 876 431 894 q 323 858 365 858 q 249 876 282 858 q 197 926 216 894 q 178 999 178 958 q 197 1072 178 1040 q 249 1122 216 1104 q 323 1140 282 1140 q 361 1136 344 1140 l 440 1236 l 576 1236 l 444 1081 m 323 926 q 374 946 355 926 q 394 999 394 966 q 374 1052 394 1033 q 323 1072 354 1072 q 272 1052 292 1072 q 253 999 253 1032 q 272 946 253 966 q 323 926 292 926 z "},"ã":{"ha":651,"x_min":38,"x_max":581,"o":"m 294 769 q 457 742 394 769 q 550 652 519 715 q 581 483 581 589 l 581 0 l 443 0 l 431 81 l 422 81 q 349 10 394 33 q 246 -13 304 -13 q 137 13 184 -13 q 64 86 90 38 q 38 200 38 135 q 102 366 38 308 q 306 435 167 425 l 417 446 l 417 490 q 402 575 417 544 q 353 619 386 606 q 264 633 319 633 q 177 625 224 633 q 87 604 131 618 l 87 741 q 188 762 131 754 q 294 769 244 769 m 301 115 q 364 129 333 115 q 417 178 394 144 l 417 342 l 324 333 q 203 219 203 323 q 228 141 203 167 q 301 115 254 115 m 420 909 q 369 917 394 909 q 313 942 344 926 q 263 963 282 956 q 224 970 244 970 q 164 957 190 970 q 109 913 137 943 l 109 1029 q 161 1067 132 1054 q 226 1079 190 1079 q 277 1071 253 1079 q 334 1047 302 1063 q 385 1025 367 1032 q 422 1019 403 1019 q 483 1032 456 1019 q 537 1075 510 1046 l 537 960 q 486 922 514 934 q 420 909 458 909 z "},"æ":{"ha":1008,"x_min":38,"x_max":972,"o":"m 972 325 l 581 325 q 603 205 583 249 q 664 142 624 160 q 772 123 705 123 q 936 149 843 123 l 936 13 q 842 -8 885 -1 q 753 -14 799 -14 q 587 14 654 -14 q 481 103 519 42 q 384 13 438 40 q 262 -13 329 -13 q 98 43 158 -13 q 38 201 38 99 q 105 370 38 308 q 317 433 173 433 l 420 433 l 420 490 q 403 575 420 544 q 352 619 386 606 q 263 633 318 633 q 177 625 224 633 q 88 604 131 618 l 88 741 q 288 769 186 769 q 427 745 372 769 q 513 671 483 721 q 708 770 579 770 q 902 674 833 770 q 972 376 972 577 l 972 325 m 699 655 q 636 635 662 655 q 596 567 610 615 q 581 433 581 518 l 813 433 q 798 568 812 519 q 760 636 785 617 q 699 655 736 655 m 305 115 q 440 198 390 115 q 422 331 424 257 l 335 331 q 235 300 267 331 q 203 217 203 270 q 230 141 203 167 q 305 115 256 115 z "},"ǽ":{"ha":1008,"x_min":38,"x_max":972,"o":"m 972 325 l 581 325 q 603 205 583 249 q 664 142 624 160 q 772 123 705 123 q 936 149 843 123 l 936 13 q 842 -8 885 -1 q 753 -14 799 -14 q 587 14 654 -14 q 481 103 519 42 q 384 13 438 40 q 262 -13 329 -13 q 98 43 158 -13 q 38 201 38 99 q 105 370 38 308 q 317 433 173 433 l 420 433 l 420 490 q 403 575 420 544 q 352 619 386 606 q 263 633 318 633 q 177 625 224 633 q 88 604 131 618 l 88 741 q 288 769 186 769 q 427 745 372 769 q 513 671 483 721 q 708 770 579 770 q 902 674 833 770 q 972 376 972 577 l 972 325 m 699 655 q 636 635 662 655 q 596 567 610 615 q 581 433 581 518 l 813 433 q 798 568 812 519 q 760 636 785 617 q 699 655 736 655 m 305 115 q 440 198 390 115 q 422 331 424 257 l 335 331 q 235 300 267 331 q 203 217 203 270 q 230 141 203 167 q 305 115 256 115 m 428 861 l 554 1122 l 724 1122 l 574 861 l 428 861 z "},"b":{"ha":707,"x_min":75,"x_max":664,"o":"m 301 -13 q 183 -4 243 -13 q 75 23 122 6 l 75 1122 l 243 1122 l 243 683 l 251 683 q 318 746 276 723 q 415 769 360 769 q 541 731 485 769 q 630 608 597 692 q 664 391 664 523 q 574 88 664 188 q 301 -13 484 -13 m 312 119 q 411 143 372 119 q 471 225 451 168 q 492 376 492 281 q 474 529 492 474 q 425 605 456 584 q 348 626 394 626 q 289 611 317 626 q 243 572 260 597 l 243 128 q 312 119 274 119 z "},"c":{"ha":542,"x_min":43,"x_max":522,"o":"m 363 -14 q 124 80 205 -14 q 43 378 43 174 q 132 676 43 583 q 390 769 221 769 q 522 756 460 769 l 522 616 q 421 627 469 627 q 305 604 349 627 q 240 527 261 581 q 218 381 218 474 q 238 230 218 285 q 297 152 258 175 q 398 128 336 128 q 522 152 451 128 l 522 13 q 363 -14 445 -14 z "},"ć":{"ha":542,"x_min":43,"x_max":532,"o":"m 363 -14 q 124 80 205 -14 q 43 378 43 174 q 132 676 43 583 q 390 769 221 769 q 522 756 460 769 l 522 616 q 421 627 469 627 q 305 604 349 627 q 240 527 261 581 q 218 381 218 474 q 238 230 218 285 q 297 152 258 175 q 398 128 336 128 q 522 152 451 128 l 522 13 q 363 -14 445 -14 m 236 861 l 362 1122 l 532 1122 l 381 861 l 236 861 z "},"č":{"ha":542,"x_min":43,"x_max":522,"o":"m 363 -14 q 124 80 205 -14 q 43 378 43 174 q 132 676 43 583 q 390 769 221 769 q 522 756 460 769 l 522 616 q 421 627 469 627 q 305 604 349 627 q 240 527 261 581 q 218 381 218 474 q 238 230 218 285 q 297 152 258 175 q 398 128 336 128 q 522 152 451 128 l 522 13 q 363 -14 445 -14 m 393 1122 l 510 1122 l 382 861 l 235 861 l 107 1122 l 224 1122 l 309 940 l 393 1122 z "},"ç":{"ha":542,"x_min":43,"x_max":522,"o":"m 421 627 q 305 604 349 627 q 240 527 261 581 q 218 381 218 474 q 238 230 218 285 q 297 152 258 175 q 398 128 336 128 q 522 152 451 128 l 522 13 q 365 -14 446 -14 l 365 -67 q 440 -105 414 -76 q 467 -181 467 -134 q 427 -269 467 -237 q 310 -301 388 -301 q 200 -280 249 -301 l 200 -206 q 303 -227 249 -227 q 355 -214 338 -227 q 372 -174 372 -201 q 301 -119 372 -119 l 277 -119 l 277 -6 q 102 110 162 17 q 43 378 43 204 q 132 676 43 583 q 390 769 221 769 q 522 756 460 769 l 522 616 q 421 627 469 627 z "},"ḉ":{"ha":542,"x_min":43,"x_max":532,"o":"m 532 1122 l 381 861 l 236 861 l 362 1122 l 532 1122 m 43 378 q 132 676 43 583 q 390 769 221 769 q 522 756 460 769 l 522 616 q 421 627 469 627 q 305 604 349 627 q 240 527 261 581 q 218 381 218 474 q 238 230 218 285 q 297 152 258 175 q 398 128 336 128 q 522 152 451 128 l 522 13 q 365 -14 446 -14 l 365 -67 q 440 -105 414 -76 q 467 -181 467 -134 q 427 -269 467 -237 q 310 -301 388 -301 q 200 -280 249 -301 l 200 -206 q 303 -227 249 -227 q 355 -214 338 -227 q 372 -174 372 -201 q 301 -119 372 -119 l 277 -119 l 277 -6 q 102 110 162 17 q 43 378 43 204 z "},"ĉ":{"ha":542,"x_min":43,"x_max":522,"o":"m 363 -14 q 124 80 205 -14 q 43 378 43 174 q 132 676 43 583 q 390 769 221 769 q 522 756 460 769 l 522 616 q 421 627 469 627 q 305 604 349 627 q 240 527 261 581 q 218 381 218 474 q 238 230 218 285 q 297 152 258 175 q 398 128 336 128 q 522 152 451 128 l 522 13 q 363 -14 445 -14 m 510 861 l 393 861 l 309 1044 l 224 861 l 107 861 l 235 1122 l 382 1122 l 510 861 z "},"ċ":{"ha":542,"x_min":43,"x_max":522,"o":"m 363 -14 q 124 80 205 -14 q 43 378 43 174 q 132 676 43 583 q 390 769 221 769 q 522 756 460 769 l 522 616 q 421 627 469 627 q 305 604 349 627 q 240 527 261 581 q 218 381 218 474 q 238 230 218 285 q 297 152 258 175 q 398 128 336 128 q 522 152 451 128 l 522 13 q 363 -14 445 -14 m 308 888 q 227 913 255 888 q 200 986 200 939 q 227 1059 200 1033 q 308 1085 255 1085 q 390 1059 362 1085 q 417 986 417 1033 q 390 913 417 939 q 308 888 363 888 z "},"d":{"ha":707,"x_min":43,"x_max":632,"o":"m 303 -14 q 172 24 231 -14 q 78 147 113 63 q 43 363 43 231 q 134 668 43 567 q 410 769 224 769 q 464 765 435 769 l 464 1122 l 632 1122 l 632 0 l 490 0 l 478 79 l 469 79 q 403 11 445 37 q 303 -14 360 -14 m 355 129 q 417 144 388 129 q 464 187 447 160 l 464 631 q 397 637 426 637 q 296 612 335 637 q 236 531 256 588 q 215 379 215 474 q 233 226 215 281 q 281 150 250 171 q 355 129 311 129 z "},"ð":{"ha":692,"x_min":43,"x_max":649,"o":"m 505 920 q 611 674 572 806 q 649 415 649 542 q 572 88 649 190 q 347 -15 494 -15 q 43 376 43 -15 q 120 673 43 578 q 335 767 197 767 q 433 742 388 767 q 357 890 404 815 l 117 841 l 96 935 l 295 976 q 155 1122 236 1049 l 340 1122 q 447 1007 397 1074 l 612 1040 l 633 946 l 505 920 m 347 113 q 418 137 390 113 q 462 217 447 160 q 477 372 477 274 q 462 535 477 476 q 418 616 447 593 q 347 638 390 638 q 274 616 303 638 q 231 536 246 593 q 215 376 215 478 q 231 216 215 273 q 274 136 246 158 q 347 113 303 113 z "},"ď":{"ha":707,"x_min":43,"x_max":813,"o":"m 303 -14 q 172 24 231 -14 q 78 147 113 63 q 43 363 43 231 q 134 668 43 567 q 410 769 224 769 q 464 765 435 769 l 464 1122 l 632 1122 l 632 0 l 490 0 l 478 79 l 469 79 q 403 11 445 37 q 303 -14 360 -14 m 355 129 q 417 144 388 129 q 464 187 447 160 l 464 631 q 397 637 426 637 q 296 612 335 637 q 236 531 256 588 q 215 379 215 474 q 233 226 215 281 q 281 150 250 171 q 355 129 311 129 m 676 819 q 694 1122 694 948 l 813 1122 q 802 962 813 1042 q 772 819 792 883 l 676 819 z "},"đ":{"ha":707,"x_min":43,"x_max":705,"o":"m 705 881 l 632 881 l 632 0 l 490 0 l 478 79 l 469 79 q 403 11 445 37 q 303 -14 360 -14 q 172 24 231 -14 q 78 147 113 63 q 43 363 43 231 q 134 668 43 567 q 410 769 224 769 q 464 765 435 769 l 464 881 l 282 881 l 282 999 l 464 999 l 464 1122 l 632 1122 l 632 999 l 705 999 l 705 881 m 464 631 q 397 637 426 637 q 296 612 335 637 q 236 531 256 588 q 215 379 215 474 q 233 226 215 281 q 281 150 250 171 q 355 129 311 129 q 417 144 388 129 q 464 187 447 160 l 464 631 z "},"ḍ":{"ha":707,"x_min":43,"x_max":632,"o":"m 303 -14 q 172 24 231 -14 q 78 147 113 63 q 43 363 43 231 q 134 668 43 567 q 410 769 224 769 q 464 765 435 769 l 464 1122 l 632 1122 l 632 0 l 490 0 l 478 79 l 469 79 q 403 11 445 37 q 303 -14 360 -14 m 355 129 q 417 144 388 129 q 464 187 447 160 l 464 631 q 397 637 426 637 q 296 612 335 637 q 236 531 256 588 q 215 379 215 474 q 233 226 215 281 q 281 150 250 171 q 355 129 311 129 m 356 -287 q 286 -262 312 -287 q 260 -193 260 -237 q 286 -123 260 -149 q 356 -97 313 -97 q 427 -123 401 -97 q 453 -193 453 -149 q 427 -262 453 -237 q 356 -287 401 -287 z "},"ḏ":{"ha":707,"x_min":43,"x_max":632,"o":"m 303 -14 q 172 24 231 -14 q 78 147 113 63 q 43 363 43 231 q 134 668 43 567 q 410 769 224 769 q 464 765 435 769 l 464 1122 l 632 1122 l 632 0 l 490 0 l 478 79 l 469 79 q 403 11 445 37 q 303 -14 360 -14 m 355 129 q 417 144 388 129 q 464 187 447 160 l 464 631 q 397 637 426 637 q 296 612 335 637 q 236 531 256 588 q 215 379 215 474 q 233 226 215 281 q 281 150 250 171 q 355 129 311 129 m 152 -247 l 152 -135 l 561 -135 l 561 -247 l 152 -247 z "},"ǳ":{"ha":1273,"x_min":43,"x_max":1247,"o":"m 303 -14 q 172 24 231 -14 q 78 147 113 63 q 43 363 43 231 q 134 668 43 567 q 410 769 224 769 q 464 765 435 769 l 464 1122 l 632 1122 l 632 0 l 490 0 l 478 79 l 469 79 q 403 11 445 37 q 303 -14 360 -14 m 355 129 q 417 144 388 129 q 464 187 447 160 l 464 631 q 397 637 426 637 q 296 612 335 637 q 236 531 256 588 q 215 379 215 474 q 233 226 215 281 q 281 150 250 171 q 355 129 311 129 m 928 134 l 1247 134 l 1247 0 l 740 0 l 740 103 l 1052 624 l 747 624 l 747 758 l 1240 758 l 1240 654 l 928 134 z "},"ǆ":{"ha":1273,"x_min":43,"x_max":1247,"o":"m 303 -14 q 172 24 231 -14 q 78 147 113 63 q 43 363 43 231 q 134 668 43 567 q 410 769 224 769 q 464 765 435 769 l 464 1122 l 632 1122 l 632 0 l 490 0 l 478 79 l 469 79 q 403 11 445 37 q 303 -14 360 -14 m 355 129 q 417 144 388 129 q 464 187 447 160 l 464 631 q 397 637 426 637 q 296 612 335 637 q 236 531 256 588 q 215 379 215 474 q 233 226 215 281 q 281 150 250 171 q 355 129 311 129 m 928 134 l 1247 134 l 1247 0 l 740 0 l 740 103 l 1052 624 l 747 624 l 747 758 l 1240 758 l 1240 654 l 928 134 m 1078 1122 l 1196 1122 l 1067 861 l 921 861 l 792 1122 l 910 1122 l 994 940 l 1078 1122 z "},"e":{"ha":646,"x_min":43,"x_max":610,"o":"m 610 325 l 214 325 q 237 204 217 248 q 299 142 257 160 q 410 123 340 123 q 575 149 481 123 l 575 13 q 480 -8 524 -1 q 390 -14 436 -14 q 193 26 269 -14 q 80 152 117 66 q 43 381 43 239 q 120 673 43 576 q 337 769 197 769 q 610 376 610 769 l 610 325 m 336 654 q 271 635 297 654 q 230 567 245 615 q 214 433 215 518 l 452 433 q 438 567 451 518 q 399 635 424 615 q 336 654 374 654 z "},"é":{"ha":646,"x_min":43,"x_max":610,"o":"m 610 325 l 214 325 q 237 204 217 248 q 299 142 257 160 q 410 123 340 123 q 575 149 481 123 l 575 13 q 480 -8 524 -1 q 390 -14 436 -14 q 193 26 269 -14 q 80 152 117 66 q 43 381 43 239 q 120 673 43 576 q 337 769 197 769 q 610 376 610 769 l 610 325 m 336 654 q 271 635 297 654 q 230 567 245 615 q 214 433 215 518 l 452 433 q 438 567 451 518 q 399 635 424 615 q 336 654 374 654 m 260 861 l 385 1122 l 556 1122 l 405 861 l 260 861 z "},"ĕ":{"ha":646,"x_min":43,"x_max":610,"o":"m 610 325 l 214 325 q 237 204 217 248 q 299 142 257 160 q 410 123 340 123 q 575 149 481 123 l 575 13 q 480 -8 524 -1 q 390 -14 436 -14 q 193 26 269 -14 q 80 152 117 66 q 43 381 43 239 q 120 673 43 576 q 337 769 197 769 q 610 376 610 769 l 610 325 m 336 654 q 271 635 297 654 q 230 567 245 615 q 214 433 215 518 l 452 433 q 438 567 451 518 q 399 635 424 615 q 336 654 374 654 m 333 869 q 188 928 242 869 q 128 1106 133 986 l 234 1106 q 263 996 238 1030 q 333 962 288 962 q 403 996 378 962 q 431 1106 428 1030 l 537 1106 q 478 927 531 985 q 333 869 424 869 z "},"ě":{"ha":646,"x_min":43,"x_max":610,"o":"m 610 325 l 214 325 q 237 204 217 248 q 299 142 257 160 q 410 123 340 123 q 575 149 481 123 l 575 13 q 480 -8 524 -1 q 390 -14 436 -14 q 193 26 269 -14 q 80 152 117 66 q 43 381 43 239 q 120 673 43 576 q 337 769 197 769 q 610 376 610 769 l 610 325 m 336 654 q 271 635 297 654 q 230 567 245 615 q 214 433 215 518 l 452 433 q 438 567 451 518 q 399 635 424 615 q 336 654 374 654 m 417 1122 l 534 1122 l 406 861 l 259 861 l 131 1122 l 248 1122 l 333 940 l 417 1122 z "},"ḝ":{"ha":646,"x_min":43,"x_max":610,"o":"m 333 869 q 188 928 242 869 q 128 1106 133 986 l 234 1106 q 263 996 238 1030 q 333 962 288 962 q 403 996 378 962 q 431 1106 428 1030 l 537 1106 q 478 927 531 985 q 333 869 424 869 m 610 325 l 214 325 q 237 204 217 248 q 299 142 257 160 q 410 123 340 123 q 575 149 481 123 l 575 13 q 480 -8 524 -1 q 390 -14 436 -14 l 382 -14 l 382 -67 q 457 -105 431 -76 q 483 -181 483 -134 q 444 -269 483 -237 q 326 -301 405 -301 q 217 -280 266 -301 l 217 -206 q 320 -227 266 -227 q 372 -214 355 -227 q 388 -174 388 -201 q 318 -119 388 -119 l 294 -119 l 294 -7 q 152 53 207 8 q 70 179 97 99 q 43 381 43 260 q 120 673 43 576 q 337 769 197 769 q 610 376 610 769 l 610 325 m 336 654 q 271 635 297 654 q 230 567 245 615 q 214 433 215 518 l 452 433 q 438 567 451 518 q 399 635 424 615 q 336 654 374 654 z "},"ê":{"ha":646,"x_min":43,"x_max":610,"o":"m 610 325 l 214 325 q 237 204 217 248 q 299 142 257 160 q 410 123 340 123 q 575 149 481 123 l 575 13 q 480 -8 524 -1 q 390 -14 436 -14 q 193 26 269 -14 q 80 152 117 66 q 43 381 43 239 q 120 673 43 576 q 337 769 197 769 q 610 376 610 769 l 610 325 m 336 654 q 271 635 297 654 q 230 567 245 615 q 214 433 215 518 l 452 433 q 438 567 451 518 q 399 635 424 615 q 336 654 374 654 m 534 861 l 417 861 l 333 1044 l 248 861 l 131 861 l 259 1122 l 406 1122 l 534 861 z "},"ế":{"ha":646,"x_min":43,"x_max":720,"o":"m 610 325 l 214 325 q 237 204 217 248 q 299 142 257 160 q 410 123 340 123 q 575 149 481 123 l 575 13 q 480 -8 524 -1 q 390 -14 436 -14 q 193 26 269 -14 q 80 152 117 66 q 43 381 43 239 q 120 673 43 576 q 337 769 197 769 q 610 376 610 769 l 610 325 m 336 654 q 271 635 297 654 q 230 567 245 615 q 214 433 215 518 l 452 433 q 438 567 451 518 q 399 635 424 615 q 336 654 374 654 m 577 1297 l 720 1297 l 592 1109 l 476 1109 l 577 1297 m 259 1122 l 406 1122 l 534 861 l 417 861 l 333 1044 l 248 861 l 131 861 l 259 1122 z "},"ệ":{"ha":646,"x_min":43,"x_max":610,"o":"m 610 325 l 214 325 q 237 204 217 248 q 299 142 257 160 q 410 123 340 123 q 575 149 481 123 l 575 13 q 480 -8 524 -1 q 390 -14 436 -14 q 193 26 269 -14 q 80 152 117 66 q 43 381 43 239 q 120 673 43 576 q 337 769 197 769 q 610 376 610 769 l 610 325 m 336 654 q 271 635 297 654 q 230 567 245 615 q 214 433 215 518 l 452 433 q 438 567 451 518 q 399 635 424 615 q 336 654 374 654 m 332 -287 q 261 -262 288 -287 q 235 -193 235 -237 q 262 -123 235 -149 q 332 -97 288 -97 q 403 -123 376 -97 q 429 -193 429 -149 q 403 -262 429 -237 q 332 -287 376 -287 m 534 861 l 417 861 l 333 1044 l 248 861 l 131 861 l 259 1122 l 406 1122 l 534 861 z "},"ề":{"ha":646,"x_min":43,"x_max":610,"o":"m 610 325 l 214 325 q 237 204 217 248 q 299 142 257 160 q 410 123 340 123 q 575 149 481 123 l 575 13 q 480 -8 524 -1 q 390 -14 436 -14 q 193 26 269 -14 q 80 152 117 66 q 43 381 43 239 q 120 673 43 576 q 337 769 197 769 q 610 376 610 769 l 610 325 m 336 654 q 271 635 297 654 q 230 567 245 615 q 214 433 215 518 l 452 433 q 438 567 451 518 q 399 635 424 615 q 336 654 374 654 m 607 1109 l 491 1109 l 363 1297 l 506 1297 l 607 1109 m 259 1122 l 406 1122 l 534 861 l 417 861 l 333 1044 l 248 861 l 131 861 l 259 1122 z "},"ể":{"ha":646,"x_min":43,"x_max":669,"o":"m 610 325 l 214 325 q 237 204 217 248 q 299 142 257 160 q 410 123 340 123 q 575 149 481 123 l 575 13 q 480 -8 524 -1 q 390 -14 436 -14 q 193 26 269 -14 q 80 152 117 66 q 43 381 43 239 q 120 673 43 576 q 337 769 197 769 q 610 376 610 769 l 610 325 m 336 654 q 271 635 297 654 q 230 567 245 615 q 214 433 215 518 l 452 433 q 438 567 451 518 q 399 635 424 615 q 336 654 374 654 m 513 1307 q 669 1226 669 1307 q 654 1188 669 1202 q 610 1160 640 1174 q 573 1137 586 1147 q 558 1109 560 1126 l 467 1109 q 487 1155 469 1139 q 535 1184 505 1170 q 563 1200 555 1194 q 572 1215 572 1206 q 501 1242 572 1242 q 438 1238 471 1242 q 378 1224 406 1233 l 378 1288 q 441 1302 403 1297 q 513 1307 479 1307 m 259 1122 l 406 1122 l 534 861 l 417 861 l 333 1044 l 248 861 l 131 861 l 259 1122 z "},"ễ":{"ha":646,"x_min":43,"x_max":610,"o":"m 610 325 l 214 325 q 237 204 217 248 q 299 142 257 160 q 410 123 340 123 q 575 149 481 123 l 575 13 q 480 -8 524 -1 q 390 -14 436 -14 q 193 26 269 -14 q 80 152 117 66 q 43 381 43 239 q 120 673 43 576 q 337 769 197 769 q 610 376 610 769 l 610 325 m 336 654 q 271 635 297 654 q 230 567 245 615 q 214 433 215 518 l 452 433 q 438 567 451 518 q 399 635 424 615 q 336 654 374 654 m 435 1228 q 498 1239 471 1228 q 553 1275 526 1251 l 553 1178 q 502 1144 531 1155 q 434 1133 473 1133 q 381 1140 406 1133 q 322 1160 356 1147 q 271 1178 292 1172 q 229 1184 250 1184 q 166 1173 194 1184 q 110 1137 139 1161 l 110 1234 q 163 1268 134 1256 q 231 1279 192 1279 q 285 1272 259 1279 q 343 1251 310 1265 q 395 1233 376 1239 q 435 1228 415 1228 m 259 1092 l 406 1092 l 534 862 l 417 862 l 333 1026 l 248 862 l 131 862 l 259 1092 z "},"ȅ":{"ha":646,"x_min":43,"x_max":610,"o":"m 610 325 l 214 325 q 237 204 217 248 q 299 142 257 160 q 410 123 340 123 q 575 149 481 123 l 575 13 q 480 -8 524 -1 q 390 -14 436 -14 q 193 26 269 -14 q 80 152 117 66 q 43 381 43 239 q 120 673 43 576 q 337 769 197 769 q 610 376 610 769 l 610 325 m 336 654 q 271 635 297 654 q 230 567 245 615 q 214 433 215 518 l 452 433 q 438 567 451 518 q 399 635 424 615 q 336 654 374 654 m 146 861 l 56 1122 l 195 1122 l 275 861 l 146 861 m 390 861 l 300 1122 l 440 1122 l 519 861 l 390 861 z "},"ë":{"ha":646,"x_min":43,"x_max":610,"o":"m 610 325 l 214 325 q 237 204 217 248 q 299 142 257 160 q 410 123 340 123 q 575 149 481 123 l 575 13 q 480 -8 524 -1 q 390 -14 436 -14 q 193 26 269 -14 q 80 152 117 66 q 43 381 43 239 q 120 673 43 576 q 337 769 197 769 q 610 376 610 769 l 610 325 m 336 654 q 271 635 297 654 q 230 567 245 615 q 214 433 215 518 l 452 433 q 438 567 451 518 q 399 635 424 615 q 336 654 374 654 m 190 891 q 119 917 146 891 q 93 986 93 942 q 119 1056 93 1030 q 190 1081 146 1081 q 260 1056 234 1081 q 287 986 287 1030 q 260 917 287 942 q 190 891 234 891 m 474 891 q 404 917 431 891 q 378 986 378 942 q 404 1056 378 1030 q 474 1081 431 1081 q 545 1056 519 1081 q 572 986 572 1030 q 545 917 572 942 q 474 891 519 891 z "},"ė":{"ha":646,"x_min":43,"x_max":610,"o":"m 610 325 l 214 325 q 237 204 217 248 q 299 142 257 160 q 410 123 340 123 q 575 149 481 123 l 575 13 q 480 -8 524 -1 q 390 -14 436 -14 q 193 26 269 -14 q 80 152 117 66 q 43 381 43 239 q 120 673 43 576 q 337 769 197 769 q 610 376 610 769 l 610 325 m 336 654 q 271 635 297 654 q 230 567 245 615 q 214 433 215 518 l 452 433 q 438 567 451 518 q 399 635 424 615 q 336 654 374 654 m 332 888 q 251 913 278 888 q 224 986 224 939 q 251 1059 224 1033 q 332 1085 278 1085 q 413 1059 385 1085 q 441 986 441 1033 q 414 913 441 939 q 332 888 386 888 z "},"ẹ":{"ha":646,"x_min":43,"x_max":610,"o":"m 610 325 l 214 325 q 237 204 217 248 q 299 142 257 160 q 410 123 340 123 q 575 149 481 123 l 575 13 q 480 -8 524 -1 q 390 -14 436 -14 q 193 26 269 -14 q 80 152 117 66 q 43 381 43 239 q 120 673 43 576 q 337 769 197 769 q 610 376 610 769 l 610 325 m 336 654 q 271 635 297 654 q 230 567 245 615 q 214 433 215 518 l 452 433 q 438 567 451 518 q 399 635 424 615 q 336 654 374 654 m 332 -287 q 261 -262 288 -287 q 235 -193 235 -237 q 262 -123 235 -149 q 332 -97 288 -97 q 403 -123 376 -97 q 429 -193 429 -149 q 403 -262 429 -237 q 332 -287 376 -287 z "},"è":{"ha":646,"x_min":43,"x_max":610,"o":"m 610 325 l 214 325 q 237 204 217 248 q 299 142 257 160 q 410 123 340 123 q 575 149 481 123 l 575 13 q 480 -8 524 -1 q 390 -14 436 -14 q 193 26 269 -14 q 80 152 117 66 q 43 381 43 239 q 120 673 43 576 q 337 769 197 769 q 610 376 610 769 l 610 325 m 336 654 q 271 635 297 654 q 230 567 245 615 q 214 433 215 518 l 452 433 q 438 567 451 518 q 399 635 424 615 q 336 654 374 654 m 260 861 l 109 1122 l 279 1122 l 405 861 l 260 861 z "},"ẻ":{"ha":646,"x_min":43,"x_max":610,"o":"m 610 325 l 214 325 q 237 204 217 248 q 299 142 257 160 q 410 123 340 123 q 575 149 481 123 l 575 13 q 480 -8 524 -1 q 390 -14 436 -14 q 193 26 269 -14 q 80 152 117 66 q 43 381 43 239 q 120 673 43 576 q 337 769 197 769 q 610 376 610 769 l 610 325 m 336 654 q 271 635 297 654 q 230 567 245 615 q 214 433 215 518 l 452 433 q 438 567 451 518 q 399 635 424 615 q 336 654 374 654 m 287 861 q 303 923 288 900 q 347 968 319 946 q 372 992 364 982 q 381 1017 381 1003 q 317 1056 381 1056 q 215 1040 263 1056 l 215 1113 q 269 1126 238 1121 q 329 1131 301 1131 q 478 1028 478 1131 q 470 988 478 1004 q 453 960 463 971 q 425 934 442 949 q 391 900 402 915 q 377 861 379 885 l 287 861 z "},"ȇ":{"ha":646,"x_min":43,"x_max":610,"o":"m 610 325 l 214 325 q 237 204 217 248 q 299 142 257 160 q 410 123 340 123 q 575 149 481 123 l 575 13 q 480 -8 524 -1 q 390 -14 436 -14 q 193 26 269 -14 q 80 152 117 66 q 43 381 43 239 q 120 673 43 576 q 337 769 197 769 q 610 376 610 769 l 610 325 m 336 654 q 271 635 297 654 q 230 567 245 615 q 214 433 215 518 l 452 433 q 438 567 451 518 q 399 635 424 615 q 336 654 374 654 m 128 881 q 186 1059 133 1002 q 332 1117 239 1117 q 477 1059 422 1117 q 537 881 531 1001 l 431 881 q 402 992 427 958 q 332 1026 376 1026 q 261 992 285 1026 q 234 881 237 958 l 128 881 z "},"ē":{"ha":646,"x_min":43,"x_max":610,"o":"m 610 325 l 214 325 q 237 204 217 248 q 299 142 257 160 q 410 123 340 123 q 575 149 481 123 l 575 13 q 480 -8 524 -1 q 390 -14 436 -14 q 193 26 269 -14 q 80 152 117 66 q 43 381 43 239 q 120 673 43 576 q 337 769 197 769 q 610 376 610 769 l 610 325 m 336 654 q 271 635 297 654 q 230 567 245 615 q 214 433 215 518 l 452 433 q 438 567 451 518 q 399 635 424 615 q 336 654 374 654 m 118 931 l 118 1042 l 546 1042 l 546 931 l 118 931 z "},"ḗ":{"ha":646,"x_min":43,"x_max":610,"o":"m 610 325 l 214 325 q 237 204 217 248 q 299 142 257 160 q 410 123 340 123 q 575 149 481 123 l 575 13 q 480 -8 524 -1 q 390 -14 436 -14 q 193 26 269 -14 q 80 152 117 66 q 43 381 43 239 q 120 673 43 576 q 337 769 197 769 q 610 376 610 769 l 610 325 m 336 654 q 271 635 297 654 q 230 567 245 615 q 214 433 215 518 l 452 433 q 438 567 451 518 q 399 635 424 615 q 336 654 374 654 m 118 931 l 118 1042 l 546 1042 l 546 931 l 118 931 m 258 1159 l 360 1365 l 535 1365 l 406 1159 l 258 1159 z "},"ḕ":{"ha":646,"x_min":43,"x_max":610,"o":"m 610 325 l 214 325 q 237 204 217 248 q 299 142 257 160 q 410 123 340 123 q 575 149 481 123 l 575 13 q 480 -8 524 -1 q 390 -14 436 -14 q 193 26 269 -14 q 80 152 117 66 q 43 381 43 239 q 120 673 43 576 q 337 769 197 769 q 610 376 610 769 l 610 325 m 336 654 q 271 635 297 654 q 230 567 245 615 q 214 433 215 518 l 452 433 q 438 567 451 518 q 399 635 424 615 q 336 654 374 654 m 118 931 l 118 1042 l 546 1042 l 546 931 l 118 931 m 258 1159 l 130 1365 l 305 1365 l 406 1159 l 258 1159 z "},"ę":{"ha":646,"x_min":43,"x_max":610,"o":"m 610 325 l 214 325 q 237 204 217 248 q 299 142 257 160 q 410 123 340 123 q 575 149 481 123 l 575 13 q 444 -66 480 -25 q 409 -153 409 -108 q 430 -207 409 -188 q 488 -226 450 -226 q 575 -202 528 -226 l 575 -276 q 469 -301 526 -301 q 351 -264 392 -301 q 310 -163 310 -228 q 329 -81 310 -118 q 392 -14 349 -44 l 390 -14 q 193 26 269 -14 q 80 152 117 66 q 43 381 43 239 q 120 673 43 576 q 337 769 197 769 q 610 376 610 769 l 610 325 m 336 651 q 271 631 297 651 q 230 563 245 612 q 214 429 215 515 l 452 429 q 438 563 451 515 q 399 631 424 612 q 336 651 374 651 z "},"ẽ":{"ha":646,"x_min":43,"x_max":610,"o":"m 610 325 l 214 325 q 237 204 217 248 q 299 142 257 160 q 410 123 340 123 q 575 149 481 123 l 575 13 q 480 -8 524 -1 q 390 -14 436 -14 q 193 26 269 -14 q 80 152 117 66 q 43 381 43 239 q 120 673 43 576 q 337 769 197 769 q 610 376 610 769 l 610 325 m 336 654 q 271 635 297 654 q 230 567 245 615 q 214 433 215 518 l 452 433 q 438 567 451 518 q 399 635 424 615 q 336 654 374 654 m 429 909 q 378 917 403 909 q 322 942 353 926 q 272 963 291 956 q 233 970 253 970 q 173 957 199 970 q 118 913 146 943 l 118 1029 q 170 1067 141 1054 q 235 1079 199 1079 q 286 1071 262 1079 q 343 1047 311 1063 q 394 1025 376 1032 q 431 1019 412 1019 q 492 1032 465 1019 q 546 1075 519 1046 l 546 960 q 495 922 523 934 q 429 909 467 909 z "},"ə":{"ha":646,"x_min":35,"x_max":603,"o":"m 256 772 q 453 732 377 772 q 566 605 529 692 q 603 376 603 519 q 526 85 603 182 q 309 -12 449 -12 q 35 381 35 -12 l 35 433 l 432 433 q 409 553 429 510 q 347 616 389 597 q 236 635 306 635 q 71 608 165 635 l 71 745 q 166 765 122 759 q 256 772 210 772 m 310 103 q 375 123 349 103 q 416 191 401 142 q 432 325 431 240 l 194 325 q 208 191 194 240 q 247 123 222 142 q 310 103 272 103 z "},"f":{"ha":458,"x_min":6,"x_max":496,"o":"m 425 997 q 320 967 353 997 q 288 868 288 936 l 288 758 l 469 758 l 469 624 l 288 624 l 288 0 l 122 0 l 122 624 l 6 624 l 6 758 l 122 758 l 122 859 q 192 1065 122 994 q 403 1136 263 1136 q 496 1128 456 1136 l 496 992 q 425 997 462 997 z "},"g":{"ha":707,"x_min":43,"x_max":632,"o":"m 290 -319 q 189 -312 242 -319 q 92 -292 135 -306 l 92 -156 q 276 -184 185 -184 q 418 -140 372 -184 q 464 10 464 -95 l 464 77 l 456 77 q 389 14 431 38 q 292 -10 347 -10 q 168 28 224 -10 q 77 150 112 66 q 43 365 43 234 q 134 668 43 567 q 408 769 224 769 q 526 760 465 769 q 632 733 586 750 l 632 38 q 547 -235 632 -150 q 290 -319 463 -319 m 359 132 q 418 146 390 132 q 464 185 447 160 l 464 630 q 394 638 429 638 q 260 578 305 638 q 215 380 215 519 q 233 228 215 283 q 281 153 250 174 q 359 132 312 132 z "},"ǵ":{"ha":707,"x_min":43,"x_max":632,"o":"m 290 -319 q 189 -312 242 -319 q 92 -292 135 -306 l 92 -156 q 276 -184 185 -184 q 418 -140 372 -184 q 464 10 464 -95 l 464 77 l 456 77 q 389 14 431 38 q 292 -10 347 -10 q 168 28 224 -10 q 77 150 112 66 q 43 365 43 234 q 134 668 43 567 q 408 769 224 769 q 526 760 465 769 q 632 733 586 750 l 632 38 q 547 -235 632 -150 q 290 -319 463 -319 m 359 132 q 418 146 390 132 q 464 185 447 160 l 464 630 q 394 638 429 638 q 260 578 305 638 q 215 380 215 519 q 233 228 215 283 q 281 153 250 174 q 359 132 312 132 m 295 861 l 421 1122 l 591 1122 l 440 861 l 295 861 z "},"ğ":{"ha":707,"x_min":43,"x_max":632,"o":"m 290 -319 q 189 -312 242 -319 q 92 -292 135 -306 l 92 -156 q 276 -184 185 -184 q 418 -140 372 -184 q 464 10 464 -95 l 464 77 l 456 77 q 389 14 431 38 q 292 -10 347 -10 q 168 28 224 -10 q 77 150 112 66 q 43 365 43 234 q 134 668 43 567 q 408 769 224 769 q 526 760 465 769 q 632 733 586 750 l 632 38 q 547 -235 632 -150 q 290 -319 463 -319 m 359 132 q 418 146 390 132 q 464 185 447 160 l 464 630 q 394 638 429 638 q 260 578 305 638 q 215 380 215 519 q 233 228 215 283 q 281 153 250 174 q 359 132 312 132 m 368 869 q 223 928 277 869 q 163 1106 169 986 l 269 1106 q 298 996 273 1030 q 368 962 323 962 q 438 996 413 962 q 466 1106 463 1030 l 572 1106 q 513 927 567 985 q 368 869 460 869 z "},"ǧ":{"ha":707,"x_min":43,"x_max":632,"o":"m 290 -319 q 189 -312 242 -319 q 92 -292 135 -306 l 92 -156 q 276 -184 185 -184 q 418 -140 372 -184 q 464 10 464 -95 l 464 77 l 456 77 q 389 14 431 38 q 292 -10 347 -10 q 168 28 224 -10 q 77 150 112 66 q 43 365 43 234 q 134 668 43 567 q 408 769 224 769 q 526 760 465 769 q 632 733 586 750 l 632 38 q 547 -235 632 -150 q 290 -319 463 -319 m 359 132 q 418 146 390 132 q 464 185 447 160 l 464 630 q 394 638 429 638 q 260 578 305 638 q 215 380 215 519 q 233 228 215 283 q 281 153 250 174 q 359 132 312 132 m 452 1122 l 569 1122 l 441 861 l 294 861 l 166 1122 l 283 1122 l 368 940 l 452 1122 z "},"ĝ":{"ha":707,"x_min":43,"x_max":632,"o":"m 290 -319 q 189 -312 242 -319 q 92 -292 135 -306 l 92 -156 q 276 -184 185 -184 q 418 -140 372 -184 q 464 10 464 -95 l 464 77 l 456 77 q 389 14 431 38 q 292 -10 347 -10 q 168 28 224 -10 q 77 150 112 66 q 43 365 43 234 q 134 668 43 567 q 408 769 224 769 q 526 760 465 769 q 632 733 586 750 l 632 38 q 547 -235 632 -150 q 290 -319 463 -319 m 359 132 q 418 146 390 132 q 464 185 447 160 l 464 630 q 394 638 429 638 q 260 578 305 638 q 215 380 215 519 q 233 228 215 283 q 281 153 250 174 q 359 132 312 132 m 569 861 l 452 861 l 368 1044 l 283 861 l 166 861 l 294 1122 l 441 1122 l 569 861 z "},"ģ":{"ha":707,"x_min":43,"x_max":632,"o":"m 290 -319 q 189 -312 242 -319 q 92 -292 135 -306 l 92 -156 q 276 -184 185 -184 q 418 -140 372 -184 q 464 10 464 -95 l 464 77 l 456 77 q 389 14 431 38 q 292 -10 347 -10 q 168 28 224 -10 q 77 150 112 66 q 43 365 43 234 q 134 668 43 567 q 408 769 224 769 q 526 760 465 769 q 632 733 586 750 l 632 38 q 547 -235 632 -150 q 290 -319 463 -319 m 359 132 q 418 146 390 132 q 464 185 447 160 l 464 630 q 394 638 429 638 q 260 578 305 638 q 215 380 215 519 q 233 228 215 283 q 281 153 250 174 q 359 132 312 132 m 388 1028 q 447 1006 427 1024 q 466 958 466 987 q 442 907 466 925 q 369 888 417 888 q 269 981 269 888 q 283 1056 269 1015 q 317 1128 296 1096 l 423 1128 q 388 1028 395 1069 z "},"ġ":{"ha":707,"x_min":43,"x_max":632,"o":"m 290 -319 q 189 -312 242 -319 q 92 -292 135 -306 l 92 -156 q 276 -184 185 -184 q 418 -140 372 -184 q 464 10 464 -95 l 464 77 l 456 77 q 389 14 431 38 q 292 -10 347 -10 q 168 28 224 -10 q 77 150 112 66 q 43 365 43 234 q 134 668 43 567 q 408 769 224 769 q 526 760 465 769 q 632 733 586 750 l 632 38 q 547 -235 632 -150 q 290 -319 463 -319 m 359 132 q 418 146 390 132 q 464 185 447 160 l 464 630 q 394 638 429 638 q 260 578 305 638 q 215 380 215 519 q 233 228 215 283 q 281 153 250 174 q 359 132 312 132 m 367 888 q 286 913 314 888 q 259 986 259 939 q 286 1059 259 1033 q 367 1085 314 1085 q 449 1059 421 1085 q 476 986 476 1033 q 449 913 476 939 q 367 888 422 888 z "},"ḡ":{"ha":707,"x_min":43,"x_max":632,"o":"m 290 -319 q 189 -312 242 -319 q 92 -292 135 -306 l 92 -156 q 276 -184 185 -184 q 418 -140 372 -184 q 464 10 464 -95 l 464 77 l 456 77 q 389 14 431 38 q 292 -10 347 -10 q 168 28 224 -10 q 77 150 112 66 q 43 365 43 234 q 134 668 43 567 q 408 769 224 769 q 526 760 465 769 q 632 733 586 750 l 632 38 q 547 -235 632 -150 q 290 -319 463 -319 m 359 132 q 418 146 390 132 q 464 185 447 160 l 464 630 q 394 638 429 638 q 260 578 305 638 q 215 380 215 519 q 233 228 215 283 q 281 153 250 174 q 359 132 312 132 m 153 931 l 153 1042 l 581 1042 l 581 931 l 153 931 z "},"h":{"ha":710,"x_min":75,"x_max":640,"o":"m 75 1122 l 243 1122 l 243 676 l 251 676 q 438 769 319 769 q 584 708 529 769 q 640 511 640 647 l 640 0 l 472 0 l 472 499 q 446 591 472 564 q 373 618 420 618 q 301 600 338 618 q 243 547 265 583 l 243 0 l 75 0 l 75 1122 z "},"ħ":{"ha":710,"x_min":2,"x_max":640,"o":"m 438 769 q 584 708 529 769 q 640 511 640 647 l 640 0 l 472 0 l 472 499 q 446 591 472 564 q 373 618 420 618 q 301 600 338 618 q 243 547 265 583 l 243 0 l 75 0 l 75 881 l 2 881 l 2 999 l 75 999 l 75 1122 l 243 1122 l 243 999 l 425 999 l 425 881 l 243 881 l 243 676 l 251 676 q 438 769 319 769 z "},"ḫ":{"ha":710,"x_min":75,"x_max":640,"o":"m 75 1122 l 243 1122 l 243 676 l 251 676 q 438 769 319 769 q 584 708 529 769 q 640 511 640 647 l 640 0 l 472 0 l 472 499 q 446 591 472 564 q 373 618 420 618 q 301 600 338 618 q 243 547 265 583 l 243 0 l 75 0 l 75 1122 m 358 -308 q 210 -255 265 -308 q 153 -103 156 -201 l 260 -103 q 358 -218 263 -218 q 456 -103 453 -218 l 563 -103 q 506 -255 560 -201 q 358 -308 451 -308 z "},"ĥ":{"ha":710,"x_min":75,"x_max":640,"o":"m 75 1122 l 243 1122 l 243 676 l 251 676 q 438 769 319 769 q 584 708 529 769 q 640 511 640 647 l 640 0 l 472 0 l 472 499 q 446 591 472 564 q 373 618 420 618 q 301 600 338 618 q 243 547 265 583 l 243 0 l 75 0 l 75 1122 m 566 1178 l 447 1178 l 358 1319 l 269 1178 l 150 1178 l 285 1383 l 431 1383 l 566 1178 z "},"ḥ":{"ha":710,"x_min":75,"x_max":640,"o":"m 75 1122 l 243 1122 l 243 676 l 251 676 q 438 769 319 769 q 584 708 529 769 q 640 511 640 647 l 640 0 l 472 0 l 472 499 q 446 591 472 564 q 373 618 420 618 q 301 600 338 618 q 243 547 265 583 l 243 0 l 75 0 l 75 1122 m 358 -287 q 287 -262 313 -287 q 261 -193 261 -237 q 288 -123 261 -149 q 358 -97 314 -97 q 428 -123 402 -97 q 455 -193 455 -149 q 428 -262 455 -237 q 358 -287 402 -287 z "},"i":{"ha":319,"x_min":51,"x_max":268,"o":"m 75 0 l 75 758 l 244 758 l 244 0 l 75 0 m 159 888 q 78 913 106 888 q 51 986 51 939 q 78 1059 51 1033 q 159 1085 106 1085 q 240 1059 213 1085 q 268 986 268 1033 q 241 913 268 939 q 159 888 213 888 z "},"ı":{"ha":319,"x_min":75,"x_max":244,"o":"m 75 0 l 75 758 l 244 758 l 244 0 l 75 0 z "},"í":{"ha":319,"x_min":75,"x_max":383,"o":"m 75 0 l 75 758 l 244 758 l 244 0 l 75 0 m 87 861 l 213 1122 l 383 1122 l 232 861 l 87 861 z "},"ĭ":{"ha":319,"x_min":-45,"x_max":364,"o":"m 75 0 l 75 758 l 244 758 l 244 0 l 75 0 m 160 869 q 15 928 69 869 q -45 1106 -40 986 l 61 1106 q 90 996 65 1030 q 160 962 115 962 q 230 996 205 962 q 258 1106 255 1030 l 364 1106 q 305 927 358 985 q 160 869 251 869 z "},"î":{"ha":319,"x_min":-42,"x_max":361,"o":"m 75 0 l 75 758 l 244 758 l 244 0 l 75 0 m 361 861 l 244 861 l 160 1044 l 75 861 l -42 861 l 86 1122 l 233 1122 l 361 861 z "},"ȉ":{"ha":319,"x_min":-117,"x_max":346,"o":"m 75 0 l 75 758 l 244 758 l 244 0 l 75 0 m -27 861 l -117 1122 l 22 1122 l 102 861 l -27 861 m 217 861 l 127 1122 l 267 1122 l 346 861 l 217 861 z "},"ï":{"ha":319,"x_min":-80,"x_max":399,"o":"m 75 0 l 75 758 l 244 758 l 244 0 l 75 0 m 17 891 q -53 917 -27 891 q -80 986 -80 942 q -53 1056 -80 1030 q 17 1081 -27 1081 q 88 1056 61 1081 q 114 986 114 1030 q 88 917 114 942 q 17 891 61 891 m 301 891 q 231 917 258 891 q 205 986 205 942 q 231 1056 205 1030 q 301 1081 258 1081 q 372 1056 346 1081 q 399 986 399 1030 q 372 917 399 942 q 301 891 346 891 z "},"ḯ":{"ha":319,"x_min":-80,"x_max":399,"o":"m 75 0 l 75 758 l 244 758 l 244 0 l 75 0 m 17 891 q -53 917 -27 891 q -80 986 -80 942 q -53 1056 -80 1030 q 17 1081 -27 1081 q 88 1056 61 1081 q 114 986 114 1030 q 88 917 114 942 q 17 891 61 891 m 301 891 q 231 917 258 891 q 205 986 205 942 q 231 1056 205 1030 q 301 1081 258 1081 q 372 1056 346 1081 q 399 986 399 1030 q 372 917 399 942 q 301 891 346 891 m 85 1159 l 187 1365 l 362 1365 l 233 1159 l 85 1159 z "},"ị":{"ha":319,"x_min":51,"x_max":268,"o":"m 75 0 l 75 758 l 244 758 l 244 0 l 75 0 m 159 888 q 78 913 106 888 q 51 986 51 939 q 78 1059 51 1033 q 159 1085 106 1085 q 240 1059 213 1085 q 268 986 268 1033 q 241 913 268 939 q 159 888 213 888 m 159 -287 q 89 -262 115 -287 q 63 -193 63 -237 q 89 -123 63 -149 q 159 -97 115 -97 q 230 -123 203 -97 q 256 -193 256 -149 q 230 -262 256 -237 q 159 -287 203 -287 z "},"ì":{"ha":319,"x_min":-64,"x_max":244,"o":"m 75 0 l 75 758 l 244 758 l 244 0 l 75 0 m 87 861 l -64 1122 l 106 1122 l 232 861 l 87 861 z "},"ỉ":{"ha":319,"x_min":42,"x_max":305,"o":"m 75 0 l 75 758 l 244 758 l 244 0 l 75 0 m 114 861 q 131 923 115 900 q 174 968 147 946 q 199 992 191 982 q 208 1017 208 1003 q 144 1056 208 1056 q 42 1040 90 1056 l 42 1113 q 96 1126 65 1121 q 156 1131 128 1131 q 305 1028 305 1131 q 298 988 305 1004 q 280 960 290 971 q 252 934 269 949 q 218 900 229 915 q 204 861 206 885 l 114 861 z "},"ȋ":{"ha":319,"x_min":-45,"x_max":364,"o":"m 75 0 l 75 758 l 244 758 l 244 0 l 75 0 m -45 881 q 13 1059 -40 1002 q 159 1117 66 1117 q 304 1059 249 1117 q 364 881 358 1001 l 258 881 q 229 992 254 958 q 159 1026 203 1026 q 88 992 112 1026 q 61 881 64 958 l -45 881 z "},"ī":{"ha":319,"x_min":-55,"x_max":373,"o":"m 75 0 l 75 758 l 244 758 l 244 0 l 75 0 m -55 931 l -55 1042 l 373 1042 l 373 931 l -55 931 z "},"į":{"ha":319,"x_min":10,"x_max":275,"o":"m 159 888 q 78 913 106 888 q 51 986 51 939 q 78 1059 51 1033 q 159 1085 106 1085 q 240 1059 213 1085 q 268 986 268 1033 q 241 913 268 939 q 159 888 213 888 m 188 -226 q 275 -202 226 -226 l 275 -276 q 169 -301 226 -301 q 51 -264 92 -301 q 10 -163 10 -228 q 33 -76 10 -115 q 109 0 56 -36 l 75 0 l 75 758 l 244 758 l 244 0 q 139 -74 169 -37 q 109 -153 109 -111 q 130 -207 109 -188 q 188 -226 150 -226 z "},"ĩ":{"ha":319,"x_min":-55,"x_max":373,"o":"m 75 0 l 75 758 l 244 758 l 244 0 l 75 0 m 256 909 q 205 917 230 909 q 149 942 181 926 q 99 963 118 956 q 60 970 80 970 q 0 957 26 970 q -55 913 -27 943 l -55 1029 q -3 1067 -32 1054 q 63 1079 26 1079 q 114 1071 89 1079 q 170 1047 138 1063 q 221 1025 203 1032 q 258 1019 239 1019 q 319 1032 292 1019 q 373 1075 346 1046 l 373 960 q 322 922 350 934 q 256 909 294 909 z "},"j":{"ha":319,"x_min":-31,"x_max":268,"o":"m -31 -251 q 51 -80 28 -162 q 75 121 75 3 l 75 758 l 244 758 l 244 130 q 207 -111 244 -7 q 82 -326 170 -216 l -31 -251 m 159 888 q 78 913 106 888 q 51 986 51 939 q 78 1059 51 1033 q 159 1085 106 1085 q 240 1059 213 1085 q 268 986 268 1033 q 241 913 268 939 q 159 888 213 888 z "},"ȷ":{"ha":319,"x_min":-31,"x_max":244,"o":"m -31 -251 q 51 -80 28 -162 q 75 121 75 3 l 75 758 l 244 758 l 244 130 q 207 -111 244 -7 q 82 -326 170 -216 l -31 -251 z "},"ĵ":{"ha":319,"x_min":-42,"x_max":361,"o":"m -31 -251 q 51 -80 28 -162 q 75 121 75 3 l 75 758 l 244 758 l 244 130 q 207 -111 244 -7 q 82 -326 170 -216 l -31 -251 m 361 861 l 244 861 l 160 1044 l 75 861 l -42 861 l 86 1122 l 233 1122 l 361 861 z "},"k":{"ha":676,"x_min":75,"x_max":700,"o":"m 517 0 l 315 322 l 243 322 l 243 0 l 75 0 l 75 1122 l 243 1122 l 243 456 l 313 456 l 498 758 l 676 758 l 454 392 l 700 0 l 517 0 z "},"ķ":{"ha":676,"x_min":75,"x_max":700,"o":"m 517 0 l 315 322 l 243 322 l 243 0 l 75 0 l 75 1122 l 243 1122 l 243 456 l 313 456 l 498 758 l 676 758 l 454 392 l 700 0 l 517 0 m 367 -97 q 467 -190 467 -97 q 453 -265 467 -224 q 419 -337 440 -305 l 313 -337 q 348 -237 341 -278 q 290 -215 309 -233 q 270 -167 270 -197 q 294 -116 270 -134 q 367 -97 319 -97 z "},"ĸ":{"ha":676,"x_min":75,"x_max":700,"o":"m 517 0 l 315 322 l 243 322 l 243 0 l 75 0 l 75 758 l 243 758 l 243 456 l 313 456 l 498 758 l 676 758 l 454 392 l 700 0 l 517 0 z "},"l":{"ha":318,"x_min":75,"x_max":243,"o":"m 75 0 l 75 1122 l 243 1122 l 243 0 l 75 0 z "},"ĺ":{"ha":318,"x_min":75,"x_max":362,"o":"m 75 0 l 75 1122 l 243 1122 l 243 0 l 75 0 m 85 1178 l 187 1383 l 362 1383 l 233 1178 l 85 1178 z "},"ľ":{"ha":318,"x_min":75,"x_max":424,"o":"m 75 0 l 75 1122 l 243 1122 l 243 0 l 75 0 m 288 819 q 305 1122 305 948 l 424 1122 q 413 962 424 1042 q 383 819 403 883 l 288 819 z "},"ļ":{"ha":318,"x_min":61,"x_max":258,"o":"m 75 0 l 75 1122 l 243 1122 l 243 0 l 75 0 m 158 -97 q 258 -190 258 -97 q 244 -265 258 -224 q 210 -337 231 -305 l 104 -337 q 139 -237 132 -278 q 81 -215 100 -233 q 61 -167 61 -197 q 85 -116 61 -134 q 158 -97 110 -97 z "},"ŀ":{"ha":479,"x_min":75,"x_max":505,"o":"m 75 0 l 75 1122 l 243 1122 l 243 0 l 75 0 m 397 452 q 316 478 343 452 q 288 551 288 504 q 316 624 288 598 q 397 650 343 650 q 477 624 450 650 q 505 551 505 598 q 477 478 505 504 q 397 452 450 452 z "},"ḷ":{"ha":318,"x_min":63,"x_max":256,"o":"m 75 0 l 75 1122 l 243 1122 l 243 0 l 75 0 m 159 -287 q 89 -262 115 -287 q 63 -193 63 -237 q 89 -123 63 -149 q 159 -97 115 -97 q 230 -123 203 -97 q 256 -193 256 -149 q 230 -262 256 -237 q 159 -287 203 -287 z "},"ǉ":{"ha":637,"x_min":75,"x_max":586,"o":"m 75 0 l 75 1122 l 243 1122 l 243 0 l 75 0 m 287 -251 q 369 -80 346 -162 q 393 121 393 3 l 393 758 l 562 758 l 562 130 q 525 -111 562 -7 q 400 -326 488 -216 l 287 -251 m 477 888 q 396 913 424 888 q 369 986 369 939 q 396 1059 369 1033 q 477 1085 424 1085 q 558 1059 531 1085 q 586 986 586 1033 q 559 913 586 939 q 477 888 531 888 z "},"ḻ":{"ha":318,"x_min":-45,"x_max":364,"o":"m 75 0 l 75 1122 l 243 1122 l 243 0 l 75 0 m -45 -247 l -45 -135 l 364 -135 l 364 -247 l -45 -247 z "},"ł":{"ha":356,"x_min":-15,"x_max":372,"o":"m 372 552 l 262 483 l 262 0 l 94 0 l 94 377 l 40 343 l -15 440 l 94 508 l 94 1122 l 262 1122 l 262 614 l 317 649 l 372 552 z "},"m":{"ha":1074,"x_min":75,"x_max":1004,"o":"m 796 769 q 948 708 891 769 q 1004 510 1004 647 l 1004 0 l 836 0 l 836 501 q 741 619 836 619 q 678 603 711 619 q 622 553 644 587 q 623 519 623 531 l 623 0 l 458 0 l 458 501 q 434 592 458 565 q 366 619 410 619 q 298 600 333 619 q 243 545 264 582 l 243 0 l 75 0 l 75 758 l 215 758 l 228 676 l 237 676 q 428 769 310 769 q 528 745 485 769 q 595 669 571 721 q 686 744 634 719 q 796 769 739 769 z "},"ṃ":{"ha":1074,"x_min":75,"x_max":1004,"o":"m 796 769 q 948 708 891 769 q 1004 510 1004 647 l 1004 0 l 836 0 l 836 501 q 741 619 836 619 q 678 603 711 619 q 622 553 644 587 q 623 519 623 531 l 623 0 l 458 0 l 458 501 q 434 592 458 565 q 366 619 410 619 q 298 600 333 619 q 243 545 264 582 l 243 0 l 75 0 l 75 758 l 215 758 l 228 676 l 237 676 q 428 769 310 769 q 528 745 485 769 q 595 669 571 721 q 686 744 634 719 q 796 769 739 769 m 541 -287 q 470 -262 497 -287 q 444 -193 444 -237 q 471 -123 444 -149 q 541 -97 497 -97 q 612 -123 585 -97 q 638 -193 638 -149 q 612 -262 638 -237 q 541 -287 585 -287 z "},"n":{"ha":710,"x_min":75,"x_max":640,"o":"m 75 758 l 215 758 l 228 676 l 237 676 q 322 745 273 722 q 430 769 371 769 q 583 709 526 769 q 640 513 640 648 l 640 0 l 472 0 l 472 501 q 446 592 472 565 q 373 619 420 619 q 301 601 337 619 q 243 547 265 583 l 243 0 l 75 0 l 75 758 z "},"ń":{"ha":710,"x_min":75,"x_max":640,"o":"m 75 758 l 215 758 l 228 676 l 237 676 q 322 745 273 722 q 430 769 371 769 q 583 709 526 769 q 640 513 640 648 l 640 0 l 472 0 l 472 501 q 446 592 472 565 q 373 619 420 619 q 301 601 337 619 q 243 547 265 583 l 243 0 l 75 0 l 75 758 m 285 861 l 411 1122 l 581 1122 l 431 861 l 285 861 z "},"ŉ":{"ha":710,"x_min":7,"x_max":640,"o":"m 75 758 l 215 758 l 228 676 l 237 676 q 322 745 273 722 q 430 769 371 769 q 583 709 526 769 q 640 513 640 648 l 640 0 l 472 0 l 472 501 q 446 592 472 565 q 373 619 420 619 q 301 601 337 619 q 243 547 265 583 l 243 0 l 75 0 l 75 758 m 105 1128 q 204 1035 204 1128 q 191 960 204 1001 q 157 888 178 920 l 51 888 q 85 988 79 948 q 26 1010 46 992 q 7 1058 7 1029 q 32 1109 7 1091 q 105 1128 56 1128 z "},"ň":{"ha":710,"x_min":75,"x_max":640,"o":"m 75 758 l 215 758 l 228 676 l 237 676 q 322 745 273 722 q 430 769 371 769 q 583 709 526 769 q 640 513 640 648 l 640 0 l 472 0 l 472 501 q 446 592 472 565 q 373 619 420 619 q 301 601 337 619 q 243 547 265 583 l 243 0 l 75 0 l 75 758 m 442 1122 l 560 1122 l 431 861 l 285 861 l 156 1122 l 274 1122 l 358 940 l 442 1122 z "},"ņ":{"ha":710,"x_min":75,"x_max":640,"o":"m 75 758 l 215 758 l 228 676 l 237 676 q 322 745 273 722 q 430 769 371 769 q 583 709 526 769 q 640 513 640 648 l 640 0 l 472 0 l 472 501 q 446 592 472 565 q 373 619 420 619 q 301 601 337 619 q 243 547 265 583 l 243 0 l 75 0 l 75 758 m 357 -97 q 456 -190 456 -97 q 443 -265 456 -224 q 409 -337 430 -305 l 303 -337 q 338 -237 331 -278 q 279 -215 299 -233 q 260 -167 260 -197 q 284 -116 260 -134 q 357 -97 308 -97 z "},"ṅ":{"ha":710,"x_min":75,"x_max":640,"o":"m 75 758 l 215 758 l 228 676 l 237 676 q 322 745 273 722 q 430 769 371 769 q 583 709 526 769 q 640 513 640 648 l 640 0 l 472 0 l 472 501 q 446 592 472 565 q 373 619 420 619 q 301 601 337 619 q 243 547 265 583 l 243 0 l 75 0 l 75 758 m 358 888 q 277 913 304 888 q 249 986 249 939 q 277 1059 249 1033 q 358 1085 304 1085 q 439 1059 411 1085 q 467 986 467 1033 q 439 913 467 939 q 358 888 412 888 z "},"ṇ":{"ha":710,"x_min":75,"x_max":640,"o":"m 75 758 l 215 758 l 228 676 l 237 676 q 322 745 273 722 q 430 769 371 769 q 583 709 526 769 q 640 513 640 648 l 640 0 l 472 0 l 472 501 q 446 592 472 565 q 373 619 420 619 q 301 601 337 619 q 243 547 265 583 l 243 0 l 75 0 l 75 758 m 358 -287 q 287 -262 313 -287 q 261 -193 261 -237 q 288 -123 261 -149 q 358 -97 314 -97 q 428 -123 402 -97 q 455 -193 455 -149 q 428 -262 455 -237 q 358 -287 402 -287 z "},"ŋ":{"ha":710,"x_min":75,"x_max":640,"o":"m 365 -251 q 448 -80 424 -162 q 472 121 472 3 l 472 503 q 446 595 472 567 q 373 622 420 622 q 301 605 338 622 q 243 551 265 587 l 243 0 l 75 0 l 75 758 l 215 758 l 228 676 l 237 676 q 430 769 313 769 q 583 709 526 769 q 640 511 640 648 l 640 117 q 601 -115 638 -12 q 478 -326 565 -217 l 365 -251 z "},"ǌ":{"ha":1028,"x_min":75,"x_max":978,"o":"m 75 758 l 215 758 l 228 676 l 237 676 q 322 745 273 722 q 430 769 371 769 q 583 709 526 769 q 640 513 640 648 l 640 0 l 472 0 l 472 501 q 446 592 472 565 q 373 619 420 619 q 301 601 337 619 q 243 547 265 583 l 243 0 l 75 0 l 75 758 m 678 -251 q 761 -80 738 -162 q 785 121 785 3 l 785 758 l 953 758 l 953 130 q 917 -111 953 -7 q 792 -326 880 -216 l 678 -251 m 869 888 q 788 913 815 888 q 760 986 760 939 q 788 1059 760 1033 q 869 1085 815 1085 q 950 1059 922 1085 q 978 986 978 1033 q 950 913 978 939 q 869 888 923 888 z "},"ṉ":{"ha":710,"x_min":75,"x_max":640,"o":"m 75 758 l 215 758 l 228 676 l 237 676 q 322 745 273 722 q 430 769 371 769 q 583 709 526 769 q 640 513 640 648 l 640 0 l 472 0 l 472 501 q 446 592 472 565 q 373 619 420 619 q 301 601 337 619 q 243 547 265 583 l 243 0 l 75 0 l 75 758 m 153 -247 l 153 -135 l 563 -135 l 563 -247 l 153 -247 z "},"ñ":{"ha":710,"x_min":75,"x_max":640,"o":"m 75 758 l 215 758 l 228 676 l 237 676 q 322 745 273 722 q 430 769 371 769 q 583 709 526 769 q 640 513 640 648 l 640 0 l 472 0 l 472 501 q 446 592 472 565 q 373 619 420 619 q 301 601 337 619 q 243 547 265 583 l 243 0 l 75 0 l 75 758 m 455 909 q 404 917 428 909 q 347 942 379 926 q 298 963 317 956 q 259 970 278 970 q 198 957 225 970 q 144 913 172 943 l 144 1029 q 195 1067 167 1054 q 261 1079 224 1079 q 312 1071 288 1079 q 369 1047 337 1063 q 419 1025 401 1032 q 457 1019 438 1019 q 518 1032 491 1019 q 572 1075 544 1046 l 572 960 q 520 922 549 934 q 455 909 492 909 z "},"o":{"ha":692,"x_min":43,"x_max":650,"o":"m 347 -14 q 122 81 200 -14 q 43 376 43 176 q 347 769 43 769 q 571 673 492 769 q 650 377 650 576 q 347 -14 650 -14 m 347 115 q 418 137 390 115 q 462 216 447 159 q 477 374 477 273 q 462 537 477 478 q 418 618 447 595 q 347 641 390 641 q 274 618 303 641 q 231 538 246 596 q 215 378 215 481 q 231 217 215 275 q 274 137 246 160 q 347 115 302 115 z "},"ó":{"ha":692,"x_min":43,"x_max":650,"o":"m 347 -14 q 122 81 200 -14 q 43 376 43 176 q 347 769 43 769 q 571 673 492 769 q 650 377 650 576 q 347 -14 650 -14 m 347 115 q 418 137 390 115 q 462 216 447 159 q 477 374 477 273 q 462 537 477 478 q 418 618 447 595 q 347 641 390 641 q 274 618 303 641 q 231 538 246 596 q 215 378 215 481 q 231 217 215 275 q 274 137 246 160 q 347 115 302 115 m 274 861 l 400 1122 l 570 1122 l 419 861 l 274 861 z "},"ŏ":{"ha":692,"x_min":43,"x_max":650,"o":"m 347 -14 q 122 81 200 -14 q 43 376 43 176 q 347 769 43 769 q 571 673 492 769 q 650 377 650 576 q 347 -14 650 -14 m 347 115 q 418 137 390 115 q 462 216 447 159 q 477 374 477 273 q 462 537 477 478 q 418 618 447 595 q 347 641 390 641 q 274 618 303 641 q 231 538 246 596 q 215 378 215 481 q 231 217 215 275 q 274 137 246 160 q 347 115 302 115 m 347 869 q 202 928 256 869 q 142 1106 148 986 l 249 1106 q 277 996 252 1030 q 347 962 302 962 q 417 996 392 962 q 445 1106 442 1030 l 551 1106 q 492 927 546 985 q 347 869 439 869 z "},"ô":{"ha":692,"x_min":43,"x_max":650,"o":"m 347 -14 q 122 81 200 -14 q 43 376 43 176 q 347 769 43 769 q 571 673 492 769 q 650 377 650 576 q 347 -14 650 -14 m 347 115 q 418 137 390 115 q 462 216 447 159 q 477 374 477 273 q 462 537 477 478 q 418 618 447 595 q 347 641 390 641 q 274 618 303 641 q 231 538 246 596 q 215 378 215 481 q 231 217 215 275 q 274 137 246 160 q 347 115 302 115 m 549 861 l 431 861 l 347 1044 l 263 861 l 145 861 l 274 1122 l 420 1122 l 549 861 z "},"ố":{"ha":692,"x_min":43,"x_max":735,"o":"m 347 -14 q 122 81 200 -14 q 43 376 43 176 q 347 769 43 769 q 571 673 492 769 q 650 377 650 576 q 347 -14 650 -14 m 347 115 q 418 137 390 115 q 462 216 447 159 q 477 374 477 273 q 462 537 477 478 q 418 618 447 595 q 347 641 390 641 q 274 618 303 641 q 231 538 246 596 q 215 378 215 481 q 231 217 215 275 q 274 137 246 160 q 347 115 302 115 m 592 1297 l 735 1297 l 607 1109 l 490 1109 l 592 1297 m 274 1122 l 420 1122 l 549 861 l 431 861 l 347 1044 l 263 861 l 145 861 l 274 1122 z "},"ộ":{"ha":692,"x_min":43,"x_max":650,"o":"m 347 -14 q 122 81 200 -14 q 43 376 43 176 q 347 769 43 769 q 571 673 492 769 q 650 377 650 576 q 347 -14 650 -14 m 347 115 q 418 137 390 115 q 462 216 447 159 q 477 374 477 273 q 462 537 477 478 q 418 618 447 595 q 347 641 390 641 q 274 618 303 641 q 231 538 246 596 q 215 378 215 481 q 231 217 215 275 q 274 137 246 160 q 347 115 302 115 m 347 -287 q 276 -262 302 -287 q 250 -193 250 -237 q 276 -123 250 -149 q 347 -97 303 -97 q 417 -123 391 -97 q 444 -193 444 -149 q 417 -262 444 -237 q 347 -287 391 -287 m 549 861 l 431 861 l 347 1044 l 263 861 l 145 861 l 274 1122 l 420 1122 l 549 861 z "},"ồ":{"ha":692,"x_min":43,"x_max":650,"o":"m 347 -14 q 122 81 200 -14 q 43 376 43 176 q 347 769 43 769 q 571 673 492 769 q 650 377 650 576 q 347 -14 650 -14 m 347 115 q 418 137 390 115 q 462 216 447 159 q 477 374 477 273 q 462 537 477 478 q 418 618 447 595 q 347 641 390 641 q 274 618 303 641 q 231 538 246 596 q 215 378 215 481 q 231 217 215 275 q 274 137 246 160 q 347 115 302 115 m 622 1109 l 506 1109 l 377 1297 l 520 1297 l 622 1109 m 274 1122 l 420 1122 l 549 861 l 431 861 l 347 1044 l 263 861 l 145 861 l 274 1122 z "},"ổ":{"ha":692,"x_min":43,"x_max":683,"o":"m 347 -14 q 122 81 200 -14 q 43 376 43 176 q 347 769 43 769 q 571 673 492 769 q 650 377 650 576 q 347 -14 650 -14 m 347 115 q 418 137 390 115 q 462 216 447 159 q 477 374 477 273 q 462 537 477 478 q 418 618 447 595 q 347 641 390 641 q 274 618 303 641 q 231 538 246 596 q 215 378 215 481 q 231 217 215 275 q 274 137 246 160 q 347 115 302 115 m 528 1307 q 683 1226 683 1307 q 669 1188 683 1202 q 625 1160 654 1174 q 588 1137 601 1147 q 572 1109 574 1126 l 482 1109 q 502 1155 484 1139 q 550 1184 519 1170 q 578 1200 569 1194 q 586 1215 586 1206 q 515 1242 586 1242 q 453 1238 485 1242 q 392 1224 420 1233 l 392 1288 q 456 1302 417 1297 q 528 1307 494 1307 m 274 1122 l 420 1122 l 549 861 l 431 861 l 347 1044 l 263 861 l 145 861 l 274 1122 z "},"ỗ":{"ha":692,"x_min":43,"x_max":650,"o":"m 347 -14 q 122 81 200 -14 q 43 376 43 176 q 347 769 43 769 q 571 673 492 769 q 650 377 650 576 q 347 -14 650 -14 m 347 115 q 418 137 390 115 q 462 216 447 159 q 477 374 477 273 q 462 537 477 478 q 418 618 447 595 q 347 641 390 641 q 274 618 303 641 q 231 538 246 596 q 215 378 215 481 q 231 217 215 275 q 274 137 246 160 q 347 115 302 115 m 450 1228 q 513 1239 485 1228 q 568 1275 540 1251 l 568 1178 q 516 1144 545 1155 q 449 1133 488 1133 q 395 1140 420 1133 q 336 1160 370 1147 q 286 1178 307 1172 q 244 1184 265 1184 q 181 1173 208 1184 q 125 1137 153 1161 l 125 1234 q 178 1268 149 1256 q 245 1279 207 1279 q 299 1272 274 1279 q 358 1251 325 1265 q 410 1233 390 1239 q 450 1228 429 1228 m 274 1092 l 420 1092 l 549 862 l 431 862 l 347 1026 l 263 862 l 145 862 l 274 1092 z "},"ȍ":{"ha":692,"x_min":43,"x_max":650,"o":"m 347 -14 q 122 81 200 -14 q 43 376 43 176 q 347 769 43 769 q 571 673 492 769 q 650 377 650 576 q 347 -14 650 -14 m 347 115 q 418 137 390 115 q 462 216 447 159 q 477 374 477 273 q 462 537 477 478 q 418 618 447 595 q 347 641 390 641 q 274 618 303 641 q 231 538 246 596 q 215 378 215 481 q 231 217 215 275 q 274 137 246 160 q 347 115 302 115 m 160 861 l 71 1122 l 210 1122 l 290 861 l 160 861 m 404 861 l 315 1122 l 454 1122 l 533 861 l 404 861 z "},"ö":{"ha":692,"x_min":43,"x_max":650,"o":"m 347 -14 q 122 81 200 -14 q 43 376 43 176 q 347 769 43 769 q 571 673 492 769 q 650 377 650 576 q 347 -14 650 -14 m 347 115 q 418 137 390 115 q 462 216 447 159 q 477 374 477 273 q 462 537 477 478 q 418 618 447 595 q 347 641 390 641 q 274 618 303 641 q 231 538 246 596 q 215 378 215 481 q 231 217 215 275 q 274 137 246 160 q 347 115 302 115 m 205 891 q 134 917 160 891 q 108 986 108 942 q 134 1056 108 1030 q 205 1081 160 1081 q 275 1056 249 1081 q 301 986 301 1030 q 275 917 301 942 q 205 891 249 891 m 489 891 q 419 917 445 891 q 392 986 392 942 q 419 1056 392 1030 q 489 1081 445 1081 q 560 1056 533 1081 q 586 986 586 1030 q 560 917 586 942 q 489 891 533 891 z "},"ȫ":{"ha":692,"x_min":43,"x_max":650,"o":"m 347 -14 q 122 81 200 -14 q 43 376 43 176 q 347 769 43 769 q 571 673 492 769 q 650 377 650 576 q 347 -14 650 -14 m 347 115 q 418 137 390 115 q 462 216 447 159 q 477 374 477 273 q 462 537 477 478 q 418 618 447 595 q 347 641 390 641 q 274 618 303 641 q 231 538 246 596 q 215 378 215 481 q 231 217 215 275 q 274 137 246 160 q 347 115 302 115 m 205 891 q 134 917 160 891 q 108 986 108 942 q 134 1056 108 1030 q 205 1081 160 1081 q 275 1056 249 1081 q 301 986 301 1030 q 275 917 301 942 q 205 891 249 891 m 489 891 q 419 917 445 891 q 392 986 392 942 q 419 1056 392 1030 q 489 1081 445 1081 q 560 1056 533 1081 q 586 986 586 1030 q 560 917 586 942 q 489 891 533 891 m 133 1201 l 133 1313 l 560 1313 l 560 1201 l 133 1201 z "},"ȱ":{"ha":692,"x_min":43,"x_max":650,"o":"m 347 -14 q 122 81 200 -14 q 43 376 43 176 q 347 769 43 769 q 571 673 492 769 q 650 377 650 576 q 347 -14 650 -14 m 347 115 q 418 137 390 115 q 462 216 447 159 q 477 374 477 273 q 462 537 477 478 q 418 618 447 595 q 347 641 390 641 q 274 618 303 641 q 231 538 246 596 q 215 378 215 481 q 231 217 215 275 q 274 137 246 160 q 347 115 302 115 m 347 888 q 266 913 293 888 q 238 986 238 939 q 266 1059 238 1033 q 347 1085 293 1085 q 428 1059 400 1085 q 456 986 456 1033 q 428 913 456 939 q 347 888 401 888 m 133 1173 l 133 1285 l 560 1285 l 560 1173 l 133 1173 z "},"ọ":{"ha":692,"x_min":43,"x_max":650,"o":"m 347 -14 q 122 81 200 -14 q 43 376 43 176 q 347 769 43 769 q 571 673 492 769 q 650 377 650 576 q 347 -14 650 -14 m 347 115 q 418 137 390 115 q 462 216 447 159 q 477 374 477 273 q 462 537 477 478 q 418 618 447 595 q 347 641 390 641 q 274 618 303 641 q 231 538 246 596 q 215 378 215 481 q 231 217 215 275 q 274 137 246 160 q 347 115 302 115 m 347 -287 q 276 -262 302 -287 q 250 -193 250 -237 q 276 -123 250 -149 q 347 -97 303 -97 q 417 -123 391 -97 q 444 -193 444 -149 q 417 -262 444 -237 q 347 -287 391 -287 z "},"ò":{"ha":692,"x_min":43,"x_max":650,"o":"m 347 -14 q 122 81 200 -14 q 43 376 43 176 q 347 769 43 769 q 571 673 492 769 q 650 377 650 576 q 347 -14 650 -14 m 347 115 q 418 137 390 115 q 462 216 447 159 q 477 374 477 273 q 462 537 477 478 q 418 618 447 595 q 347 641 390 641 q 274 618 303 641 q 231 538 246 596 q 215 378 215 481 q 231 217 215 275 q 274 137 246 160 q 347 115 302 115 m 274 861 l 124 1122 l 294 1122 l 419 861 l 274 861 z "},"ỏ":{"ha":692,"x_min":43,"x_max":650,"o":"m 347 -14 q 122 81 200 -14 q 43 376 43 176 q 347 769 43 769 q 571 673 492 769 q 650 377 650 576 q 347 -14 650 -14 m 347 115 q 418 137 390 115 q 462 216 447 159 q 477 374 477 273 q 462 537 477 478 q 418 618 447 595 q 347 641 390 641 q 274 618 303 641 q 231 538 246 596 q 215 378 215 481 q 231 217 215 275 q 274 137 246 160 q 347 115 302 115 m 301 861 q 318 923 302 900 q 361 968 334 946 q 387 992 378 982 q 395 1017 395 1003 q 332 1056 395 1056 q 229 1040 277 1056 l 229 1113 q 284 1126 252 1121 q 344 1131 315 1131 q 492 1028 492 1131 q 485 988 492 1004 q 467 960 478 971 q 440 934 457 949 q 405 900 417 915 q 392 861 394 885 l 301 861 z "},"ơ":{"ha":692,"x_min":43,"x_max":674,"o":"m 674 863 q 643 749 674 792 q 557 688 613 705 q 650 377 650 591 q 347 -14 650 -14 q 122 81 200 -14 q 43 376 43 176 q 347 769 43 769 q 410 766 361 769 q 428 765 419 765 q 447 764 438 764 q 558 873 558 764 q 544 969 558 917 l 659 969 q 674 863 674 924 m 347 115 q 418 137 390 115 q 462 216 447 159 q 477 374 477 273 q 462 537 477 478 q 418 618 447 595 q 347 641 390 641 q 274 618 303 641 q 231 538 246 596 q 215 378 215 481 q 231 217 215 275 q 274 137 246 160 q 347 115 302 115 z "},"ớ":{"ha":692,"x_min":43,"x_max":674,"o":"m 544 1122 l 406 861 l 272 861 l 388 1122 l 544 1122 m 674 863 q 643 749 674 792 q 557 688 613 705 q 650 377 650 591 q 347 -14 650 -14 q 122 81 200 -14 q 43 376 43 176 q 347 769 43 769 q 410 766 361 769 q 428 765 419 765 q 447 764 438 764 q 558 873 558 764 q 544 969 558 917 l 659 969 q 674 863 674 924 m 347 115 q 418 137 390 115 q 462 216 447 159 q 477 374 477 273 q 462 537 477 478 q 418 618 447 595 q 347 641 390 641 q 274 618 303 641 q 231 538 246 596 q 215 378 215 481 q 231 217 215 275 q 274 137 246 160 q 347 115 302 115 z "},"ợ":{"ha":692,"x_min":43,"x_max":674,"o":"m 674 863 q 643 749 674 792 q 557 688 613 705 q 650 377 650 591 q 347 -14 650 -14 q 122 81 200 -14 q 43 376 43 176 q 347 769 43 769 q 410 766 361 769 q 428 765 419 765 q 447 764 438 764 q 558 873 558 764 q 544 969 558 917 l 659 969 q 674 863 674 924 m 347 115 q 418 137 390 115 q 462 216 447 159 q 477 374 477 273 q 462 537 477 478 q 418 618 447 595 q 347 641 390 641 q 274 618 303 641 q 231 538 246 596 q 215 378 215 481 q 231 217 215 275 q 274 137 246 160 q 347 115 302 115 m 347 -287 q 276 -262 302 -287 q 250 -193 250 -237 q 276 -123 250 -149 q 347 -97 303 -97 q 417 -123 391 -97 q 444 -193 444 -149 q 417 -262 444 -237 q 347 -287 391 -287 z "},"ờ":{"ha":692,"x_min":43,"x_max":674,"o":"m 674 863 q 643 749 674 792 q 557 688 613 705 q 650 377 650 591 q 347 -14 650 -14 q 122 81 200 -14 q 43 376 43 176 q 347 769 43 769 q 410 766 361 769 q 428 765 419 765 q 447 764 438 764 q 558 873 558 764 q 544 969 558 917 l 659 969 q 674 863 674 924 m 347 115 q 418 137 390 115 q 462 216 447 159 q 477 374 477 273 q 462 537 477 478 q 418 618 447 595 q 347 641 390 641 q 274 618 303 641 q 231 538 246 596 q 215 378 215 481 q 231 217 215 275 q 274 137 246 160 q 347 115 302 115 m 267 861 l 116 1122 l 286 1122 l 412 861 l 267 861 z "},"ở":{"ha":692,"x_min":43,"x_max":674,"o":"m 674 863 q 643 749 674 792 q 557 688 613 705 q 650 377 650 591 q 347 -14 650 -14 q 122 81 200 -14 q 43 376 43 176 q 347 769 43 769 q 410 766 361 769 q 428 765 419 765 q 447 764 438 764 q 558 873 558 764 q 544 969 558 917 l 659 969 q 674 863 674 924 m 347 115 q 418 137 390 115 q 462 216 447 159 q 477 374 477 273 q 462 537 477 478 q 418 618 447 595 q 347 641 390 641 q 274 618 303 641 q 231 538 246 596 q 215 378 215 481 q 231 217 215 275 q 274 137 246 160 q 347 115 302 115 m 294 861 q 310 923 294 900 q 353 968 326 946 q 379 992 371 982 q 388 1017 388 1003 q 324 1056 388 1056 q 222 1040 269 1056 l 222 1113 q 276 1126 244 1121 q 336 1131 308 1131 q 485 1028 485 1131 q 477 988 485 1004 q 460 960 470 971 q 432 934 449 949 q 398 900 409 915 q 384 861 386 885 l 294 861 z "},"ỡ":{"ha":692,"x_min":43,"x_max":674,"o":"m 233 970 q 178 956 204 970 q 125 913 151 942 l 125 1029 q 234 1079 170 1079 q 283 1071 261 1079 q 335 1047 306 1063 q 378 1026 360 1033 q 415 1019 395 1019 q 469 1033 443 1019 q 522 1075 496 1047 l 522 960 q 413 909 478 909 q 365 917 387 909 q 313 942 342 926 q 268 964 285 957 q 233 970 252 970 m 674 863 q 643 749 674 792 q 557 688 613 705 q 650 377 650 591 q 347 -14 650 -14 q 122 81 200 -14 q 43 376 43 176 q 347 769 43 769 q 410 766 361 769 q 428 765 419 765 q 447 764 438 764 q 558 873 558 764 q 544 969 558 917 l 659 969 q 674 863 674 924 m 347 115 q 418 137 390 115 q 462 216 447 159 q 477 374 477 273 q 462 537 477 478 q 418 618 447 595 q 347 641 390 641 q 274 618 303 641 q 231 538 246 596 q 215 378 215 481 q 231 217 215 275 q 274 137 246 160 q 347 115 302 115 z "},"ő":{"ha":692,"x_min":43,"x_max":650,"o":"m 347 -14 q 122 81 200 -14 q 43 376 43 176 q 347 769 43 769 q 571 673 492 769 q 650 377 650 576 q 347 -14 650 -14 m 347 115 q 418 137 390 115 q 462 216 447 159 q 477 374 477 273 q 462 537 477 478 q 418 618 447 595 q 347 641 390 641 q 274 618 303 641 q 231 538 246 596 q 215 378 215 481 q 231 217 215 275 q 274 137 246 160 q 347 115 302 115 m 160 861 l 241 1122 l 379 1122 l 290 861 l 160 861 m 404 861 l 484 1122 l 622 1122 l 533 861 l 404 861 z "},"ȏ":{"ha":692,"x_min":43,"x_max":650,"o":"m 347 -14 q 122 81 200 -14 q 43 376 43 176 q 347 769 43 769 q 571 673 492 769 q 650 377 650 576 q 347 -14 650 -14 m 347 115 q 418 137 390 115 q 462 216 447 159 q 477 374 477 273 q 462 537 477 478 q 418 618 447 595 q 347 641 390 641 q 274 618 303 641 q 231 538 246 596 q 215 378 215 481 q 231 217 215 275 q 274 137 246 160 q 347 115 302 115 m 142 881 q 201 1059 148 1002 q 347 1117 253 1117 q 491 1059 437 1117 q 551 881 546 1001 l 445 881 q 416 992 442 958 q 347 1026 391 1026 q 275 992 299 1026 q 249 881 251 958 l 142 881 z "},"ō":{"ha":692,"x_min":43,"x_max":650,"o":"m 347 -14 q 122 81 200 -14 q 43 376 43 176 q 347 769 43 769 q 571 673 492 769 q 650 377 650 576 q 347 -14 650 -14 m 347 115 q 418 137 390 115 q 462 216 447 159 q 477 374 477 273 q 462 537 477 478 q 418 618 447 595 q 347 641 390 641 q 274 618 303 641 q 231 538 246 596 q 215 378 215 481 q 231 217 215 275 q 274 137 246 160 q 347 115 302 115 m 133 931 l 133 1042 l 560 1042 l 560 931 l 133 931 z "},"ṓ":{"ha":692,"x_min":43,"x_max":650,"o":"m 347 -14 q 122 81 200 -14 q 43 376 43 176 q 347 769 43 769 q 571 673 492 769 q 650 377 650 576 q 347 -14 650 -14 m 347 115 q 418 137 390 115 q 462 216 447 159 q 477 374 477 273 q 462 537 477 478 q 418 618 447 595 q 347 641 390 641 q 274 618 303 641 q 231 538 246 596 q 215 378 215 481 q 231 217 215 275 q 274 137 246 160 q 347 115 302 115 m 133 931 l 133 1042 l 560 1042 l 560 931 l 133 931 m 273 1159 l 374 1365 l 549 1365 l 421 1159 l 273 1159 z "},"ṑ":{"ha":692,"x_min":43,"x_max":650,"o":"m 347 -14 q 122 81 200 -14 q 43 376 43 176 q 347 769 43 769 q 571 673 492 769 q 650 377 650 576 q 347 -14 650 -14 m 347 115 q 418 137 390 115 q 462 216 447 159 q 477 374 477 273 q 462 537 477 478 q 418 618 447 595 q 347 641 390 641 q 274 618 303 641 q 231 538 246 596 q 215 378 215 481 q 231 217 215 275 q 274 137 246 160 q 347 115 302 115 m 133 931 l 133 1042 l 560 1042 l 560 931 l 133 931 m 273 1159 l 144 1365 l 319 1365 l 421 1159 l 273 1159 z "},"ǫ":{"ha":692,"x_min":43,"x_max":650,"o":"m 469 6 q 356 -66 388 -27 q 323 -151 323 -106 q 343 -206 323 -187 q 401 -226 364 -226 q 483 -206 440 -226 l 488 -277 q 383 -301 440 -301 q 265 -265 306 -301 q 223 -163 223 -228 q 243 -80 223 -117 q 308 -12 264 -42 q 43 376 43 13 q 347 769 43 769 q 571 673 492 769 q 650 377 650 576 q 605 132 650 222 q 469 6 560 42 m 215 378 q 231 217 215 275 q 274 137 246 160 q 347 115 302 115 q 418 137 390 115 q 462 216 447 159 q 477 374 477 273 q 462 537 477 478 q 418 618 447 595 q 347 641 390 641 q 274 618 303 641 q 231 538 246 596 q 215 378 215 481 z "},"ø":{"ha":692,"x_min":43,"x_max":650,"o":"m 582 658 q 650 377 650 560 q 347 -14 650 -14 q 176 31 244 -14 l 138 -28 l 57 25 l 106 101 q 43 376 43 199 q 347 769 43 769 q 511 727 444 769 l 549 786 l 631 733 l 582 658 m 347 644 q 270 621 301 644 q 224 540 240 598 q 207 378 207 481 q 215 251 207 303 l 441 601 q 400 634 424 624 q 347 644 377 644 m 347 112 q 423 134 393 112 q 469 215 453 157 q 485 374 485 272 q 475 511 485 457 l 248 158 q 289 123 265 133 q 347 112 314 112 z "},"ǿ":{"ha":692,"x_min":43,"x_max":650,"o":"m 582 658 q 650 377 650 560 q 347 -14 650 -14 q 176 31 244 -14 l 138 -28 l 57 25 l 106 101 q 43 376 43 199 q 347 769 43 769 q 511 727 444 769 l 549 786 l 631 733 l 582 658 m 347 644 q 270 621 301 644 q 224 540 240 598 q 207 378 207 481 q 215 251 207 303 l 441 601 q 400 634 424 624 q 347 644 377 644 m 347 112 q 423 134 393 112 q 469 215 453 157 q 485 374 485 272 q 475 511 485 457 l 248 158 q 289 123 265 133 q 347 112 314 112 m 274 861 l 400 1122 l 570 1122 l 419 861 l 274 861 z "},"õ":{"ha":692,"x_min":43,"x_max":650,"o":"m 347 -14 q 122 81 200 -14 q 43 376 43 176 q 347 769 43 769 q 571 673 492 769 q 650 377 650 576 q 347 -14 650 -14 m 347 115 q 418 137 390 115 q 462 216 447 159 q 477 374 477 273 q 462 537 477 478 q 418 618 447 595 q 347 641 390 641 q 274 618 303 641 q 231 538 246 596 q 215 378 215 481 q 231 217 215 275 q 274 137 246 160 q 347 115 302 115 m 444 909 q 393 917 417 909 q 336 942 368 926 q 286 963 306 956 q 248 970 267 970 q 187 957 214 970 q 133 913 160 943 l 133 1029 q 184 1067 156 1054 q 250 1079 213 1079 q 301 1071 276 1079 q 358 1047 326 1063 q 408 1025 390 1032 q 446 1019 426 1019 q 507 1032 480 1019 q 560 1075 533 1046 l 560 960 q 509 922 538 934 q 444 909 481 909 z "},"ṍ":{"ha":692,"x_min":43,"x_max":650,"o":"m 347 -14 q 122 81 200 -14 q 43 376 43 176 q 347 769 43 769 q 571 673 492 769 q 650 377 650 576 q 347 -14 650 -14 m 347 115 q 418 137 390 115 q 462 216 447 159 q 477 374 477 273 q 462 537 477 478 q 418 618 447 595 q 347 641 390 641 q 274 618 303 641 q 231 538 246 596 q 215 378 215 481 q 231 217 215 275 q 274 137 246 160 q 347 115 302 115 m 444 909 q 393 917 417 909 q 336 942 368 926 q 286 963 306 956 q 248 970 267 970 q 187 957 214 970 q 133 913 160 943 l 133 1029 q 184 1067 156 1054 q 250 1079 213 1079 q 301 1071 276 1079 q 358 1047 326 1063 q 408 1025 390 1032 q 446 1019 426 1019 q 507 1032 480 1019 q 560 1075 533 1046 l 560 960 q 509 922 538 934 q 444 909 481 909 m 273 1159 l 374 1365 l 549 1365 l 421 1159 l 273 1159 z "},"ṏ":{"ha":692,"x_min":43,"x_max":650,"o":"m 347 -14 q 122 81 200 -14 q 43 376 43 176 q 347 769 43 769 q 571 673 492 769 q 650 377 650 576 q 347 -14 650 -14 m 347 115 q 418 137 390 115 q 462 216 447 159 q 477 374 477 273 q 462 537 477 478 q 418 618 447 595 q 347 641 390 641 q 274 618 303 641 q 231 538 246 596 q 215 378 215 481 q 231 217 215 275 q 274 137 246 160 q 347 115 302 115 m 444 909 q 393 917 417 909 q 336 942 368 926 q 286 963 306 956 q 248 970 267 970 q 187 957 214 970 q 133 913 160 943 l 133 1029 q 184 1067 156 1054 q 250 1079 213 1079 q 301 1071 276 1079 q 358 1047 326 1063 q 408 1025 390 1032 q 446 1019 426 1019 q 507 1032 480 1019 q 560 1075 533 1046 l 560 960 q 509 922 538 934 q 444 909 481 909 m 205 1161 q 134 1187 160 1161 q 108 1256 108 1213 q 134 1326 108 1300 q 205 1351 160 1351 q 275 1326 249 1351 q 301 1256 301 1300 q 275 1187 301 1213 q 205 1161 249 1161 m 489 1161 q 419 1187 445 1161 q 392 1256 392 1213 q 419 1326 392 1300 q 489 1351 445 1351 q 560 1326 533 1351 q 586 1256 586 1300 q 560 1187 586 1213 q 489 1161 533 1161 z "},"ȭ":{"ha":692,"x_min":43,"x_max":650,"o":"m 347 -14 q 122 81 200 -14 q 43 376 43 176 q 347 769 43 769 q 571 673 492 769 q 650 377 650 576 q 347 -14 650 -14 m 347 115 q 418 137 390 115 q 462 216 447 159 q 477 374 477 273 q 462 537 477 478 q 418 618 447 595 q 347 641 390 641 q 274 618 303 641 q 231 538 246 596 q 215 378 215 481 q 231 217 215 275 q 274 137 246 160 q 347 115 302 115 m 444 909 q 393 917 417 909 q 336 942 368 926 q 286 963 306 956 q 248 970 267 970 q 187 957 214 970 q 133 913 160 943 l 133 1029 q 184 1067 156 1054 q 250 1079 213 1079 q 301 1071 276 1079 q 358 1047 326 1063 q 408 1025 390 1032 q 446 1019 426 1019 q 507 1032 480 1019 q 560 1075 533 1046 l 560 960 q 509 922 538 934 q 444 909 481 909 m 133 1201 l 133 1313 l 560 1313 l 560 1201 l 133 1201 z "},"œ":{"ha":1074,"x_min":43,"x_max":1039,"o":"m 1039 325 l 647 325 q 670 205 649 249 q 731 142 690 160 q 839 123 772 123 q 1003 149 910 123 l 1003 13 q 820 -14 907 -14 q 658 13 723 -14 q 554 99 592 40 q 338 -14 485 -14 q 120 81 197 -14 q 43 376 43 176 q 119 674 43 578 q 338 769 196 769 q 563 640 492 769 q 648 738 594 705 q 774 770 701 770 q 969 674 899 770 q 1039 376 1039 577 l 1039 325 m 765 655 q 702 635 728 655 q 663 567 677 615 q 647 433 648 518 l 880 433 q 865 568 878 519 q 827 636 851 617 q 765 655 803 655 m 345 115 q 417 137 389 115 q 460 216 445 159 q 475 374 475 273 q 460 537 475 478 q 416 618 444 595 q 345 641 388 641 q 274 618 302 641 q 231 538 246 596 q 215 378 215 481 q 230 217 215 275 q 273 137 245 160 q 345 115 301 115 z "},"p":{"ha":707,"x_min":75,"x_max":664,"o":"m 75 758 l 217 758 l 229 676 l 238 676 q 304 744 262 719 q 403 769 347 769 q 535 731 476 769 q 629 608 594 693 q 664 392 664 524 q 573 88 664 188 q 297 -13 483 -13 q 243 -10 278 -13 l 243 -306 l 75 -306 l 75 758 m 310 119 q 411 143 372 119 q 471 225 451 168 q 492 376 492 281 q 474 530 492 474 q 426 606 457 585 q 351 626 396 626 q 290 611 319 626 q 243 569 260 596 l 243 124 q 310 119 273 119 z "},"þ":{"ha":707,"x_min":75,"x_max":664,"o":"m 75 1122 l 243 1122 l 243 683 l 251 683 q 318 746 276 723 q 416 769 360 769 q 541 731 485 769 q 631 608 597 692 q 664 392 664 524 q 573 88 664 188 q 297 -13 483 -13 q 243 -10 278 -13 l 243 -306 l 75 -306 l 75 1122 m 310 119 q 411 143 372 119 q 471 225 451 168 q 492 376 492 281 q 474 529 492 474 q 425 605 456 584 q 349 626 394 626 q 289 612 317 626 q 243 572 260 598 l 243 124 q 310 119 273 119 z "},"q":{"ha":707,"x_min":43,"x_max":632,"o":"m 464 73 l 456 73 q 389 10 431 33 q 292 -13 347 -13 q 166 25 222 -13 q 77 149 110 64 q 43 365 43 233 q 133 669 43 568 q 408 769 224 769 q 525 760 465 769 q 632 733 585 750 l 632 -306 l 464 -306 l 464 73 m 359 131 q 418 145 390 131 q 464 184 447 159 l 464 630 q 394 638 429 638 q 260 579 305 638 q 215 381 215 520 q 233 227 215 282 q 282 151 251 172 q 359 131 313 131 z "},"r":{"ha":474,"x_min":75,"x_max":467,"o":"m 75 758 l 214 758 l 227 653 l 235 653 q 311 739 263 712 q 419 767 358 767 q 467 763 443 767 l 467 606 q 408 610 443 610 q 313 586 358 610 q 243 522 267 563 l 243 0 l 75 0 l 75 758 z "},"ŕ":{"ha":474,"x_min":75,"x_max":487,"o":"m 75 758 l 214 758 l 227 653 l 235 653 q 311 739 263 712 q 419 767 358 767 q 467 763 443 767 l 467 606 q 408 610 443 610 q 313 586 358 610 q 243 522 267 563 l 243 0 l 75 0 l 75 758 m 191 861 l 317 1122 l 487 1122 l 336 861 l 191 861 z "},"ř":{"ha":474,"x_min":62,"x_max":467,"o":"m 75 758 l 214 758 l 227 653 l 235 653 q 311 739 263 712 q 419 767 358 767 q 467 763 443 767 l 467 606 q 408 610 443 610 q 313 586 358 610 q 243 522 267 563 l 243 0 l 75 0 l 75 758 m 348 1122 l 465 1122 l 337 861 l 190 861 l 62 1122 l 179 1122 l 264 940 l 348 1122 z "},"ŗ":{"ha":474,"x_min":61,"x_max":467,"o":"m 75 758 l 214 758 l 227 653 l 235 653 q 311 739 263 712 q 419 767 358 767 q 467 763 443 767 l 467 606 q 408 610 443 610 q 313 586 358 610 q 243 522 267 563 l 243 0 l 75 0 l 75 758 m 158 -97 q 258 -190 258 -97 q 244 -265 258 -224 q 210 -337 231 -305 l 104 -337 q 139 -237 132 -278 q 81 -215 100 -233 q 61 -167 61 -197 q 85 -116 61 -134 q 158 -97 110 -97 z "},"ȑ":{"ha":474,"x_min":-12,"x_max":467,"o":"m 75 758 l 214 758 l 227 653 l 235 653 q 311 739 263 712 q 419 767 358 767 q 467 763 443 767 l 467 606 q 408 610 443 610 q 313 586 358 610 q 243 522 267 563 l 243 0 l 75 0 l 75 758 m 77 861 l -12 1122 l 126 1122 l 206 861 l 77 861 m 321 861 l 231 1122 l 371 1122 l 450 861 l 321 861 z "},"ṛ":{"ha":474,"x_min":63,"x_max":467,"o":"m 75 758 l 214 758 l 227 653 l 235 653 q 311 739 263 712 q 419 767 358 767 q 467 763 443 767 l 467 606 q 408 610 443 610 q 313 586 358 610 q 243 522 267 563 l 243 0 l 75 0 l 75 758 m 159 -287 q 89 -262 115 -287 q 63 -193 63 -237 q 89 -123 63 -149 q 159 -97 115 -97 q 230 -123 203 -97 q 256 -193 256 -149 q 230 -262 256 -237 q 159 -287 203 -287 z "},"ȓ":{"ha":474,"x_min":59,"x_max":468,"o":"m 75 758 l 214 758 l 227 653 l 235 653 q 311 739 263 712 q 419 767 358 767 q 467 763 443 767 l 467 606 q 408 610 443 610 q 313 586 358 610 q 243 522 267 563 l 243 0 l 75 0 l 75 758 m 59 881 q 117 1059 65 1002 q 263 1117 170 1117 q 408 1059 353 1117 q 468 881 463 1001 l 362 881 q 333 992 358 958 q 263 1026 308 1026 q 192 992 216 1026 q 165 881 168 958 l 59 881 z "},"ṟ":{"ha":474,"x_min":-45,"x_max":467,"o":"m 75 758 l 214 758 l 227 653 l 235 653 q 311 739 263 712 q 419 767 358 767 q 467 763 443 767 l 467 606 q 408 610 443 610 q 313 586 358 610 q 243 522 267 563 l 243 0 l 75 0 l 75 758 m -45 -247 l -45 -135 l 364 -135 l 364 -247 l -45 -247 z "},"s":{"ha":551,"x_min":34,"x_max":524,"o":"m 242 -14 q 54 16 141 -14 l 54 152 q 239 122 144 122 q 338 146 306 122 q 370 216 370 170 q 352 273 370 253 q 296 304 334 293 l 206 326 q 76 401 118 349 q 34 539 34 453 q 68 660 34 608 q 167 741 101 712 q 326 769 233 769 q 485 751 409 769 l 485 615 q 335 634 413 634 q 223 608 258 634 q 188 540 188 581 q 206 486 188 506 q 262 456 224 467 l 351 434 q 483 359 442 410 q 524 220 524 308 q 490 95 524 148 q 393 14 456 42 q 242 -14 329 -14 z "},"ś":{"ha":551,"x_min":34,"x_max":524,"o":"m 242 -14 q 54 16 141 -14 l 54 152 q 239 122 144 122 q 338 146 306 122 q 370 216 370 170 q 352 273 370 253 q 296 304 334 293 l 206 326 q 76 401 118 349 q 34 539 34 453 q 68 660 34 608 q 167 741 101 712 q 326 769 233 769 q 485 751 409 769 l 485 615 q 335 634 413 634 q 223 608 258 634 q 188 540 188 581 q 206 486 188 506 q 262 456 224 467 l 351 434 q 483 359 442 410 q 524 220 524 308 q 490 95 524 148 q 393 14 456 42 q 242 -14 329 -14 m 203 861 l 329 1122 l 499 1122 l 349 861 l 203 861 z "},"ṥ":{"ha":551,"x_min":34,"x_max":524,"o":"m 242 -14 q 54 16 141 -14 l 54 152 q 239 122 144 122 q 338 146 306 122 q 370 216 370 170 q 352 273 370 253 q 296 304 334 293 l 206 326 q 76 401 118 349 q 34 539 34 453 q 68 660 34 608 q 167 741 101 712 q 326 769 233 769 q 485 751 409 769 l 485 615 q 335 634 413 634 q 223 608 258 634 q 188 540 188 581 q 206 486 188 506 q 262 456 224 467 l 351 434 q 483 359 442 410 q 524 220 524 308 q 490 95 524 148 q 393 14 456 42 q 242 -14 329 -14 m 188 1094 q 121 1114 145 1094 q 97 1169 97 1133 q 121 1224 97 1205 q 188 1244 145 1244 q 254 1224 230 1244 q 278 1169 278 1205 q 254 1114 278 1133 q 188 1094 230 1094 m 203 861 l 329 1122 l 499 1122 l 349 861 l 203 861 z "},"š":{"ha":551,"x_min":34,"x_max":524,"o":"m 242 -14 q 54 16 141 -14 l 54 152 q 239 122 144 122 q 338 146 306 122 q 370 216 370 170 q 352 273 370 253 q 296 304 334 293 l 206 326 q 76 401 118 349 q 34 539 34 453 q 68 660 34 608 q 167 741 101 712 q 326 769 233 769 q 485 751 409 769 l 485 615 q 335 634 413 634 q 223 608 258 634 q 188 540 188 581 q 206 486 188 506 q 262 456 224 467 l 351 434 q 483 359 442 410 q 524 220 524 308 q 490 95 524 148 q 393 14 456 42 q 242 -14 329 -14 m 360 1122 l 478 1122 l 349 861 l 203 861 l 74 1122 l 192 1122 l 276 940 l 360 1122 z "},"ṧ":{"ha":551,"x_min":34,"x_max":524,"o":"m 242 -14 q 54 16 141 -14 l 54 152 q 239 122 144 122 q 338 146 306 122 q 370 216 370 170 q 352 273 370 253 q 296 304 334 293 l 206 326 q 76 401 118 349 q 34 539 34 453 q 68 660 34 608 q 167 741 101 712 q 326 769 233 769 q 485 751 409 769 l 485 615 q 335 634 413 634 q 223 608 258 634 q 188 540 188 581 q 206 486 188 506 q 262 456 224 467 l 351 434 q 483 359 442 410 q 524 220 524 308 q 490 95 524 148 q 393 14 456 42 q 242 -14 329 -14 m 276 1137 q 209 1156 233 1137 q 185 1211 185 1175 q 209 1267 185 1247 q 276 1286 233 1286 q 342 1267 318 1286 q 367 1211 367 1247 q 342 1156 367 1175 q 276 1137 318 1137 m 360 1122 l 478 1122 l 349 861 l 203 861 l 74 1122 l 192 1122 l 276 940 l 360 1122 z "},"ş":{"ha":551,"x_min":34,"x_max":524,"o":"m 524 220 q 472 71 524 130 q 326 -6 420 12 l 326 -67 q 401 -105 374 -76 q 427 -181 427 -134 q 388 -269 427 -237 q 270 -301 349 -301 q 160 -280 210 -301 l 160 -206 q 264 -227 210 -227 q 315 -214 299 -227 q 332 -174 332 -201 q 262 -119 332 -119 l 238 -119 l 238 -14 q 54 16 138 -12 l 54 152 q 239 122 144 122 q 338 146 306 122 q 370 216 370 170 q 352 273 370 253 q 296 304 334 293 l 206 326 q 76 401 118 349 q 34 539 34 453 q 68 660 34 608 q 167 741 101 712 q 326 769 233 769 q 485 751 409 769 l 485 615 q 335 634 413 634 q 223 608 258 634 q 188 540 188 581 q 206 486 188 506 q 262 456 224 467 l 351 434 q 483 359 442 410 q 524 220 524 308 z "},"ŝ":{"ha":551,"x_min":34,"x_max":524,"o":"m 242 -14 q 54 16 141 -14 l 54 152 q 239 122 144 122 q 338 146 306 122 q 370 216 370 170 q 352 273 370 253 q 296 304 334 293 l 206 326 q 76 401 118 349 q 34 539 34 453 q 68 660 34 608 q 167 741 101 712 q 326 769 233 769 q 485 751 409 769 l 485 615 q 335 634 413 634 q 223 608 258 634 q 188 540 188 581 q 206 486 188 506 q 262 456 224 467 l 351 434 q 483 359 442 410 q 524 220 524 308 q 490 95 524 148 q 393 14 456 42 q 242 -14 329 -14 m 478 861 l 360 861 l 276 1044 l 192 861 l 74 861 l 203 1122 l 349 1122 l 478 861 z "},"ș":{"ha":551,"x_min":34,"x_max":524,"o":"m 242 -14 q 54 16 141 -14 l 54 152 q 239 122 144 122 q 338 146 306 122 q 370 216 370 170 q 352 273 370 253 q 296 304 334 293 l 206 326 q 76 401 118 349 q 34 539 34 453 q 68 660 34 608 q 167 741 101 712 q 326 769 233 769 q 485 751 409 769 l 485 615 q 335 634 413 634 q 223 608 258 634 q 188 540 188 581 q 206 486 188 506 q 262 456 224 467 l 351 434 q 483 359 442 410 q 524 220 524 308 q 490 95 524 148 q 393 14 456 42 q 242 -14 329 -14 m 275 -97 q 374 -190 374 -97 q 361 -265 374 -224 q 327 -337 348 -305 l 221 -337 q 256 -237 249 -278 q 197 -215 217 -233 q 178 -167 178 -197 q 202 -116 178 -134 q 275 -97 226 -97 z "},"ṡ":{"ha":551,"x_min":34,"x_max":524,"o":"m 242 -14 q 54 16 141 -14 l 54 152 q 239 122 144 122 q 338 146 306 122 q 370 216 370 170 q 352 273 370 253 q 296 304 334 293 l 206 326 q 76 401 118 349 q 34 539 34 453 q 68 660 34 608 q 167 741 101 712 q 326 769 233 769 q 485 751 409 769 l 485 615 q 335 634 413 634 q 223 608 258 634 q 188 540 188 581 q 206 486 188 506 q 262 456 224 467 l 351 434 q 483 359 442 410 q 524 220 524 308 q 490 95 524 148 q 393 14 456 42 q 242 -14 329 -14 m 276 888 q 195 913 222 888 q 167 986 167 939 q 195 1059 167 1033 q 276 1085 222 1085 q 357 1059 329 1085 q 385 986 385 1033 q 357 913 385 939 q 276 888 330 888 z "}}}
